<svg viewBox="0 0 330 200" xmlns="http://www.w3.org/2000/svg"><g><g><g><g><g><line x1="41.171875" y1="177" x2="36.171875" y2="177" style="visibility: inherit;" fill="rgb(0, 0, 0)" stroke="rgb(204, 204, 204)" stroke-width="1px"></line><line x1="41.171875" y1="163.3846153846154" x2="36.171875" y2="163.3846153846154" style="visibility: inherit;" fill="rgb(0, 0, 0)" stroke="rgb(204, 204, 204)" stroke-width="1px"></line><line x1="41.171875" y1="149.76923076923077" x2="36.171875" y2="149.76923076923077" style="visibility: inherit;" fill="rgb(0, 0, 0)" stroke="rgb(204, 204, 204)" stroke-width="1px"></line><line x1="41.171875" y1="136.15384615384616" x2="36.171875" y2="136.15384615384616" style="visibility: inherit;" fill="rgb(0, 0, 0)" stroke="rgb(204, 204, 204)" stroke-width="1px"></line><line x1="41.171875" y1="122.53846153846153" x2="36.171875" y2="122.53846153846153" style="visibility: inherit;" fill="rgb(0, 0, 0)" stroke="rgb(204, 204, 204)" stroke-width="1px"></line><line x1="41.171875" y1="108.92307692307693" x2="36.171875" y2="108.92307692307693" style="visibility: inherit;" fill="rgb(0, 0, 0)" stroke="rgb(204, 204, 204)" stroke-width="1px"></line><line x1="41.171875" y1="95.30769230769232" x2="36.171875" y2="95.30769230769232" style="visibility: inherit;" fill="rgb(0, 0, 0)" stroke="rgb(204, 204, 204)" stroke-width="1px"></line><line x1="41.171875" y1="81.6923076923077" x2="36.171875" y2="81.6923076923077" style="visibility: inherit;" fill="rgb(0, 0, 0)" stroke="rgb(204, 204, 204)" stroke-width="1px"></line><line x1="41.171875" y1="68.07692307692307" x2="36.171875" y2="68.07692307692307" style="visibility: inherit;" fill="rgb(0, 0, 0)" stroke="rgb(204, 204, 204)" stroke-width="1px"></line><line x1="41.171875" y1="54.46153846153847" x2="36.171875" y2="54.46153846153847" style="visibility: inherit;" fill="rgb(0, 0, 0)" stroke="rgb(204, 204, 204)" stroke-width="1px"></line><line x1="41.171875" y1="40.84615384615386" x2="36.171875" y2="40.84615384615386" style="visibility: inherit;" fill="rgb(0, 0, 0)" stroke="rgb(204, 204, 204)" stroke-width="1px"></line><line x1="41.171875" y1="27.230769230769234" x2="36.171875" y2="27.230769230769234" style="visibility: inherit;" fill="rgb(0, 0, 0)" stroke="rgb(204, 204, 204)" stroke-width="1px"></line><line x1="41.171875" y1="13.615384615384626" x2="36.171875" y2="13.615384615384626" style="visibility: inherit;" fill="rgb(0, 0, 0)" stroke="rgb(204, 204, 204)" stroke-width="1px"></line><line x1="41.171875" y1="0" x2="36.171875" y2="0" style="visibility: inherit;" fill="rgb(0, 0, 0)" stroke="rgb(204, 204, 204)" stroke-width="1px"></line></g><g transform="translate(31.171875, 0)"><text x="0" y="177" dx="0em" dy="0.3em" style="text-anchor: end; visibility: hidden; font-family: Roboto, sans-serif; font-size: 12px; font-weight: 200;" fill="rgb(33, 33, 33)" stroke="none" stroke-width="1px">0</text><text x="0" y="163.3846153846154" dx="0em" dy="0.3em" style="text-anchor: end; visibility: inherit; font-family: Roboto, sans-serif; font-size: 12px; font-weight: 200;" fill="rgb(33, 33, 33)" stroke="none" stroke-width="1px">0.1</text><text x="0" y="149.76923076923077" dx="0em" dy="0.3em" style="text-anchor: end; visibility: hidden; font-family: Roboto, sans-serif; font-size: 12px; font-weight: 200;" fill="rgb(33, 33, 33)" stroke="none" stroke-width="1px">0.2</text><text x="0" y="136.15384615384616" dx="0em" dy="0.3em" style="text-anchor: end; visibility: inherit; font-family: Roboto, sans-serif; font-size: 12px; font-weight: 200;" fill="rgb(33, 33, 33)" stroke="none" stroke-width="1px">0.3</text><text x="0" y="122.53846153846153" dx="0em" dy="0.3em" style="text-anchor: end; visibility: hidden; font-family: Roboto, sans-serif; font-size: 12px; font-weight: 200;" fill="rgb(33, 33, 33)" stroke="none" stroke-width="1px">0.4</text><text x="0" y="108.92307692307693" dx="0em" dy="0.3em" style="text-anchor: end; visibility: inherit; font-family: Roboto, sans-serif; font-size: 12px; font-weight: 200;" fill="rgb(33, 33, 33)" stroke="none" stroke-width="1px">0.5</text><text x="0" y="95.30769230769232" dx="0em" dy="0.3em" style="text-anchor: end; visibility: hidden; font-family: Roboto, sans-serif; font-size: 12px; font-weight: 200;" fill="rgb(33, 33, 33)" stroke="none" stroke-width="1px">0.6</text><text x="0" y="81.6923076923077" dx="0em" dy="0.3em" style="text-anchor: end; visibility: inherit; font-family: Roboto, sans-serif; font-size: 12px; font-weight: 200;" fill="rgb(33, 33, 33)" stroke="none" stroke-width="1px">0.7</text><text x="0" y="68.07692307692307" dx="0em" dy="0.3em" style="text-anchor: end; visibility: hidden; font-family: Roboto, sans-serif; font-size: 12px; font-weight: 200;" fill="rgb(33, 33, 33)" stroke="none" stroke-width="1px">0.8</text><text x="0" y="54.46153846153847" dx="0em" dy="0.3em" style="text-anchor: end; visibility: inherit; font-family: Roboto, sans-serif; font-size: 12px; font-weight: 200;" fill="rgb(33, 33, 33)" stroke="none" stroke-width="1px">0.9</text><text x="0" y="40.84615384615386" dx="0em" dy="0.3em" style="text-anchor: end; visibility: hidden; font-family: Roboto, sans-serif; font-size: 12px; font-weight: 200;" fill="rgb(33, 33, 33)" stroke="none" stroke-width="1px">1</text><text x="0" y="27.230769230769234" dx="0em" dy="0.3em" style="text-anchor: end; visibility: inherit; font-family: Roboto, sans-serif; font-size: 12px; font-weight: 200;" fill="rgb(33, 33, 33)" stroke="none" stroke-width="1px">1.1</text><text x="0" y="13.615384615384626" dx="0em" dy="0.3em" style="text-anchor: end; visibility: hidden; font-family: Roboto, sans-serif; font-size: 12px; font-weight: 200;" fill="rgb(33, 33, 33)" stroke="none" stroke-width="1px">1.2</text><text x="0" y="0" dx="0em" dy="0.3em" style="text-anchor: end; visibility: hidden; font-family: Roboto, sans-serif; font-size: 12px; font-weight: 200;" fill="rgb(33, 33, 33)" stroke="none" stroke-width="1px">1.3</text></g><line x1="41.171875" y1="0" x2="41.171875" y2="177" fill="rgb(0, 0, 0)" stroke="rgb(204, 204, 204)" stroke-width="1px"></line></g></g><g transform="translate(41, 0)" clip-path="url(#clip_0)"><clipPath id="clip_0"><rect width="288" height="177"></rect></clipPath><g><g><g><line x1="0" y1="0" x2="0" y2="177" fill="rgb(0, 0, 0)" stroke="rgb(66, 66, 66)" stroke-width="1px" opacity="0.25"></line><line x1="36.103515625" y1="0" x2="36.103515625" y2="177" fill="rgb(0, 0, 0)" stroke="rgb(66, 66, 66)" stroke-width="1px" opacity="0.25"></line><line x1="72.20703125" y1="0" x2="72.20703125" y2="177" fill="rgb(0, 0, 0)" stroke="rgb(66, 66, 66)" stroke-width="1px" opacity="0.25"></line><line x1="108.310546875" y1="0" x2="108.310546875" y2="177" fill="rgb(0, 0, 0)" stroke="rgb(66, 66, 66)" stroke-width="1px" opacity="0.25"></line><line x1="144.4140625" y1="0" x2="144.4140625" y2="177" fill="rgb(0, 0, 0)" stroke="rgb(66, 66, 66)" stroke-width="1px" opacity="0.25"></line><line x1="180.517578125" y1="0" x2="180.517578125" y2="177" fill="rgb(0, 0, 0)" stroke="rgb(66, 66, 66)" stroke-width="1px" opacity="0.25"></line><line x1="216.62109375" y1="0" x2="216.62109375" y2="177" fill="rgb(0, 0, 0)" stroke="rgb(66, 66, 66)" stroke-width="1px" opacity="0.25"></line><line x1="252.724609375" y1="0" x2="252.724609375" y2="177" fill="rgb(0, 0, 0)" stroke="rgb(66, 66, 66)" stroke-width="1px" opacity="0.25"></line><line x1="288.828125" y1="0" x2="288.828125" y2="177" fill="rgb(0, 0, 0)" stroke="rgb(66, 66, 66)" stroke-width="1px" opacity="0.25"></line></g><g><line x1="0" y1="177" x2="288.828125" y2="177" fill="rgb(0, 0, 0)" stroke="rgb(66, 66, 66)" stroke-width="1px" opacity="0.25"></line><line x1="0" y1="163.3846153846154" x2="288.828125" y2="163.3846153846154" fill="rgb(0, 0, 0)" stroke="rgb(66, 66, 66)" stroke-width="1px" opacity="0.25"></line><line x1="0" y1="149.76923076923077" x2="288.828125" y2="149.76923076923077" fill="rgb(0, 0, 0)" stroke="rgb(66, 66, 66)" stroke-width="1px" opacity="0.25"></line><line x1="0" y1="136.15384615384616" x2="288.828125" y2="136.15384615384616" fill="rgb(0, 0, 0)" stroke="rgb(66, 66, 66)" stroke-width="1px" opacity="0.25"></line><line x1="0" y1="122.53846153846153" x2="288.828125" y2="122.53846153846153" fill="rgb(0, 0, 0)" stroke="rgb(66, 66, 66)" stroke-width="1px" opacity="0.25"></line><line x1="0" y1="108.92307692307693" x2="288.828125" y2="108.92307692307693" fill="rgb(0, 0, 0)" stroke="rgb(66, 66, 66)" stroke-width="1px" opacity="0.25"></line><line x1="0" y1="95.30769230769232" x2="288.828125" y2="95.30769230769232" fill="rgb(0, 0, 0)" stroke="rgb(66, 66, 66)" stroke-width="1px" opacity="0.25"></line><line x1="0" y1="81.6923076923077" x2="288.828125" y2="81.6923076923077" fill="rgb(0, 0, 0)" stroke="rgb(66, 66, 66)" stroke-width="1px" opacity="0.25"></line><line x1="0" y1="68.07692307692307" x2="288.828125" y2="68.07692307692307" fill="rgb(0, 0, 0)" stroke="rgb(66, 66, 66)" stroke-width="1px" opacity="0.25"></line><line x1="0" y1="54.46153846153847" x2="288.828125" y2="54.46153846153847" fill="rgb(0, 0, 0)" stroke="rgb(66, 66, 66)" stroke-width="1px" opacity="0.25"></line><line x1="0" y1="40.84615384615386" x2="288.828125" y2="40.84615384615386" fill="rgb(0, 0, 0)" stroke="rgb(66, 66, 66)" stroke-width="1px" opacity="0.25"></line><line x1="0" y1="27.230769230769234" x2="288.828125" y2="27.230769230769234" fill="rgb(0, 0, 0)" stroke="rgb(66, 66, 66)" stroke-width="1px" opacity="0.25"></line><line x1="0" y1="13.615384615384626" x2="288.828125" y2="13.615384615384626" fill="rgb(0, 0, 0)" stroke="rgb(66, 66, 66)" stroke-width="1px" opacity="0.25"></line><line x1="0" y1="0" x2="288.828125" y2="0" fill="rgb(0, 0, 0)" stroke="rgb(66, 66, 66)" stroke-width="1px" opacity="0.25"></line></g></g></g><g><g><line x1="0" y1="177" x2="288.828125" y2="177" fill="rgb(0, 0, 0)" stroke="rgb(153, 153, 153)" stroke-width="1.5px"></line></g></g><g><g><line x1="36.103515625" y1="0" x2="36.103515625" y2="177" fill="rgb(0, 0, 0)" stroke="rgb(153, 153, 153)" stroke-width="1.5px"></line></g></g><g><g><g><g><g><path stroke="rgb(255, 112, 67)" stroke-width="2px" d="M36.8255859375,2.0716737600473527L37.54765625,-1.5472678679686145L38.269726562500004,-0.16715686923852924L38.991796875000006,3.5298124274651808L39.7138671875,7.4017365873512055L40.4359375,8.360579464114553L41.158007812499996,12.714698809089308L41.880078125,15.212786471672715L42.6021484375,20.28105537512578L43.32421875,18.127236658153684L44.0462890625,8.092726909096152L44.768359375,19.364374703645737L45.4904296875,22.879091673559735L46.2125,18.74806298314811L46.9345703125,26.852309627886825L47.656640625,9.592000496356878L48.3787109375,19.863587115335662L49.100781250000004,-7.2435227103897235L49.8228515625,14.680742062349049L50.544921875,15.579387505401254L51.266992187499994,26.765343751871853L51.989062499999996,22.982713334177653L52.7111328125,25.363932599019268L53.433203125,29.393611716898903L54.1552734375,30.74397541708562L54.87734375,32.399551287357575L55.5994140625,30.10891321542534L56.321484375000004,40.46858207148344L57.043554687500006,45.84894385368115L57.765625,49.65608331941052L58.4876953125,57.86538951807029L59.209765624999996,61.748958133680055L59.9318359375,59.218953634423514L60.65390625,68.96584620555359L61.3759765625,63.930419496135215L62.098046875,63.324651170345334L62.8201171875,66.41103445053233L63.5421875,65.13083225713962L64.2642578125,64.19798776755677L64.986328125,72.51835481776978L65.70839843750001,76.20124263229137L66.43046875,81.01717812449328L67.1525390625,84.62018060705603L67.87460937499999,86.26097331088323L68.5966796875,82.33630939100807L69.31875,85.83599748682343L70.0408203125,79.37861922869347L70.762890625,81.66388599206499L71.4849609375,84.7056923691001L72.20703125,82.52386156129158L72.9291015625,87.37429773273213L73.651171875,90.14375397105651L74.3732421875,88.42375608362083L75.0953125,92.37796723889124L75.8173828125,93.04128971677996L76.53945312500001,92.582300037038L77.2615234375,93.6577894930013L77.98359375000001,84.6596487887608L78.7056640625,88.7704634174148L79.427734375,88.27668740179773L80.14980468750001,92.71059725089557L80.871875,92.13971159928025L81.5939453125,82.60080058343068L82.31601562499999,80.46958393801593L83.0380859375,86.58417636355139L83.76015625,83.2647757019469L84.48222656249999,84.4501787062622L85.204296875,83.76304916083711L85.92636718749999,87.54778448160734L86.6484375,93.6232168529635L87.3705078125,89.96777331877063L88.092578125,95.35365283151224L88.8146484375,102.46975711656385L89.53671875,97.3462642961952L90.2587890625,102.28157173186435L90.980859375,99.89570795649226L91.7029296875,102.37954961015683L92.425,101.51414178509012L93.1470703125,103.405411591475L93.869140625,108.10139025149357L94.59121093750001,105.29614676313628L95.31328125,100.51528369674381L96.03535156250001,99.47170543797237L96.757421875,101.90370151155568L97.4794921875,103.95460282738114L98.20156250000001,108.21331159824426L98.9236328125,105.31500319297764L99.645703125,112.6078141833835L100.36777343749999,114.29215767187068L101.08984375,117.54588674610784L101.8119140625,120.28872986407329L102.53398437499999,119.31149897255634L103.2560546875,118.95983837596074L103.97812499999999,122.43527944141601L104.7001953125,109.90973079310089L105.422265625,112.92382846308716L106.1443359375,112.83684899001332L106.86640625,116.80792360519315L107.5884765625,118.38175011652906L108.310546875,119.22862549594575L109.0326171875,120.84284101249162L109.7546875,119.52572750594891L110.4767578125,122.3514616315671L111.198828125,123.28502495530206L111.9208984375,123.67020949801962L112.64296875000001,124.33455769376346L113.3650390625,123.68241849222233L114.08710937500001,125.04826225630129L114.8091796875,123.42680015714897L115.53125,123.81814138943193L116.25332031250001,123.45942785332069L116.975390625,125.83836252591384L117.6974609375,126.77646848803201L118.41953124999999,124.56249320332392L119.1416015625,127.74416945242628L119.863671875,128.92803160421144L120.58574218749999,129.70035705609376L121.3078125,122.4055354876529L122.02988281249999,124.16308275773774L122.751953125,126.15390286027947L123.4740234375,128.07229523995025L124.19609375,125.25170504625054L124.9181640625,128.36039332173436L125.640234375,127.14643138330177L126.3623046875,125.84754960071716L127.084375,126.75647077941515L127.8064453125,123.90415802267287L128.528515625,121.3027088250895L129.2505859375,121.5409248410754L129.97265625,122.79062805638038L130.6947265625,125.8553325941238L131.41679687500002,130.32490883392074L132.1388671875,127.9102115665884L132.8609375,129.9181988480235L133.5830078125,132.57986811836446L134.305078125,129.53451909859297L135.02714843750002,129.05577456085092L135.74921874999998,128.2679276652825L136.4712890625,129.2488843534543L137.193359375,130.95430480857993L137.9154296875,130.28751170656497L138.6375,131.72006233484856L139.35957031249998,133.18288030778766L140.081640625,130.8226767857351L140.8037109375,133.0064121220351L141.52578125,138.20012052581828L142.2478515625,137.15299926374487L142.969921875,137.08921599033417L143.6919921875,139.62082916193663L144.4140625,140.1543665675085L145.1361328125,140.54328002434923L145.858203125,135.92400908320013L146.58027343749998,138.51599985912912L147.30234375,138.5439698756755L148.0244140625,138.7552391088617L148.746484375,135.1267803272649L149.4685546875,137.92238981766693L150.190625,140.4272253972574L150.91269531249998,143.96792113785418L151.634765625,144.138235891809L152.3568359375,140.09769886385243L153.07890625000002,139.78677006385004L153.80097656249998,139.79486231513965L154.523046875,141.4503278698398L155.2451171875,139.64214864674145L155.96718750000002,142.34634323621628L156.6892578125,144.61949121592727L157.411328125,146.63233296472188L158.1333984375,129.7478002021765L158.85546875,135.93284557705073L159.5775390625,140.00869581322684L160.29960937500002,141.00708052005703L161.0216796875,140.0625327377697L161.74375,138.2372302520245L162.4658203125,139.9782923625231L163.187890625,139.23029908474666L163.9099609375,140.90255179321443L164.63203124999998,143.60398060638343L165.3541015625,144.21174848504356L166.076171875,144.4410329514088L166.7982421875,145.1914868780899L167.5203125,147.30374398495633L168.2423828125,142.99158189785314L168.96445312499998,143.6244240757107L169.6865234375,145.9336773021021L170.40859375,144.62697152641636L171.13066406250002,147.6860151705897L171.85273437499998,147.4839407417904L172.5748046875,148.74144276829176L173.296875,147.624279166676L174.01894531250002,147.08376737789126L174.741015625,147.98473500500532L175.4630859375,145.48037306472673L176.18515625,147.02412835087463L176.9072265625,147.3905843639553L177.629296875,146.66174885527147L178.35136718750002,145.40742705585686L179.0734375,144.85322795381347L179.7955078125,146.61851709205948L180.517578125,144.25725816329972L181.2396484375,145.3889629044572L181.96171875,148.02643667175087L182.68378906249998,143.21212764000813L183.405859375,146.09300847438988L184.1279296875,145.45916628225226L184.85,147.76036009054297L185.5720703125,150.93859726061817L186.294140625,150.20440482374116L187.01621093749998,147.79577056104822L187.73828125,149.662422922003L188.4603515625,152.7794718498322L189.18242187500002,151.18049685407752L189.90449218749998,146.31253965966422L190.6265625,151.31447325832238L191.3486328125,151.6197400060643L192.07070312500002,151.0837577965422L192.7927734375,154.83835252122384L193.51484375,156.35543967666624L194.2369140625,157.94091570330178L194.958984375,157.46407688002526L195.6810546875,157.88582488593212L196.40312500000002,159.47782853019135L197.1251953125,159.63165468804408L197.847265625,157.80256899174398L198.5693359375,154.19937694975619L199.29140625,155.78906988080442L200.0134765625,157.62863831047338L200.73554687499998,148.58693963574152L201.4576171875,152.52907732162484L202.1796875,155.44139805731265L202.9017578125,154.8731547808932L203.623828125,157.89812966819784L204.3458984375,159.82403591012513L205.06796874999998,161.11612818587847L205.7900390625,161.21822559344648L206.512109375,161.16997237370674L207.23417968750002,161.0449998212601L207.95624999999998,160.32674573304877L208.6783203125,160.66823506160614L209.400390625,161.78574209188153L210.12246093750002,162.54494967876556L210.84453125,160.74739081155468L211.5666015625,162.1349556246105L212.288671875,163.33389921547425L213.0107421875,161.9248576486564L213.7328125,159.93613168009395L214.45488281250002,160.69181223617497L215.176953125,160.05781274703125L215.8990234375,160.74798831603653L216.62109375,162.04958343019965L217.3431640625,162.79486397580067L218.065234375,163.69230887054704L218.78730468749998,162.65515840689537L219.509375,163.1146811936097L220.2314453125,163.82707001988408L220.953515625,163.99873953503652L221.6755859375,162.9186767764961L222.39765625,162.8327325328725L223.11972656249998,163.00079107229064L223.841796875,164.08623947238644L224.5638671875,163.94118797318953L225.28593750000002,163.39630924233043L226.00800781249998,163.7394901937646L226.730078125,164.4801797919238L227.4521484375,165.23500117102924L228.17421875000002,165.59429907143831L228.8962890625,165.4333097854162L229.618359375,165.3097174898742L230.3404296875,165.1300870490416L231.0625,164.99869661771552L231.7845703125,164.65219855912045L232.50664062500002,164.56019415162973L233.2287109375,163.6448283205301L233.95078125,163.4966220609423L234.6728515625,162.3527618274184L235.394921875,162.5169142151163L236.1169921875,163.43550553108966L236.83906249999998,164.2712082135743L237.5611328125,164.89845709656228L238.283203125,165.76410427942145L239.0052734375,166.28222983264257L239.72734375,166.30722675157662L240.4494140625,165.1286712786922L241.17148437499998,164.93086628234295L241.8935546875,165.69459890242118L242.615625,166.11084979217972L243.33769531250002,166.78797644731745L244.05976562499998,167.39219357859423L244.7818359375,167.6421782501786L245.50390625,167.2121888906554L246.22597656250002,166.56267096923105L246.948046875,166.0065827155306L247.6701171875,165.37628221234232L248.3921875,165.8478895560444L249.1142578125,166.65011590701812L249.836328125,167.41837295971106L250.55839843750002,168.0112580583936L251.28046875,168.39767162521895L252.0025390625,168.75575747524903L252.724609375,169.04507246162234" style="fill: none;" fill="none"></path></g></g></g></g><g opacity="0.2"><g><g><g><path stroke="rgb(255, 112, 67)" stroke-width="2px" d="M36.8255859375,2.071673760047333L37.54765625,-3.7186328447782104L38.269726562500004,1.157749689542341L38.991796875000006,7.877448320388794L39.7138671875,12.456920770498426L40.4359375,9.687004346113953L41.158007812499996,18.941159138312713L41.880078125,18.85502226536091L42.6021484375,27.755767547167274L43.32421875,14.929066878098713L44.0462890625,-6.868025449606091L44.768359375,36.210506585928115L45.4904296875,28.13969096770653L46.2125,12.559613062785223L46.9345703125,38.99915335728572L47.656640625,-16.286289893663856L48.3787109375,35.266620452587425L49.100781250000004,-47.89730495672959L49.8228515625,47.563799280386704L50.544921875,16.927273530226504L51.266992187499994,43.543664657152625L51.989062499999996,17.30889217670147L52.7111328125,28.93571448326111L53.433203125,35.43808265832755L54.1552734375,32.76951136955849L54.87734375,34.882908032490654L55.5994140625,26.67296196864201L56.321484375000004,56.00806945103866L57.043554687500006,53.919481570904075L57.765625,55.366790413856506L58.4876953125,70.17934609376468L59.209765624999996,67.57431028439449L59.9318359375,55.42394718757042L60.65390625,83.58618436409877L61.3759765625,56.37727964841403L62.098046875,62.415998697280884L62.8201171875,71.04060932306143L63.5421875,63.21052897893466L64.2642578125,62.79872103837821L64.986328125,84.99890536528366L65.70839843750001,81.72557434668907L66.43046875,88.24108135700226L67.1525390625,90.02468432829932L67.87460937499999,88.72216236591339L68.5966796875,76.44931351221526L69.31875,91.08552963000076L70.0408203125,69.69255184210265L70.762890625,85.091786136994L71.4849609375,89.26840193455035L72.20703125,79.25111534962288L72.9291015625,94.64995198983414L73.651171875,94.2979383285229L74.3732421875,85.84375925247485L75.0953125,98.3092839717865L75.8173828125,94.03627343361194L76.53945312500001,91.89381551742554L77.2615234375,95.27102367694562L77.98359375000001,71.1624377324031L78.7056640625,94.93668536039499L79.427734375,87.53602337837219L80.14980468750001,99.361462024542L80.871875,91.28338312185728L81.5939453125,68.29243405965659L82.31601562499999,77.27275896989383L83.0380859375,95.75606500185454L83.76015625,78.28567470954015L84.48222656249999,86.2282832127351L85.204296875,82.7323548426995L85.92636718749999,93.22488746276268L86.6484375,102.73636540999779L87.3705078125,84.48460801748129L88.092578125,103.43247210062468L88.8146484375,113.14391354414133L89.53671875,89.66102506564215L90.2587890625,109.68453288536804L90.980859375,96.31691229343414L91.7029296875,106.10531209065364L92.425,100.21603004749005L93.1470703125,106.2423163010524L93.869140625,115.1453582415214L94.59121093750001,101.08828153060034L95.31328125,93.34398909715506L96.03535156250001,97.90633804981525L96.757421875,105.55169562193063L97.4794921875,107.0309548011193L98.20156250000001,114.6013747545389L98.9236328125,100.96754058507773L99.645703125,123.54703066899226L100.36777343749999,116.81867290460146L101.08984375,122.42648035746353L101.8119140625,124.4029945410215L102.53398437499999,117.84565263528091L103.2560546875,118.43234748106735L103.97812499999999,127.64844103959891L104.7001953125,91.12140782062824L105.422265625,117.44497496806657L106.1443359375,112.70637978040254L106.86640625,122.7645355279629L107.5884765625,120.74248988353288L108.310546875,120.4989385650708L109.0326171875,123.2641642873104L109.7546875,117.55005724613483L110.4767578125,126.59006281999442L111.198828125,124.68536994090447L111.9208984375,124.24798631209595L112.64296875000001,125.33107998737923L113.3650390625,122.70420968991058L114.08710937500001,127.09702790241974L114.8091796875,120.9946070084205L115.53125,124.40515323785635L116.25332031250001,122.92135754915384L116.975390625,129.40676453480353L117.6974609375,128.18362743120926L118.41953124999999,121.24153027626184L119.1416015625,132.5166838260797L119.863671875,130.70382483188922L120.58574218749999,130.85884523391724L121.3078125,111.46330313499158L122.02988281249999,126.79940366286499L122.751953125,129.1401330140921L123.4740234375,130.94988380945648L124.19609375,121.02081975570091L124.9181640625,133.0234257349601L125.640234375,125.32548847565285L126.3623046875,123.89922692684027L127.084375,128.11985254746216L127.8064453125,119.62568888755945L128.528515625,117.4005350287144L129.2505859375,121.8982488650542L129.97265625,124.6651828793379L130.6947265625,130.45238940073895L131.41679687500002,137.02927319361615L132.1388671875,124.28816566558984L132.8609375,132.93017977017624L133.5830078125,136.5723720238759L134.305078125,124.9664955689357L135.02714843750002,128.33765775423782L135.74921874999998,127.08615732192993L136.4712890625,130.72031938571197L137.193359375,133.51243549126846L137.9154296875,129.28732205354248L138.6375,133.8688882772739L139.35957031249998,135.37710726719635L140.081640625,127.2823715026562L140.8037109375,136.2820151264851L141.52578125,145.99068313149306L142.2478515625,135.5823173706348L142.969921875,136.99354108021808L143.6919921875,143.41824891934027L144.4140625,140.95467267586636L145.1361328125,141.1266502096103L145.858203125,128.9951026714765L146.58027343749998,142.40398602302258L147.30234375,138.5859249004951L148.0244140625,139.07214295864105L148.746484375,129.6840921548697L149.4685546875,142.1158040532699L150.190625,144.18447876664308L150.91269531249998,149.2789647487494L151.634765625,144.39370802274118L152.3568359375,134.0368933219176L153.07890625000002,139.32037686384643L153.80097656249998,139.80700069207413L154.523046875,143.93352620189006L155.2451171875,136.92987981209387L155.96718750000002,146.40263512042853L156.6892578125,148.02921318549377L157.411328125,149.65159558791382L158.1333984375,104.42100105835841L158.85546875,145.21041363936203L159.5775390625,146.12247116749103L160.29960937500002,142.5046575803023L161.0216796875,138.64571106433868L161.74375,135.49927652340668L162.4658203125,142.58988552827103L163.187890625,138.108309168082L163.9099609375,143.4109308559161L164.63203124999998,147.65612382613696L165.3541015625,145.1234003030337L166.076171875,144.78495965095667L166.7982421875,146.3171677681116L167.5203125,150.4721296452559L168.2423828125,136.52333876719842L168.96445312499998,144.573687342497L169.6865234375,149.39755714168916L170.40859375,142.66691286288776L171.13066406250002,152.27458063684978L171.85273437499998,147.18082909859146L172.5748046875,150.62769580804385L173.296875,145.94853376425232L174.01894531250002,146.2729996947142L174.741015625,149.33618644567636L175.4630859375,141.72383015430893L176.18515625,149.3397612800965L176.9072265625,147.94026838357632L177.629296875,145.5684955922457L178.35136718750002,143.52594435673493L179.0734375,144.02192930074838L179.7955078125,149.2664507994285L180.517578125,140.7153697701601L181.2396484375,147.0865200161934L181.96171875,151.9826473226914L182.68378906249998,135.990664092394L183.405859375,150.4143297259624L184.1279296875,144.50840299404587L184.85,151.21215080297912L185.5720703125,155.70595301573093L186.294140625,149.10311616842563L187.01621093749998,144.18281916700877L187.73828125,152.46240146343524L188.4603515625,157.45504524157596L189.18242187500002,148.78203436044546L189.90449218749998,139.01060386804434L190.6265625,158.81737365630957L191.3486328125,152.0776401276772L192.07070312500002,150.27978448225903L192.7927734375,160.47024460824636L193.51484375,158.6310704098298L194.2369140625,160.3191297432551L194.958984375,156.7488186451105L195.6810546875,158.51844689479242L196.40312500000002,161.8658339965802L197.1251953125,159.86239392482318L197.847265625,155.0589404472938L198.5693359375,148.7945888867745L199.29140625,158.17360927737676L200.0134765625,160.3879909549768L200.73554687499998,135.02439162364374L201.4576171875,158.4422838504498L202.1796875,159.80987916084436L202.9017578125,154.02078986626404L203.623828125,162.4355919991548L204.3458984375,162.71289527301604L205.06796874999998,163.05426659950842L205.7900390625,161.37137170479846L206.512109375,161.09759254409718L207.23417968750002,160.8575409925901L207.95624999999998,159.24936460073178L208.6783203125,161.18046905444217L209.400390625,163.46200263729463L210.12246093750002,163.68376105909164L210.84453125,158.05105251073837L211.5666015625,164.21630284419427L212.288671875,165.13231460176982L213.0107421875,159.81129529842963L213.7328125,156.95304272725033L214.45488281250002,161.82533307029652L215.176953125,159.10681351331564L215.8990234375,161.78325166954446L216.62109375,164.0019761014443L217.3431640625,163.91278479420222L218.065234375,165.03847621266658L218.78730468749998,161.09943271141785L219.509375,163.80396537368114L220.2314453125,164.8956532592957L220.953515625,164.25624380776514L221.6755859375,161.29858263868553L222.39765625,162.7038161674371L223.11972656249998,163.2528788814178L223.841796875,165.71441207253017L224.5638671875,163.72361072439415L225.28593750000002,162.5789911460418L226.00800781249998,164.25426162091586L226.730078125,165.59121418916263L227.4521484375,166.3672332396874L228.17421875000002,166.13324592205194L228.8962890625,165.19182585638302L229.618359375,165.12432904656117L230.3404296875,164.86064138779273L231.0625,164.8016109707264L231.7845703125,164.13245147122788L232.50664062500002,164.4221875403936L233.2287109375,162.2717795738807L233.95078125,163.27431267156052L234.6728515625,160.63697147713256L235.394921875,162.76314279666315L236.1169921875,164.8133925050497L236.83906249999998,165.52476223730125L237.5611328125,165.83933042104428L238.283203125,167.06257505371022L239.0052734375,167.05941816247426L239.72734375,166.34472212997767L240.4494140625,163.36083806936557L241.17148437499998,164.63415878781905L241.8935546875,166.84019783253854L242.615625,166.73522612681757L243.33769531250002,167.803666430024L244.05976562499998,168.2985192755094L244.7818359375,168.01715525755515L245.50390625,166.56720485137058L246.22597656250002,165.58839408709454L246.948046875,165.17245033497994L247.6701171875,164.4308314575599L248.3921875,166.55530057159754L249.1142578125,167.85345543347873L249.836328125,168.5707585387505L250.55839843750002,168.9005857064174L251.28046875,168.97729197545695L252.0025390625,169.29288625029417L252.724609375,169.4790449411823" style="fill: none;" fill="none"></path></g></g></g></g></g></g><g transform="translate(41, 177)" clip-path="url(#clip_1)"><clipPath id="clip_1"><rect width="288" height="23"></rect></clipPath><g><g><line x1="0" y1="0" x2="0" y2="5" style="visibility: inherit;" fill="rgb(0, 0, 0)" stroke="rgb(204, 204, 204)" stroke-width="1px"></line><line x1="36.103515625" y1="0" x2="36.103515625" y2="5" style="visibility: inherit;" fill="rgb(0, 0, 0)" stroke="rgb(204, 204, 204)" stroke-width="1px"></line><line x1="72.20703125" y1="0" x2="72.20703125" y2="5" style="visibility: inherit;" fill="rgb(0, 0, 0)" stroke="rgb(204, 204, 204)" stroke-width="1px"></line><line x1="108.310546875" y1="0" x2="108.310546875" y2="5" style="visibility: inherit;" fill="rgb(0, 0, 0)" stroke="rgb(204, 204, 204)" stroke-width="1px"></line><line x1="144.4140625" y1="0" x2="144.4140625" y2="5" style="visibility: inherit;" fill="rgb(0, 0, 0)" stroke="rgb(204, 204, 204)" stroke-width="1px"></line><line x1="180.517578125" y1="0" x2="180.517578125" y2="5" style="visibility: inherit;" fill="rgb(0, 0, 0)" stroke="rgb(204, 204, 204)" stroke-width="1px"></line><line x1="216.62109375" y1="0" x2="216.62109375" y2="5" style="visibility: inherit;" fill="rgb(0, 0, 0)" stroke="rgb(204, 204, 204)" stroke-width="1px"></line><line x1="252.724609375" y1="0" x2="252.724609375" y2="5" style="visibility: inherit;" fill="rgb(0, 0, 0)" stroke="rgb(204, 204, 204)" stroke-width="1px"></line><line x1="288.828125" y1="0" x2="288.828125" y2="5" style="visibility: inherit;" fill="rgb(0, 0, 0)" stroke="rgb(204, 204, 204)" stroke-width="1px"></line></g><g transform="translate(0, 8)"><text x="0" y="0" dx="0em" dy="0.95em" style="text-anchor: middle; visibility: hidden; font-family: Roboto, sans-serif; font-size: 12px; font-weight: 200;" fill="rgb(33, 33, 33)" stroke="none" stroke-width="1px">-5k</text><text x="36.103515625" y="0" dx="0em" dy="0.95em" style="text-anchor: middle; visibility: inherit; font-family: Roboto, sans-serif; font-size: 12px; font-weight: 200;" fill="rgb(33, 33, 33)" stroke="none" stroke-width="1px">0</text><text x="72.20703125" y="0" dx="0em" dy="0.95em" style="text-anchor: middle; visibility: inherit; font-family: Roboto, sans-serif; font-size: 12px; font-weight: 200;" fill="rgb(33, 33, 33)" stroke="none" stroke-width="1px">5k</text><text x="108.310546875" y="0" dx="0em" dy="0.95em" style="text-anchor: middle; visibility: inherit; font-family: Roboto, sans-serif; font-size: 12px; font-weight: 200;" fill="rgb(33, 33, 33)" stroke="none" stroke-width="1px">10k</text><text x="144.4140625" y="0" dx="0em" dy="0.95em" style="text-anchor: middle; visibility: inherit; font-family: Roboto, sans-serif; font-size: 12px; font-weight: 200;" fill="rgb(33, 33, 33)" stroke="none" stroke-width="1px">15k</text><text x="180.517578125" y="0" dx="0em" dy="0.95em" style="text-anchor: middle; visibility: inherit; font-family: Roboto, sans-serif; font-size: 12px; font-weight: 200;" fill="rgb(33, 33, 33)" stroke="none" stroke-width="1px">20k</text><text x="216.62109375" y="0" dx="0em" dy="0.95em" style="text-anchor: middle; visibility: inherit; font-family: Roboto, sans-serif; font-size: 12px; font-weight: 200;" fill="rgb(33, 33, 33)" stroke="none" stroke-width="1px">25k</text><text x="252.724609375" y="0" dx="0em" dy="0.95em" style="text-anchor: middle; visibility: inherit; font-family: Roboto, sans-serif; font-size: 12px; font-weight: 200;" fill="rgb(33, 33, 33)" stroke="none" stroke-width="1px">30k</text><text x="288.828125" y="0" dx="0em" dy="0.95em" style="text-anchor: middle; visibility: hidden; font-family: Roboto, sans-serif; font-size: 12px; font-weight: 200;" fill="rgb(33, 33, 33)" stroke="none" stroke-width="1px">35k</text></g><line x1="0" y1="0" x2="288.828125" y2="0" fill="rgb(0, 0, 0)" stroke="rgb(204, 204, 204)" stroke-width="1px"></line></g></g></g></g></svg>