<svg viewBox="0 0 330 200" xmlns="http://www.w3.org/2000/svg"><g><g><g><g><g><line x1="60" y1="177" x2="55" y2="177" style="visibility: inherit;" fill="rgb(0, 0, 0)" stroke="rgb(204, 204, 204)" stroke-width="1px"></line><line x1="60" y1="162.25" x2="55" y2="162.25" style="visibility: inherit;" fill="rgb(0, 0, 0)" stroke="rgb(204, 204, 204)" stroke-width="1px"></line><line x1="60" y1="147.5" x2="55" y2="147.5" style="visibility: inherit;" fill="rgb(0, 0, 0)" stroke="rgb(204, 204, 204)" stroke-width="1px"></line><line x1="60" y1="132.75" x2="55" y2="132.75" style="visibility: inherit;" fill="rgb(0, 0, 0)" stroke="rgb(204, 204, 204)" stroke-width="1px"></line><line x1="60" y1="118.00000000000001" x2="55" y2="118.00000000000001" style="visibility: inherit;" fill="rgb(0, 0, 0)" stroke="rgb(204, 204, 204)" stroke-width="1px"></line><line x1="60" y1="103.25" x2="55" y2="103.25" style="visibility: inherit;" fill="rgb(0, 0, 0)" stroke="rgb(204, 204, 204)" stroke-width="1px"></line><line x1="60" y1="88.50000000000001" x2="55" y2="88.50000000000001" style="visibility: inherit;" fill="rgb(0, 0, 0)" stroke="rgb(204, 204, 204)" stroke-width="1px"></line><line x1="60" y1="73.75000000000001" x2="55" y2="73.75000000000001" style="visibility: inherit;" fill="rgb(0, 0, 0)" stroke="rgb(204, 204, 204)" stroke-width="1px"></line><line x1="60" y1="59.00000000000003" x2="55" y2="59.00000000000003" style="visibility: inherit;" fill="rgb(0, 0, 0)" stroke="rgb(204, 204, 204)" stroke-width="1px"></line><line x1="60" y1="44.25000000000002" x2="55" y2="44.25000000000002" style="visibility: inherit;" fill="rgb(0, 0, 0)" stroke="rgb(204, 204, 204)" stroke-width="1px"></line><line x1="60" y1="29.500000000000014" x2="55" y2="29.500000000000014" style="visibility: inherit;" fill="rgb(0, 0, 0)" stroke="rgb(204, 204, 204)" stroke-width="1px"></line><line x1="60" y1="14.750000000000007" x2="55" y2="14.750000000000007" style="visibility: inherit;" fill="rgb(0, 0, 0)" stroke="rgb(204, 204, 204)" stroke-width="1px"></line><line x1="60" y1="0" x2="55" y2="0" style="visibility: inherit;" fill="rgb(0, 0, 0)" stroke="rgb(204, 204, 204)" stroke-width="1px"></line></g><g transform="translate(50, 0)"><text x="0" y="177" dx="0em" dy="0.3em" style="text-anchor: end; visibility: hidden; font-family: Roboto, sans-serif; font-size: 12px; font-weight: 200;" fill="rgb(33, 33, 33)" stroke="none" stroke-width="1px">-0.05</text><text x="0" y="162.25" dx="0em" dy="0.3em" style="text-anchor: end; visibility: inherit; font-family: Roboto, sans-serif; font-size: 12px; font-weight: 200;" fill="rgb(33, 33, 33)" stroke="none" stroke-width="1px">0</text><text x="0" y="147.5" dx="0em" dy="0.3em" style="text-anchor: end; visibility: hidden; font-family: Roboto, sans-serif; font-size: 12px; font-weight: 200;" fill="rgb(33, 33, 33)" stroke="none" stroke-width="1px">0.05</text><text x="0" y="132.75" dx="0em" dy="0.3em" style="text-anchor: end; visibility: inherit; font-family: Roboto, sans-serif; font-size: 12px; font-weight: 200;" fill="rgb(33, 33, 33)" stroke="none" stroke-width="1px">0.1</text><text x="0" y="118.00000000000001" dx="0em" dy="0.3em" style="text-anchor: end; visibility: hidden; font-family: Roboto, sans-serif; font-size: 12px; font-weight: 200;" fill="rgb(33, 33, 33)" stroke="none" stroke-width="1px">0.15</text><text x="0" y="103.25" dx="0em" dy="0.3em" style="text-anchor: end; visibility: inherit; font-family: Roboto, sans-serif; font-size: 12px; font-weight: 200;" fill="rgb(33, 33, 33)" stroke="none" stroke-width="1px">0.2</text><text x="0" y="88.50000000000001" dx="0em" dy="0.3em" style="text-anchor: end; visibility: hidden; font-family: Roboto, sans-serif; font-size: 12px; font-weight: 200;" fill="rgb(33, 33, 33)" stroke="none" stroke-width="1px">0.25</text><text x="0" y="73.75000000000001" dx="0em" dy="0.3em" style="text-anchor: end; visibility: inherit; font-family: Roboto, sans-serif; font-size: 12px; font-weight: 200;" fill="rgb(33, 33, 33)" stroke="none" stroke-width="1px">0.3</text><text x="0" y="59.00000000000003" dx="0em" dy="0.3em" style="text-anchor: end; visibility: hidden; font-family: Roboto, sans-serif; font-size: 12px; font-weight: 200;" fill="rgb(33, 33, 33)" stroke="none" stroke-width="1px">0.35</text><text x="0" y="44.25000000000002" dx="0em" dy="0.3em" style="text-anchor: end; visibility: inherit; font-family: Roboto, sans-serif; font-size: 12px; font-weight: 200;" fill="rgb(33, 33, 33)" stroke="none" stroke-width="1px">0.4</text><text x="0" y="29.500000000000014" dx="0em" dy="0.3em" style="text-anchor: end; visibility: hidden; font-family: Roboto, sans-serif; font-size: 12px; font-weight: 200;" fill="rgb(33, 33, 33)" stroke="none" stroke-width="1px">0.45</text><text x="0" y="14.750000000000007" dx="0em" dy="0.3em" style="text-anchor: end; visibility: inherit; font-family: Roboto, sans-serif; font-size: 12px; font-weight: 200;" fill="rgb(33, 33, 33)" stroke="none" stroke-width="1px">0.5</text><text x="0" y="0" dx="0em" dy="0.3em" style="text-anchor: end; visibility: hidden; font-family: Roboto, sans-serif; font-size: 12px; font-weight: 200;" fill="rgb(33, 33, 33)" stroke="none" stroke-width="1px">0.55</text></g><line x1="60" y1="0" x2="60" y2="177" fill="rgb(0, 0, 0)" stroke="rgb(204, 204, 204)" stroke-width="1px"></line></g></g><g transform="translate(60, 0)" clip-path="url(#clip_0)"><clipPath id="clip_0"><rect width="270" height="177"></rect></clipPath><g><g><g><line x1="0" y1="0" x2="0" y2="177" fill="rgb(0, 0, 0)" stroke="rgb(66, 66, 66)" stroke-width="1px" opacity="0.25"></line><line x1="33.75" y1="0" x2="33.75" y2="177" fill="rgb(0, 0, 0)" stroke="rgb(66, 66, 66)" stroke-width="1px" opacity="0.25"></line><line x1="67.5" y1="0" x2="67.5" y2="177" fill="rgb(0, 0, 0)" stroke="rgb(66, 66, 66)" stroke-width="1px" opacity="0.25"></line><line x1="101.25" y1="0" x2="101.25" y2="177" fill="rgb(0, 0, 0)" stroke="rgb(66, 66, 66)" stroke-width="1px" opacity="0.25"></line><line x1="135" y1="0" x2="135" y2="177" fill="rgb(0, 0, 0)" stroke="rgb(66, 66, 66)" stroke-width="1px" opacity="0.25"></line><line x1="168.75" y1="0" x2="168.75" y2="177" fill="rgb(0, 0, 0)" stroke="rgb(66, 66, 66)" stroke-width="1px" opacity="0.25"></line><line x1="202.5" y1="0" x2="202.5" y2="177" fill="rgb(0, 0, 0)" stroke="rgb(66, 66, 66)" stroke-width="1px" opacity="0.25"></line><line x1="236.25" y1="0" x2="236.25" y2="177" fill="rgb(0, 0, 0)" stroke="rgb(66, 66, 66)" stroke-width="1px" opacity="0.25"></line><line x1="270" y1="0" x2="270" y2="177" fill="rgb(0, 0, 0)" stroke="rgb(66, 66, 66)" stroke-width="1px" opacity="0.25"></line></g><g><line x1="0" y1="177" x2="270" y2="177" fill="rgb(0, 0, 0)" stroke="rgb(66, 66, 66)" stroke-width="1px" opacity="0.25"></line><line x1="0" y1="162.25" x2="270" y2="162.25" fill="rgb(0, 0, 0)" stroke="rgb(66, 66, 66)" stroke-width="1px" opacity="0.25"></line><line x1="0" y1="147.5" x2="270" y2="147.5" fill="rgb(0, 0, 0)" stroke="rgb(66, 66, 66)" stroke-width="1px" opacity="0.25"></line><line x1="0" y1="132.75" x2="270" y2="132.75" fill="rgb(0, 0, 0)" stroke="rgb(66, 66, 66)" stroke-width="1px" opacity="0.25"></line><line x1="0" y1="118.00000000000001" x2="270" y2="118.00000000000001" fill="rgb(0, 0, 0)" stroke="rgb(66, 66, 66)" stroke-width="1px" opacity="0.25"></line><line x1="0" y1="103.25" x2="270" y2="103.25" fill="rgb(0, 0, 0)" stroke="rgb(66, 66, 66)" stroke-width="1px" opacity="0.25"></line><line x1="0" y1="88.50000000000001" x2="270" y2="88.50000000000001" fill="rgb(0, 0, 0)" stroke="rgb(66, 66, 66)" stroke-width="1px" opacity="0.25"></line><line x1="0" y1="73.75000000000001" x2="270" y2="73.75000000000001" fill="rgb(0, 0, 0)" stroke="rgb(66, 66, 66)" stroke-width="1px" opacity="0.25"></line><line x1="0" y1="59.00000000000003" x2="270" y2="59.00000000000003" fill="rgb(0, 0, 0)" stroke="rgb(66, 66, 66)" stroke-width="1px" opacity="0.25"></line><line x1="0" y1="44.25000000000002" x2="270" y2="44.25000000000002" fill="rgb(0, 0, 0)" stroke="rgb(66, 66, 66)" stroke-width="1px" opacity="0.25"></line><line x1="0" y1="29.500000000000014" x2="270" y2="29.500000000000014" fill="rgb(0, 0, 0)" stroke="rgb(66, 66, 66)" stroke-width="1px" opacity="0.25"></line><line x1="0" y1="14.750000000000007" x2="270" y2="14.750000000000007" fill="rgb(0, 0, 0)" stroke="rgb(66, 66, 66)" stroke-width="1px" opacity="0.25"></line><line x1="0" y1="0" x2="270" y2="0" fill="rgb(0, 0, 0)" stroke="rgb(66, 66, 66)" stroke-width="1px" opacity="0.25"></line></g></g></g><g><g><line x1="0" y1="162.25" x2="270" y2="162.25" fill="rgb(0, 0, 0)" stroke="rgb(153, 153, 153)" stroke-width="1.5px"></line></g></g><g><g><line x1="33.75" y1="0" x2="33.75" y2="177" fill="rgb(0, 0, 0)" stroke="rgb(153, 153, 153)" stroke-width="1.5px"></line></g></g><g><g><g><g><g><path stroke="rgb(255, 112, 67)" stroke-width="2px" d="M34.425,20.91836935281755L35.1,24.30378903076054L35.775,17.108653195658523L36.45,17.04376496254088L37.125,21.882438208434767L37.800000000000004,22.791519418750955L38.474999999999994,18.91683846316361L39.15,20.229436943946478L39.824999999999996,24.667226890595714L40.5,22.959845998578114L41.175,12.63850128423989L41.85,20.266316738590763L42.525,22.067930209552944L43.2,8.51977297376296L43.875,15.380301823190496L44.550000000000004,16.917152874031434L45.225,19.418398214320796L45.900000000000006,-2.8380490233059072L46.574999999999996,8.720342342258466L47.25,3.9981007582826926L47.925,12.546806912475638L48.6,6.727590035345605L49.275,7.785490231256575L49.95,5.9403391171522575L50.625,-0.21920811591880285L51.3,7.561921831445302L51.975,5.854439773860267L52.65,14.494934845462161L53.325,19.008095621099482L54,18.27734418391843L54.675000000000004,18.237431113668894L55.349999999999994,17.981773120529702L56.025,12.16616360929761L56.699999999999996,18.92937669215827L57.375,20.554606424245783L58.05,9.893344022025616L58.725,15.826432751889389L59.4,10.012774140273327L60.075,-3.6556367519231143L60.75,7.794473720434864L61.425000000000004,18.18919688870365L62.1,22.81670579185166L62.775000000000006,26.20295669456791L63.449999999999996,27.930676697913942L64.125,18.337897656888522L64.8,23.54692801182019L65.475,19.94132309151838L66.15,24.33238645201738L66.825,26.264023743928565L67.5,22.597833933121755L68.175,25.733551086015922L68.85,26.00829389156624L69.525,24.342091801531524L70.2,28.730319596991052L70.875,27.462118326225138L71.55,22.833158551809387L72.22500000000001,27.01675058553148L72.9,9.142771989995946L73.575,14.9686546748254L74.25,13.906666161142132L74.92500000000001,19.80233160348095L75.60000000000001,20.94533653075315L76.27499999999999,3.2918742597984236L76.94999999999999,9.98136613970328L77.625,15.266240466864879L78.3,18.216746967573158L78.975,22.69180224033549L79.64999999999999,19.02601045186732L80.325,25.168029939028088L81,27.969515511329465L81.675,36.674091117939675L82.35,40.39536084971507L83.025,50.62774026537944L83.7,49.35487006989127L84.375,48.85358326963787L85.05,56.65719048578861L85.725,52.423826518054746L86.4,53.829516412255735L87.075,55.27969728793954L87.75,59.16494586995994L88.425,64.21518387157772L89.10000000000001,57.600971196645816L89.775,47.453819617363415L90.45,50.25853970332897L91.125,50.13395954778168L91.80000000000001,54.83811475998387L92.47500000000001,57.361511243380455L93.14999999999999,66.32350956976256L93.82499999999999,71.17054182040599L94.5,74.74882472603265L95.175,77.91178973346203L95.85,73.7154293407753L96.52499999999999,76.82609562574358L97.2,84.2823437362822L97.875,60.17240774094534L98.55,68.69102677976772L99.225,72.72182318732551L99.9,80.62976239422211L100.575,80.97036643206626L101.25,82.31329779255121L101.925,82.62485137240725L102.6,82.59101024065399L103.275,84.48625549551238L103.95,84.99627768323656L104.625,83.19453724220894L105.3,89.64898343083561L105.97500000000001,89.2740909111339L106.65,93.15288366388312L107.325,86.54011980003733L108,87.65621470991744L108.67500000000001,90.24037713756546L109.35000000000001,90.52471896380416L110.02499999999999,92.12119295817752L110.69999999999999,90.84064751042212L111.375,93.94920544727614L112.05,92.92024231495841L112.725,93.1822281214141L113.39999999999999,79.27506026819607L114.075,85.13988453862225L114.75,90.35393203924392L115.425,97.33142182010589L116.1,97.87724547849999L116.775,97.92742882530038L117.45,92.34749071812718L118.125,88.88276020894104L118.8,88.90230372077022L119.475,81.58061801508543L120.15,80.76172550389455L120.825,80.82872881811434L121.5,82.42712687445626L122.175,90.31654557581513L122.85000000000001,95.31863155958513L123.525,93.32977895139135L124.2,96.57497950314568L124.875,99.90448505830223L125.55000000000001,93.14968606919916L126.22500000000001,93.05863010937496L126.89999999999999,92.00833467873649L127.57499999999999,91.71166999478766L128.25,94.01592259013432L128.92499999999998,90.72759251835214L129.6,95.70510026837748L130.275,100.17482022062158L130.95,96.65362425813208L131.625,102.39158959489542L132.3,112.75198225856708L132.975,110.51247622776562L133.65,110.07512676840146L134.325,118.38916679993343L135,118.37855866417331L135.67499999999998,118.61265164533282L136.35,107.91313377570528L137.02499999999998,113.73264790506016L137.7,112.90806099731238L138.375,117.60467230652876L139.05,107.1238104604191L139.725,114.69479323938529L140.4,119.21725873956106L141.075,124.1916948187889L141.75,124.77441446653256L142.42499999999998,114.96811405224352L143.1,116.72512930275647L143.775,119.64653763557463L144.45000000000002,120.42643673649422L145.125,115.39577675718662L145.8,120.90766094242692L146.475,126.07242792019342L147.15,129.13178706567942L147.825,93.14303331614411L148.5,107.45108963275477L149.175,114.65537214413004L149.85000000000002,119.15749511501024L150.525,120.94795119989413L151.20000000000002,123.77350302772818L151.875,122.31526986501873L152.54999999999998,123.29279780234252L153.225,124.88218208459233L153.89999999999998,126.59068519954214L154.575,127.41112191429333L155.25,126.71040854126572L155.925,128.4740126894138L156.6,130.125898773445L157.275,121.59747731386022L157.95,125.92040752290724L158.625,128.51388783108615L159.29999999999998,125.75399801046504L159.975,130.74186406380448L160.65,130.01353550461837L161.32500000000002,132.41195528213925L162,130.27266734841314L162.675,127.50738881828099L163.35,129.96689670861787L164.025,125.65479864228382L164.7,129.16173194973837L165.375,128.53648340183003L166.05,129.378665280208L166.72500000000002,129.67849074713294L167.4,127.2994799191469L168.07500000000002,128.94620568601573L168.75,129.26753249793225L169.42499999999998,130.62239769714458L170.1,133.79146029125084L170.77499999999998,126.77349945050733L171.45,133.76358209039125L172.125,135.20897286823603L172.8,140.8267943810893L173.475,145.63535903552014L174.15,145.46446720456385L174.825,141.76937263426365L175.5,145.64712389688003L176.17499999999998,149.6477802932579L176.85,144.84868276061525L177.525,138.58866218889898L178.20000000000002,146.05089872354355L178.875,147.78552523716743L179.55,148.86114918717416L180.225,153.24867849627836L180.9,155.54758558991375L181.575,157.25834955989015L182.25,154.39384175371345L182.925,155.14087527338395L183.60000000000002,156.99978961553413L184.275,156.51452930573365L184.95000000000002,153.8210152733549L185.625,148.54183367182165L186.29999999999998,152.6296048181614L186.975,155.97212577137267L187.64999999999998,143.21521486802646L188.325,148.89272049420327L189,153.0509900933698L189.675,154.51874565176337L190.35,156.63569794463916L191.025,158.506293003777L191.7,159.56955755205115L192.375,159.17874417089615L193.04999999999998,158.05029045646307L193.725,159.3625258115786L194.4,158.69383536549554L195.07500000000002,159.13011636151163L195.75,160.21309471135498L196.425,160.8733697207952L197.1,157.32473820431142L197.775,158.94371433881287L198.45,159.9631296546153L199.125,157.18291233336282L199.8,152.86438208434197L200.47500000000002,156.35655612351798L201.15,154.44140329719963L201.82500000000002,156.34617210745142L202.5,158.5005651328654L203.17499999999998,159.85240019934832L203.85,160.27639426393037L204.52499999999998,159.25149144815043L205.2,160.10861975928253L205.875,160.5358243912204L206.55,160.05067109233104L207.225,159.40241789469698L207.9,158.33088196232663L208.575,158.00295746871677L209.25,159.56283731107845L209.92499999999998,159.41026226040682L210.6,157.7389116397915L211.275,158.48396585279212L211.95000000000002,159.8180034007583L212.625,160.62197877312178L213.3,160.6159886363937L213.975,160.6180051330503L214.65,159.58984981186845L215.325,158.3896366645852L216,159.03195885434505L216.675,159.02216768109653L217.35000000000002,159.40444675367388L218.025,159.5272723810751L218.70000000000002,159.1665991694855L219.375,157.41269963688416L220.04999999999998,157.12131740797616L220.725,157.699086536983L221.39999999999998,159.1898825558949L222.075,160.28944975379616L222.75,160.9562828469169L223.425,161.36759530888878L224.1,161.58187626532842L224.775,159.43373775620537L225.45,159.7601425479086L226.125,160.22810219855498L226.79999999999998,160.70299139017322L227.475,161.22901436791247L228.15,161.58363532281922L228.82500000000002,161.7881884325946L229.5,161.62640920436186L230.175,160.82568291295053L230.85,160.44054021295L231.525,160.49613534442986L232.2,160.33317513894977L232.875,160.92348037398833L233.55,161.3702766301033L234.22500000000002,161.68056577783076L234.9,161.88225542646506L235.57500000000002,161.99789956346658L236.25,162.07233649957783" style="fill: none;" fill="none"></path></g></g></g></g><g opacity="0.2"><g><g><g><path stroke="rgb(255, 112, 67)" stroke-width="2px" d="M34.425,20.91836935281755L35.1,26.335040837526336L35.775,10.20132279396059L36.45,16.967456400394447L37.125,28.199809998273864L37.800000000000004,24.04910600185395L38.474999999999994,13.375982701778431L39.15,22.143218129873283L39.824999999999996,31.212105065584215L40.5,20.42458435893061L41.175,-2.7499019503593183L41.85,31.666529685258887L42.525,24.76446783542633L43.2,-11.775920629501316L43.875,25.663030803203597L44.550000000000004,19.221345543861403L45.225,23.169207781553276L45.900000000000006,-36.217068970203385L46.574999999999996,26.05616858601571L47.25,-3.084829986095415L47.925,25.36939731240274L48.6,-2.0010437965393066L49.275,9.372319638729108L49.95,3.1726343035698132L50.625,-9.458485186100006L51.3,19.233583569526687L51.975,3.2932210564613538L52.65,27.45566418766977L53.325,25.777832627296455L54,17.181217432022116L54.675000000000004,18.177561521530173L55.349999999999994,17.59828618168833L56.025,3.442750036716468L56.699999999999996,29.074195832014098L57.375,22.99245095252992L58.05,-6.098549306392656L58.725,24.726065754890442L59.4,1.2922862768173284L60.075,-24.158253014087677L60.75,24.969639390707016L61.425000000000004,33.781281620264075L62.1,29.7579691410065L62.775000000000006,31.282333046197916L63.449999999999996,30.522256702184702L64.125,3.948729097843177L64.8,31.360473543405554L65.475,14.532915711402906L66.15,30.9189814925194L66.825,29.16147968173027L67.5,17.098549216985717L68.175,30.437126815319093L68.85,26.420408099889762L69.525,21.842788666486754L70.2,35.3126612901688L70.875,25.559816420078285L71.55,15.889718890190132L72.22500000000001,33.29213863611224L72.9,-17.66819590330124L73.575,23.707478702068343L74.25,12.313683390617378L74.92500000000001,28.64582976698876L75.60000000000001,22.659843921661377L76.27499999999999,-23.188319146633134L76.94999999999999,20.01560395956041L77.625,23.193551957607276L78.3,22.642506718635573L78.975,29.404385149478927L79.64999999999999,13.527322769165059L80.325,34.381059169769316L81,32.171743869781515L81.675,49.730954527854934L82.35,45.97726544737818L83.025,65.97630938887598L83.7,47.44556477665903L84.375,48.101653069257765L85.05,68.36260131001475L85.725,46.07378056645396L86.4,55.938051253557234L87.075,57.45496860146524L87.75,64.99281874299052L88.425,71.79054087400439L89.10000000000001,47.679652184248L89.775,32.23309224843981L90.45,54.46561983227731L91.125,49.94708931446078L91.80000000000001,61.894347578287146L92.47500000000001,61.146605968475356L93.14999999999999,79.76650705933572L93.82499999999999,78.4410901963711L94.5,80.11624908447268L95.175,82.65623724460603L95.85,67.42088875174524L96.52499999999999,81.49209505319597L97.2,95.4667159020901L97.875,24.007503747940063L98.55,81.46895533800127L99.225,78.7680177986622L99.9,92.49167120456697L100.575,81.48127248883249L101.25,84.32769483327867L101.925,83.09218174219133L102.6,82.54024854302409L103.275,87.3291233778L103.95,85.76131096482278L104.625,80.49192658066751L105.3,99.33065271377565L105.97500000000001,88.71175213158132L106.65,98.97107279300691L107.325,76.62097400426867L108,89.33035707473756L108.67500000000001,94.11662077903749L109.35000000000001,90.95123170316221L110.02499999999999,94.51590394973756L110.69999999999999,88.919829338789L111.375,98.6120423525572L112.05,91.3767976164818L112.725,93.57520683109762L113.39999999999999,58.414308488369L114.075,93.93712094426158L114.75,98.1750032901764L115.425,107.79765649139883L116.1,98.69598096609117L116.775,98.00270384550097L117.45,83.97758355736735L118.125,83.68566444516185L118.8,88.93161898851396L119.475,70.59808945655824L120.15,79.53338673710826L120.825,80.929233789444L121.5,84.82472395896914L122.175,102.1506736278534L122.85000000000001,102.82176053524017L123.525,90.34650003910068L124.2,101.44278033077717L124.875,104.89874339103699L125.55000000000001,83.0174875855446L126.22500000000001,92.92204616963865L126.89999999999999,90.43289153277877L127.57499999999999,91.26667296886447L128.25,97.47230148315433L128.92499999999998,85.79509741067888L129.6,103.17136189341545L130.275,106.8794001489878L130.95,91.37183031439784L131.625,110.99853760004046L132.3,128.29257125407457L132.975,107.15321718156338L133.65,109.41910257935525L134.325,130.8602268472314L135,118.36264646053316L135.67499999999998,118.96379111707213L136.35,91.86385697126391L137.02499999999998,122.46191909909248L137.7,111.67118063569072L138.375,124.64958927035333L139.05,91.40251769125464L139.725,126.05126740783453L140.4,126.00095698982477L141.075,131.65334893763065L141.75,125.64849393814802L142.42499999999998,100.25866343080999L143.1,119.36065217852594L143.775,124.02865013480186L144.45000000000002,121.59628538787368L145.125,107.84978678822519L145.8,129.17548722028732L146.475,133.8195783868432L147.15,133.72082578390837L147.825,39.159902691841154L148.5,128.91317410767078L149.175,125.46179591119291L149.85000000000002,125.91067957133056L150.525,123.63363532721998L151.20000000000002,128.01183076947927L151.875,120.12792012095454L152.54999999999998,124.75908970832825L153.225,127.26625850796701L153.89999999999998,129.15343987196684L154.575,128.64177698642015L155.25,125.65933848172428L155.925,131.11941891163588L156.6,132.6037278994918L157.275,108.80484512448314L157.95,132.40480283647776L158.625,132.4041082933545L159.29999999999998,121.6141632795334L159.975,138.2236631438136L160.65,128.9210426658392L161.32500000000002,136.00958494842052L162,127.063735447824L162.675,123.35947102308273L163.35,133.65615854412317L164.025,119.18665154278278L164.7,134.42213191092014L165.375,127.59861057996751L166.05,130.64193809777498L166.72500000000002,130.12822894752026L167.4,123.73096367716789L168.07500000000002,131.41629433631897L168.75,129.74952271580696L169.42499999999998,132.6546954959631L170.1,138.54505418241024L170.77499999999998,116.24655818939209L171.45,144.24870605021715L172.125,137.37705903500319L172.8,149.25352665036917L173.475,152.84820601716638L174.15,145.2081294581294L174.825,136.22673077881336L175.5,151.46375079080462L176.17499999999998,155.64876488782465L176.85,137.65003646165133L177.525,129.19863133132458L178.20000000000002,157.24425352551043L178.875,150.38746500760317L179.55,150.4745851121843L180.225,159.82997245993465L180.9,158.99594623036683L181.575,159.8244955148548L182.25,150.09708004444838L182.925,156.2614255528897L183.60000000000002,159.78816112875938L184.275,155.78663884103298L184.95000000000002,149.78074422478676L185.625,140.6230612695217L186.29999999999998,158.7612615376711L186.975,160.98590720118955L187.64999999999998,124.07984851300718L188.325,157.40897893346846L189,159.28839449211955L189.675,156.72037898935378L190.35,159.8111263839528L191.025,161.31218559248373L191.7,161.16445437446237L192.375,158.5925240991637L193.04999999999998,156.35760988481343L193.725,161.33087884425186L194.4,157.69079969637096L195.07500000000002,159.78453785553575L195.75,161.83756223612L196.425,161.86378223495558L197.1,152.0017909295857L197.775,161.37217854056507L198.45,161.49225262831897L199.125,153.01258635148406L199.8,146.38658671081066L200.47500000000002,161.594817182282L201.15,151.5686740577221L201.82500000000002,159.2033253228292L202.5,161.73215467098635L203.17499999999998,161.88015279907268L203.85,160.91238536080346L204.52499999999998,157.7141372244805L205.2,161.39431222598068L205.875,161.1766313391272L206.55,159.322941143997L207.225,158.43003809824586L207.9,156.72357806377113L208.575,157.511070728302L209.25,161.90265707462095L209.92499999999998,159.18139968439937L210.6,155.2318857088685L211.275,159.60154717229307L211.95000000000002,161.8190597227076L212.625,161.82794183166698L213.3,160.60700343130156L213.975,160.6210298780352L214.65,158.04761683009565L215.325,156.58931694366038L216,159.9954421389848L216.675,159.00748092122376L217.35000000000002,159.9778653625399L218.025,159.71151082217693L218.70000000000002,158.6255893521011L219.375,154.78185033798218L220.04999999999998,156.68424406461418L220.725,158.56574023049325L221.39999999999998,161.42607658426277L222.075,161.938800550648L222.75,161.956532486598L223.425,161.9845640018466L224.1,161.9032976999879L224.775,156.2115299925208L225.45,160.2497497354634L226.125,160.93004167452455L226.79999999999998,161.4153251776006L227.475,162.01804883452132L228.15,162.11556675517932L228.82500000000002,162.0950180972577L229.5,161.38374036201276L230.175,159.62459347583354L230.85,159.8628261629492L231.525,160.5795280416496L232.2,160.08873483072966L232.875,161.80893822654616L233.55,162.04047101427568L234.22500000000002,162.14599949942203L234.9,162.1847898994165L235.57500000000002,162.17136576896883L236.25,162.18399190374475" style="fill: none;" fill="none"></path></g></g></g></g></g></g><g transform="translate(60, 177)" clip-path="url(#clip_1)"><clipPath id="clip_1"><rect width="270" height="23"></rect></clipPath><g><g><line x1="0" y1="0" x2="0" y2="5" style="visibility: inherit;" fill="rgb(0, 0, 0)" stroke="rgb(204, 204, 204)" stroke-width="1px"></line><line x1="33.75" y1="0" x2="33.75" y2="5" style="visibility: inherit;" fill="rgb(0, 0, 0)" stroke="rgb(204, 204, 204)" stroke-width="1px"></line><line x1="67.5" y1="0" x2="67.5" y2="5" style="visibility: inherit;" fill="rgb(0, 0, 0)" stroke="rgb(204, 204, 204)" stroke-width="1px"></line><line x1="101.25" y1="0" x2="101.25" y2="5" style="visibility: inherit;" fill="rgb(0, 0, 0)" stroke="rgb(204, 204, 204)" stroke-width="1px"></line><line x1="135" y1="0" x2="135" y2="5" style="visibility: inherit;" fill="rgb(0, 0, 0)" stroke="rgb(204, 204, 204)" stroke-width="1px"></line><line x1="168.75" y1="0" x2="168.75" y2="5" style="visibility: inherit;" fill="rgb(0, 0, 0)" stroke="rgb(204, 204, 204)" stroke-width="1px"></line><line x1="202.5" y1="0" x2="202.5" y2="5" style="visibility: inherit;" fill="rgb(0, 0, 0)" stroke="rgb(204, 204, 204)" stroke-width="1px"></line><line x1="236.25" y1="0" x2="236.25" y2="5" style="visibility: inherit;" fill="rgb(0, 0, 0)" stroke="rgb(204, 204, 204)" stroke-width="1px"></line><line x1="270" y1="0" x2="270" y2="5" style="visibility: inherit;" fill="rgb(0, 0, 0)" stroke="rgb(204, 204, 204)" stroke-width="1px"></line></g><g transform="translate(0, 8)"><text x="0" y="0" dx="0em" dy="0.95em" style="text-anchor: middle; visibility: hidden; font-family: Roboto, sans-serif; font-size: 12px; font-weight: 200;" fill="rgb(33, 33, 33)" stroke="none" stroke-width="1px">-5k</text><text x="33.75" y="0" dx="0em" dy="0.95em" style="text-anchor: middle; visibility: inherit; font-family: Roboto, sans-serif; font-size: 12px; font-weight: 200;" fill="rgb(33, 33, 33)" stroke="none" stroke-width="1px">0</text><text x="67.5" y="0" dx="0em" dy="0.95em" style="text-anchor: middle; visibility: inherit; font-family: Roboto, sans-serif; font-size: 12px; font-weight: 200;" fill="rgb(33, 33, 33)" stroke="none" stroke-width="1px">5k</text><text x="101.25" y="0" dx="0em" dy="0.95em" style="text-anchor: middle; visibility: inherit; font-family: Roboto, sans-serif; font-size: 12px; font-weight: 200;" fill="rgb(33, 33, 33)" stroke="none" stroke-width="1px">10k</text><text x="135" y="0" dx="0em" dy="0.95em" style="text-anchor: middle; visibility: inherit; font-family: Roboto, sans-serif; font-size: 12px; font-weight: 200;" fill="rgb(33, 33, 33)" stroke="none" stroke-width="1px">15k</text><text x="168.75" y="0" dx="0em" dy="0.95em" style="text-anchor: middle; visibility: inherit; font-family: Roboto, sans-serif; font-size: 12px; font-weight: 200;" fill="rgb(33, 33, 33)" stroke="none" stroke-width="1px">20k</text><text x="202.5" y="0" dx="0em" dy="0.95em" style="text-anchor: middle; visibility: inherit; font-family: Roboto, sans-serif; font-size: 12px; font-weight: 200;" fill="rgb(33, 33, 33)" stroke="none" stroke-width="1px">25k</text><text x="236.25" y="0" dx="0em" dy="0.95em" style="text-anchor: middle; visibility: inherit; font-family: Roboto, sans-serif; font-size: 12px; font-weight: 200;" fill="rgb(33, 33, 33)" stroke="none" stroke-width="1px">30k</text><text x="270" y="0" dx="0em" dy="0.95em" style="text-anchor: middle; visibility: hidden; font-family: Roboto, sans-serif; font-size: 12px; font-weight: 200;" fill="rgb(33, 33, 33)" stroke="none" stroke-width="1px">35k</text></g><line x1="0" y1="0" x2="270" y2="0" fill="rgb(0, 0, 0)" stroke="rgb(204, 204, 204)" stroke-width="1px"></line></g></g></g></g></svg>