<svg viewBox="0 0 330 200" xmlns="http://www.w3.org/2000/svg"><g><g><g><g><g><line x1="61.953125" y1="177" x2="56.953125" y2="177" style="visibility: inherit;" fill="rgb(0, 0, 0)" stroke="rgb(204, 204, 204)" stroke-width="1px"></line><line x1="61.953125" y1="154.875" x2="56.953125" y2="154.875" style="visibility: inherit;" fill="rgb(0, 0, 0)" stroke="rgb(204, 204, 204)" stroke-width="1px"></line><line x1="61.953125" y1="132.75" x2="56.953125" y2="132.75" style="visibility: inherit;" fill="rgb(0, 0, 0)" stroke="rgb(204, 204, 204)" stroke-width="1px"></line><line x1="61.953125" y1="110.62499999999999" x2="56.953125" y2="110.62499999999999" style="visibility: inherit;" fill="rgb(0, 0, 0)" stroke="rgb(204, 204, 204)" stroke-width="1px"></line><line x1="61.953125" y1="88.49999999999999" x2="56.953125" y2="88.49999999999999" style="visibility: inherit;" fill="rgb(0, 0, 0)" stroke="rgb(204, 204, 204)" stroke-width="1px"></line><line x1="61.953125" y1="66.375" x2="56.953125" y2="66.375" style="visibility: inherit;" fill="rgb(0, 0, 0)" stroke="rgb(204, 204, 204)" stroke-width="1px"></line><line x1="61.953125" y1="44.25" x2="56.953125" y2="44.25" style="visibility: inherit;" fill="rgb(0, 0, 0)" stroke="rgb(204, 204, 204)" stroke-width="1px"></line><line x1="61.953125" y1="22.125" x2="56.953125" y2="22.125" style="visibility: inherit;" fill="rgb(0, 0, 0)" stroke="rgb(204, 204, 204)" stroke-width="1px"></line><line x1="61.953125" y1="0" x2="56.953125" y2="0" style="visibility: inherit;" fill="rgb(0, 0, 0)" stroke="rgb(204, 204, 204)" stroke-width="1px"></line></g><g transform="translate(51.953125, 0)"><text x="0" y="177" dx="0em" dy="0.3em" style="text-anchor: end; visibility: hidden; font-family: Roboto, sans-serif; font-size: 12px; font-weight: 200;" fill="rgb(33, 33, 33)" stroke="none" stroke-width="1px">-0.05</text><text x="0" y="154.875" dx="0em" dy="0.3em" style="text-anchor: end; visibility: inherit; font-family: Roboto, sans-serif; font-size: 12px; font-weight: 200;" fill="rgb(33, 33, 33)" stroke="none" stroke-width="1px">0</text><text x="0" y="132.75" dx="0em" dy="0.3em" style="text-anchor: end; visibility: hidden; font-family: Roboto, sans-serif; font-size: 12px; font-weight: 200;" fill="rgb(33, 33, 33)" stroke="none" stroke-width="1px">0.05</text><text x="0" y="110.62499999999999" dx="0em" dy="0.3em" style="text-anchor: end; visibility: inherit; font-family: Roboto, sans-serif; font-size: 12px; font-weight: 200;" fill="rgb(33, 33, 33)" stroke="none" stroke-width="1px">0.1</text><text x="0" y="88.49999999999999" dx="0em" dy="0.3em" style="text-anchor: end; visibility: hidden; font-family: Roboto, sans-serif; font-size: 12px; font-weight: 200;" fill="rgb(33, 33, 33)" stroke="none" stroke-width="1px">0.15</text><text x="0" y="66.375" dx="0em" dy="0.3em" style="text-anchor: end; visibility: inherit; font-family: Roboto, sans-serif; font-size: 12px; font-weight: 200;" fill="rgb(33, 33, 33)" stroke="none" stroke-width="1px">0.2</text><text x="0" y="44.25" dx="0em" dy="0.3em" style="text-anchor: end; visibility: hidden; font-family: Roboto, sans-serif; font-size: 12px; font-weight: 200;" fill="rgb(33, 33, 33)" stroke="none" stroke-width="1px">0.25</text><text x="0" y="22.125" dx="0em" dy="0.3em" style="text-anchor: end; visibility: inherit; font-family: Roboto, sans-serif; font-size: 12px; font-weight: 200;" fill="rgb(33, 33, 33)" stroke="none" stroke-width="1px">0.3</text><text x="0" y="0" dx="0em" dy="0.3em" style="text-anchor: end; visibility: hidden; font-family: Roboto, sans-serif; font-size: 12px; font-weight: 200;" fill="rgb(33, 33, 33)" stroke="none" stroke-width="1px">0.35</text></g><line x1="61.953125" y1="0" x2="61.953125" y2="177" fill="rgb(0, 0, 0)" stroke="rgb(204, 204, 204)" stroke-width="1px"></line></g></g><g transform="translate(61, 0)" clip-path="url(#clip_0)"><clipPath id="clip_0"><rect width="268" height="177"></rect></clipPath><g><g><g><line x1="0" y1="0" x2="0" y2="177" fill="rgb(0, 0, 0)" stroke="rgb(66, 66, 66)" stroke-width="1px" opacity="0.25"></line><line x1="33.505859375" y1="0" x2="33.505859375" y2="177" fill="rgb(0, 0, 0)" stroke="rgb(66, 66, 66)" stroke-width="1px" opacity="0.25"></line><line x1="67.01171875" y1="0" x2="67.01171875" y2="177" fill="rgb(0, 0, 0)" stroke="rgb(66, 66, 66)" stroke-width="1px" opacity="0.25"></line><line x1="100.517578125" y1="0" x2="100.517578125" y2="177" fill="rgb(0, 0, 0)" stroke="rgb(66, 66, 66)" stroke-width="1px" opacity="0.25"></line><line x1="134.0234375" y1="0" x2="134.0234375" y2="177" fill="rgb(0, 0, 0)" stroke="rgb(66, 66, 66)" stroke-width="1px" opacity="0.25"></line><line x1="167.529296875" y1="0" x2="167.529296875" y2="177" fill="rgb(0, 0, 0)" stroke="rgb(66, 66, 66)" stroke-width="1px" opacity="0.25"></line><line x1="201.03515625" y1="0" x2="201.03515625" y2="177" fill="rgb(0, 0, 0)" stroke="rgb(66, 66, 66)" stroke-width="1px" opacity="0.25"></line><line x1="234.541015625" y1="0" x2="234.541015625" y2="177" fill="rgb(0, 0, 0)" stroke="rgb(66, 66, 66)" stroke-width="1px" opacity="0.25"></line><line x1="268.046875" y1="0" x2="268.046875" y2="177" fill="rgb(0, 0, 0)" stroke="rgb(66, 66, 66)" stroke-width="1px" opacity="0.25"></line></g><g><line x1="0" y1="177" x2="268.046875" y2="177" fill="rgb(0, 0, 0)" stroke="rgb(66, 66, 66)" stroke-width="1px" opacity="0.25"></line><line x1="0" y1="154.875" x2="268.046875" y2="154.875" fill="rgb(0, 0, 0)" stroke="rgb(66, 66, 66)" stroke-width="1px" opacity="0.25"></line><line x1="0" y1="132.75" x2="268.046875" y2="132.75" fill="rgb(0, 0, 0)" stroke="rgb(66, 66, 66)" stroke-width="1px" opacity="0.25"></line><line x1="0" y1="110.62499999999999" x2="268.046875" y2="110.62499999999999" fill="rgb(0, 0, 0)" stroke="rgb(66, 66, 66)" stroke-width="1px" opacity="0.25"></line><line x1="0" y1="88.49999999999999" x2="268.046875" y2="88.49999999999999" fill="rgb(0, 0, 0)" stroke="rgb(66, 66, 66)" stroke-width="1px" opacity="0.25"></line><line x1="0" y1="66.375" x2="268.046875" y2="66.375" fill="rgb(0, 0, 0)" stroke="rgb(66, 66, 66)" stroke-width="1px" opacity="0.25"></line><line x1="0" y1="44.25" x2="268.046875" y2="44.25" fill="rgb(0, 0, 0)" stroke="rgb(66, 66, 66)" stroke-width="1px" opacity="0.25"></line><line x1="0" y1="22.125" x2="268.046875" y2="22.125" fill="rgb(0, 0, 0)" stroke="rgb(66, 66, 66)" stroke-width="1px" opacity="0.25"></line><line x1="0" y1="0" x2="268.046875" y2="0" fill="rgb(0, 0, 0)" stroke="rgb(66, 66, 66)" stroke-width="1px" opacity="0.25"></line></g></g></g><g><g><line x1="0" y1="154.875" x2="268.046875" y2="154.875" fill="rgb(0, 0, 0)" stroke="rgb(153, 153, 153)" stroke-width="1.5px"></line></g></g><g><g><line x1="33.505859375" y1="0" x2="33.505859375" y2="177" fill="rgb(0, 0, 0)" stroke="rgb(153, 153, 153)" stroke-width="1.5px"></line></g></g><g><g><g><g><g><path stroke="rgb(255, 112, 67)" stroke-width="2px" d="M34.1759765625,11.234958574175835L34.84609375,-7.268346089869738L35.5162109375,5.802487085668421L36.186328125,15.251442176673372L36.8564453125,17.454668521839746L37.526562500000004,15.730031523385387L38.196679687499994,32.02991516394982L38.866796875,33.95101905180506L39.536914062499996,39.31426793016639L40.20703125,30.243709034070484L40.8771484375,8.156284090395767L41.547265625,28.418569124009352L42.2173828125,31.753277038194863L42.8875,33.22914108103047L43.5576171875,43.53196577118639L44.227734375000004,-20.148314257540175L44.8978515625,3.805494580133661L45.567968750000006,-56.520164701571325L46.908203125,-3.7111501935393933L47.5783203125,15.262952500801443L48.2484375,6.919011336263745L48.9185546875,8.356019748033942L49.588671875,19.4140024007902L50.2587890625,28.16917650859284L50.92890625,16.960631264461846L51.5990234375,7.503870180074934L52.269140625,23.76911588225836L52.9392578125,30.607271208921695L53.609375,40.71870503419364L54.279492187500004,64.10595688256211L54.949609374999994,73.96993127012549L55.6197265625,71.36398151616369L56.289843749999996,89.95385319864282L56.9599609375,68.36218935610374L57.630078125,79.82812427999384L58.3001953125,78.67879385845946L58.9703125,80.84357795682955L59.6404296875,95.95493039617395L60.310546875,103.58277816230148L60.980664062500004,97.73861145894342L61.65078125,104.4447992501381L62.320898437500006,109.15036380919918L62.991015624999996,110.12341856307617L63.6611328125,110.04351919201278L64.33125,111.96998192267073L65.0013671875,95.78978099104684L65.671484375,95.84226396487425L66.3416015625,101.84247492295404L67.01171875,99.13950264774701L67.6818359375,108.99139188874338L68.351953125,116.34935942382911L69.0220703125,111.98189271444093L69.6921875,116.95762379440598L70.3623046875,120.05611252321755L71.032421875,124.49417053779503L71.70253906250001,120.77974115979912L72.37265625,117.53376072449784L73.0427734375,121.4008026513657L73.712890625,120.73122934360508L74.38300781250001,125.71909405877726L75.05312500000001,121.58232091421203L75.72324218749999,116.74134724917594L76.39335937499999,99.90706639339068L77.0634765625,112.22985646187988L77.73359375,97.05165398454501L78.4037109375,93.91677033505339L79.07382812499999,97.6367796352595L79.7439453125,100.82378904319344L80.4140625,116.15742358816587L81.0841796875,91.2915321007545L81.754296875,103.30957706363054L82.4244140625,111.15308491194874L83.09453125,96.40259748580833L83.7646484375,113.17395556946263L84.434765625,93.58248733567993L85.1048828125,108.21861136384486L85.775,103.46356491999434L86.4451171875,107.73495908234483L87.115234375,117.64215721654276L87.7853515625,101.65250205080139L88.45546875000001,96.3780119721915L89.1255859375,108.56849269001637L89.795703125,112.2326501782474L90.4658203125,119.04192831893188L91.13593750000001,125.6597411857809L91.80605468750001,112.48101451556475L92.47617187499999,122.60043977162596L93.14628906249999,120.79187920219513L93.81640625,126.01357905582675L94.4865234375,130.0559858188992L95.156640625,133.17629191836508L95.82675781249999,127.48555836415763L96.496875,127.52838949463649L97.1669921875,122.88488707454135L97.837109375,120.45211905098637L98.5072265625,114.5764431631963L99.17734375,115.8482672036529L99.8474609375,120.51928829540851L100.517578125,121.12906500482583L101.1876953125,125.85880657603755L101.8578125,121.6420099739457L102.5279296875,127.72263786147386L103.198046875,129.67896050483196L103.8681640625,133.75736310419563L104.53828125,126.34249256603196L105.20839843750001,124.95572999001905L105.878515625,123.52478461343863L106.5486328125,127.86246923806559L107.21875,127.20932933808739L107.88886718750001,121.97320492637976L108.55898437500001,129.05756254388584L109.22910156249999,129.54157458703932L109.89921874999999,124.55076535917054L110.5693359375,130.28918459938006L111.239453125,135.56760470040763L111.9095703125,137.58586781900001L112.57968749999999,134.66741845194025L113.2498046875,131.6099362950535L113.919921875,130.52958434185453L114.5900390625,126.25052305228155L115.26015625,116.02201495567944L115.9302734375,125.71774304881681L116.600390625,129.682319740802L117.2705078125,130.36576951315996L117.940625,133.12729688299294L118.6107421875,134.81167764999032L119.280859375,127.79028018437359L119.9509765625,128.47392522691212L120.62109375,130.09341579168154L121.2912109375,128.11213124387928L121.96132812500001,135.12838207725267L122.6314453125,130.20614123370396L123.3015625,131.9768117846617L123.9716796875,135.6072840165537L124.64179687500001,135.82326258101708L125.31191406250001,134.3632818423429L125.98203124999999,133.53094543443433L126.65214843749999,136.98654478558188L127.322265625,138.8222661369639L127.9923828125,141.18067243232412L128.6625,138.14264121597458L129.3326171875,136.60559555110603L130.002734375,134.65632152016323L130.6728515625,133.50106227222298L131.34296875,135.20018754049073L132.0130859375,135.802991555744L132.683203125,137.29286365903232L133.3533203125,133.57551995037088L134.0234375,135.69808318536334L134.69355468749998,137.00582561684163L135.363671875,138.16701982791727L136.03378906249998,137.85001769736712L136.70390625,139.1706814610231L137.3740234375,132.87952946533372L138.044140625,137.08905643878646L138.7142578125,134.78969725539247L139.384375,136.21179375541186L140.0544921875,140.06819490822838L140.724609375,139.52233440418652L141.39472656249998,141.03966882073647L142.06484375,137.35953593101362L142.7349609375,133.29209128526603L143.40507812500002,138.14610431124422L144.0751953125,140.15652084144742L144.7453125,140.73630714889046L145.4154296875,140.35669292644067L146.085546875,142.06681806488575L146.7556640625,140.83409154053774L147.42578125,139.23665376759317L148.0958984375,141.46437262486964L148.76601562500002,138.48693471843927L149.4361328125,133.14185983654815L150.10625000000002,123.29682934264514L150.7763671875,131.44073504011436L151.44648437499998,127.56129354864719L152.1166015625,130.525786139848L152.78671874999998,136.5581672043545L153.4568359375,137.3444450967576L154.126953125,139.15164022657666L154.7970703125,138.6913021900558L155.4671875,142.6691618763762L156.1373046875,141.07454973628265L156.807421875,136.25348671999657L157.4775390625,139.52358037517718L158.14765624999998,139.6320286715701L158.8177734375,142.14215264430194L159.487890625,142.512543850902L160.15800781250002,142.97944183015125L160.828125,142.31647161014854L161.4982421875,144.33894071165014L162.168359375,143.5241919580596L162.8384765625,141.9449511035381L163.50859375,141.7923303172945L164.1787109375,143.88876287011556L164.848828125,140.22779294397387L165.51894531250002,135.52473607239693L166.1890625,137.13917899997574L166.85917968750002,140.09220435244765L167.529296875,131.6651377813394L168.19941406249998,133.33103169866652L168.86953125,137.50074716467114L169.53964843749998,132.71071864103348L170.209765625,132.09607844016L170.8798828125,128.60769233978417L171.55,128.48100875020995L172.2201171875,132.33877347753034L172.890234375,130.64782694784157L173.5603515625,129.53425432552308L174.23046875,130.58397612979658L174.90058593749998,135.3489790704736L175.570703125,137.81318483036094L176.2408203125,131.70552233923274L176.91093750000002,136.74275057505844L177.5810546875,134.9227744020002L178.251171875,131.4560202584849L178.9212890625,136.96420273154592L179.59140625,138.27164454665552L180.2615234375,140.6863521343128L180.931640625,143.26428456265666L181.6017578125,143.71235218738877L182.27187500000002,146.07257013415017L182.9419921875,147.05434297409485L183.61210937500002,145.23732082739073L184.2822265625,141.47261132266877L184.95234374999998,140.5188226973519L185.6224609375,141.2234958470169L186.29257812499998,130.8653138897004L186.9626953125,135.69294143594396L187.6328125,138.999195433793L188.3029296875,134.78375977703186L188.973046875,141.036014035289L189.6431640625,143.97207851872267L190.31328125,145.90536343125504L190.9833984375,146.06153257753255L191.65351562499998,147.11468324383824L192.3236328125,144.40545103592115L192.99375,143.0227468454387L193.66386718750002,143.2186649475125L194.333984375,144.75938774808515L195.0041015625,145.5857154539333L195.67421875,144.399479849926L196.3443359375,145.99281463495126L197.014453125,147.7912679063304L197.6845703125,147.08491017167412L198.3546875,147.15740121078278L199.02480468750002,144.7009902852582L199.694921875,145.6627188705836L200.36503906250002,145.0779579134097L201.03515625,145.9650036805159L201.70527343749998,146.04229242731847L202.375390625,147.86971760823408L203.04550781249998,145.59270308187058L203.715625,145.44499060113995L204.3857421875,146.64216041158747L205.055859375,147.77509531116402L205.7259765625,145.24636720261523L206.39609375,146.78276138054758L207.0662109375,147.8120651931535L207.736328125,148.75730281474267L208.40644531249998,148.5843878755097L209.0765625,149.2371623711884L209.7466796875,148.97257036027906L210.41679687500002,148.99327811838L211.0869140625,149.7418221599806L211.75703125,150.3247016006007L212.4271484375,149.16583264258767L213.097265625,149.729758446923L213.7673828125,150.5480161383069L214.4375,148.84065440069534L215.1076171875,147.67807921369908L215.77773437500002,147.00777986332795L216.4478515625,144.26495717874184L217.11796875000002,144.80565246104308L217.7880859375,143.95711981898015L218.45820312499998,145.2079578918693L219.1283203125,147.42939114149527L219.79843749999998,147.77985891149115L220.4685546875,147.8921196476112L221.138671875,149.34999348473863L221.8087890625,150.037864779136L222.47890625,149.46305454802595L223.1490234375,148.76910971794774L223.819140625,147.52669323128015L224.4892578125,149.00798853962303L225.15937499999998,149.25128405062813L225.8294921875,150.23246218340296L226.499609375,151.19492115275085L227.16972656250002,151.22750635412945L227.83984375,149.78646065089174L228.5099609375,148.82064499955217L229.180078125,147.79621370062733L229.8501953125,145.68933176838163L230.5203125,147.3008872531298L231.1904296875,148.7268124440651L231.860546875,150.1736661322767L232.53066406250002,151.1875963002282L233.20078125,151.65163949443922L233.87089843750002,152.13380026753038L234.541015625,152.45157124110114" style="fill: none;" fill="none"></path></g></g></g></g><g opacity="0.2"><g><g><g><path stroke="rgb(255, 112, 67)" stroke-width="2px" d="M34.1759765625,11.234958574175835L34.84609375,-18.37032888829708L35.5162109375,18.350486934185028L36.186328125,26.363413363695145L36.8564453125,20.33120083808899L37.526562500000004,13.344237685203552L38.196679687499994,55.33900956809521L38.866796875,36.75200696289539L39.536914062499996,47.22401826828718L40.20703125,16.774986192584038L40.8771484375,-24.77452200651169L41.547265625,58.70173021405935L42.2173828125,36.74445050954819L42.8875,35.440045773983L43.5576171875,58.97409222275019L44.227734375000004,-115.62382203340535L44.8978515625,39.72607138752937L45.567968750000006,-146.9933369457722L46.238085937499996,64.39605849981308L46.908203125,2.9478106945753098L47.5783203125,43.723065957427025L48.2484375,-5.596625849604607L48.9185546875,10.511503994464874L49.588671875,36.00084538757801L50.2587890625,41.301875442266464L50.92890625,0.14786119759082794L51.5990234375,-6.681247249245644L52.269140625,48.16695946455002L52.9392578125,40.864497900009155L53.609375,55.88585018366575L54.279492187500004,99.18682689964771L54.949609374999994,88.76589088886976L55.6197265625,67.4550571963191L56.289843749999996,117.83865939080715L56.9599609375,35.97469452023506L57.630078125,97.02702637016773L58.3001953125,76.95479824393988L58.9703125,84.09075408428907L59.6404296875,118.62195897102356L60.310546875,115.02454978600144L60.980664062500004,88.97236141562462L61.65078125,114.5040809288621L62.320898437500006,116.20871064439416L62.991015624999996,111.58300069347024L63.6611328125,109.92367013543844L64.33125,114.85967601835728L65.0013671875,71.51947959512472L65.671484375,95.92098842561245L66.3416015625,110.84279135987163L67.01171875,95.08504423499107L67.6818359375,123.7692257501185L68.351953125,127.38631072640419L69.0220703125,105.43069265037775L69.6921875,124.4212204143405L70.3623046875,124.70384561643004L71.032421875,131.1512575596571L71.70253906250001,115.2080970928073L72.37265625,112.66479007154703L73.0427734375,127.20136554166675L73.712890625,119.7268693819642L74.38300781250001,133.20089113153517L75.05312500000001,115.37716119736433L75.72324218749999,109.47988675162196L76.39335937499999,74.65564510971308L77.0634765625,130.71404156461358L77.73359375,74.28435026854277L78.4037109375,89.214444860816L79.07382812499999,103.21679358556867L79.7439453125,105.60430315509439L80.4140625,139.1578754056245L81.0841796875,53.99269486963749L81.754296875,121.33664450794458L82.4244140625,122.91834668442607L83.09453125,74.27686634659767L83.7646484375,138.33099269494414L84.434765625,64.19528498500586L85.1048828125,130.1727974060923L85.775,96.33099525421858L86.4451171875,114.14205032587051L87.115234375,132.50295441783965L87.7853515625,77.66801930218935L88.45546875000001,88.46627685427666L89.1255859375,126.85421376675367L89.795703125,117.72888641059399L90.4658203125,129.2558455299586L91.13593750000001,135.58646048605442L91.80605468750001,92.71292451024055L92.47617187499999,137.77957765571773L93.14628906249999,118.07903834804893L93.81640625,133.84612883627415L94.4865234375,136.1195959635079L95.156640625,137.8567510675639L95.82675781249999,118.94945803284645L96.496875,127.59263619035482L97.1669921875,115.91963344439864L97.837109375,116.80296701565385L98.5072265625,105.76292933151126L99.17734375,117.75600326433778L99.8474609375,127.52581993304193L100.517578125,122.04373006895185L101.1876953125,132.95341893285513L101.8578125,115.31681507080793L102.5279296875,136.84357969276607L103.198046875,132.61344446986914L103.8681640625,139.87496700324118L104.53828125,115.22018675878644L105.20839843750001,122.87558612599969L105.878515625,121.37836654856801L106.5486328125,134.36899617500603L107.21875,126.22961948812008L107.88886718750001,114.11901830881834L108.55898437500001,139.684098970145L109.22910156249999,130.26759265176952L109.89921874999999,117.06455151736736L110.5693359375,138.89681345969439L111.239453125,143.48523485194892L111.9095703125,140.61326249688864L112.57968749999999,130.28974440135062L113.2498046875,127.02371305972338L113.919921875,128.9090564120561L114.5900390625,119.83193111792207L115.26015625,100.67925281077623L115.9302734375,140.26133518852293L116.600390625,135.62918477877975L117.2705078125,131.3909441716969L117.940625,137.26958793774247L118.6107421875,137.33824880048633L119.280859375,117.25818398594856L119.9509765625,129.49939279071987L120.62109375,132.52265163883567L121.2912109375,125.14020442217588L121.96132812500001,145.65275832731277L122.6314453125,122.82277996838093L123.3015625,134.6328176110983L123.9716796875,141.05299236439168L124.64179687500001,136.1472304277122L125.31191406250001,132.1733107343316L125.98203124999999,132.28244082257152L126.65214843749999,142.16994381230325L127.322265625,141.57584816403687L127.9923828125,144.71828187536448L128.6625,133.5855943914503L129.3326171875,134.3000270538032L130.002734375,131.73241047374904L130.6728515625,131.76817340031266L131.34296875,137.7488754428923L132.0130859375,136.7071975786239L132.683203125,139.52767181396484L133.3533203125,127.99950438737869L134.0234375,138.88192803785205L134.69355468749998,138.96743926405907L135.363671875,139.90881114453077L136.03378906249998,137.37451450154185L136.70390625,141.15167710650712L137.3740234375,123.44280147179961L138.044140625,143.40334689896554L138.7142578125,131.3406584803015L139.384375,138.34493850544095L140.0544921875,145.85279663745314L140.724609375,138.70354364812374L141.39472656249998,143.3156704455614L142.06484375,131.83933659642935L142.7349609375,127.19092431664467L143.40507812500002,145.4271238502115L144.0751953125,143.17214563675225L144.7453125,141.60598661005497L145.4154296875,139.78727159276605L146.085546875,144.63200577255338L146.7556640625,138.98500175401568L147.42578125,136.84049710817635L148.0958984375,144.8059509107843L148.76601562500002,134.02077785879374L149.4361328125,125.12424751371145L150.10625000000002,108.52928360179067L150.7763671875,143.6565935863182L151.44648437499998,121.74213131144643L152.1166015625,134.97252502664924L152.78671874999998,145.60673880111426L153.4568359375,138.52386193536222L154.126953125,141.8624329213053L154.7970703125,138.00079513527453L155.4671875,148.63595140585676L156.1373046875,138.68263152614236L156.807421875,129.0218921955675L157.4775390625,144.42872085794806L158.14765624999998,139.79470111615956L158.8177734375,145.9073386033997L159.487890625,143.06813066080213L160.15800781250002,143.67978879902512L160.828125,141.32201628014445L161.4982421875,147.3726443639025L162.168359375,142.3020688276738L162.8384765625,139.5760898217559L163.50859375,141.56339913792908L164.1787109375,147.0334116993472L164.848828125,134.7363380547613L165.51894531250002,128.47015076503158L166.1890625,139.56084339134395L166.85917968750002,144.5217423811555L167.529296875,119.02453792467713L168.19941406249998,135.8298725746572L168.86953125,143.75532036367804L169.53964843749998,125.52567585557699L170.209765625,131.17411813884974L170.8798828125,123.37511318922043L171.55,128.29098336584866L172.2201171875,138.1254205685109L172.890234375,128.1114071533084L173.5603515625,127.86389539204538L174.23046875,132.1585588362068L174.90058593749998,142.49648348148912L175.570703125,141.50949347019196L176.2408203125,122.5440286025405L176.91093750000002,144.298592928797L177.5810546875,132.19281014241278L178.251171875,126.25588904321194L178.9212890625,145.2264764411375L179.59140625,140.2328072693199L180.2615234375,144.30841351579875L180.931640625,147.13118320517242L181.6017578125,144.38445362448692L182.27187500000002,149.61289705429226L182.9419921875,148.5270022340119L183.61210937500002,142.51178760733455L184.2822265625,135.82554706558585L184.95234374999998,139.08813975937665L185.6224609375,142.28050557151437L186.29257812499998,115.32804095372558L186.9626953125,142.93438275530934L187.6328125,143.9585764305666L188.3029296875,128.46060629189014L188.973046875,150.41439542267472L189.6431640625,148.37617524387315L190.31328125,148.80529080005363L190.9833984375,146.2957862969488L191.65351562499998,148.69440924329683L192.3236328125,140.34160272404552L192.99375,140.94869055971503L193.66386718750002,143.51254210062325L194.333984375,147.07047194894403L195.0041015625,146.8252070127055L195.67421875,142.62012644391507L196.3443359375,148.38281681248918L197.014453125,150.48894781339914L197.6845703125,146.0253735696897L198.3546875,147.26613776944578L199.02480468750002,141.01637389697134L199.694921875,147.1053117485717L200.36503906250002,144.2008164776489L201.03515625,147.2955723311752L201.70527343749998,146.1582255475223L202.375390625,150.61085537960753L203.04550781249998,142.17718129232526L203.715625,145.22342188004404L204.3857421875,148.43791512725875L205.055859375,149.47449766052887L205.7259765625,141.45327503979206L206.39609375,149.0873526474461L207.0662109375,149.35602091206238L207.736328125,150.17515924712643L208.40644531249998,148.32501546666026L209.0765625,150.21632411470637L209.7466796875,148.5756823439151L210.41679687500002,149.0243397555314L211.0869140625,150.86463822238147L211.75703125,151.19902076153085L212.4271484375,147.42752920556813L213.097265625,150.57564715342596L213.7673828125,151.7754026753828L214.4375,146.27961179427803L215.1076171875,145.9342164332047L215.77773437500002,146.0023308377713L216.4478515625,140.15072315186262L217.11796875000002,145.61669538449496L217.7880859375,142.68432085588574L218.45820312499998,147.08421500120312L219.1283203125,150.7615410159342L219.79843749999998,148.30556056648493L220.4685546875,148.0605107517913L221.138671875,151.53680424042977L221.8087890625,151.069671720732L222.47890625,148.60083920136094L223.1490234375,147.72819247283041L223.819140625,145.66306850127876L224.4892578125,151.22993150213733L225.15937499999998,149.61622731713578L225.8294921875,151.70422938256525L226.499609375,152.63860960677266L227.16972656250002,151.2763841561973L227.83984375,147.62489209603518L228.5099609375,147.37192152254283L229.180078125,146.25956675224006L229.8501953125,142.52900887001306L230.5203125,149.71822048025206L231.1904296875,150.86570023046806L231.860546875,152.3439466645941L232.53066406250002,152.70849155215546L233.20078125,152.34770428575575L233.87089843750002,152.85704142716713L234.541015625,152.92822770145722" style="fill: none;" fill="none"></path></g></g></g></g></g></g><g transform="translate(61, 177)" clip-path="url(#clip_1)"><clipPath id="clip_1"><rect width="268" height="23"></rect></clipPath><g><g><line x1="0" y1="0" x2="0" y2="5" style="visibility: inherit;" fill="rgb(0, 0, 0)" stroke="rgb(204, 204, 204)" stroke-width="1px"></line><line x1="33.505859375" y1="0" x2="33.505859375" y2="5" style="visibility: inherit;" fill="rgb(0, 0, 0)" stroke="rgb(204, 204, 204)" stroke-width="1px"></line><line x1="67.01171875" y1="0" x2="67.01171875" y2="5" style="visibility: inherit;" fill="rgb(0, 0, 0)" stroke="rgb(204, 204, 204)" stroke-width="1px"></line><line x1="100.517578125" y1="0" x2="100.517578125" y2="5" style="visibility: inherit;" fill="rgb(0, 0, 0)" stroke="rgb(204, 204, 204)" stroke-width="1px"></line><line x1="134.0234375" y1="0" x2="134.0234375" y2="5" style="visibility: inherit;" fill="rgb(0, 0, 0)" stroke="rgb(204, 204, 204)" stroke-width="1px"></line><line x1="167.529296875" y1="0" x2="167.529296875" y2="5" style="visibility: inherit;" fill="rgb(0, 0, 0)" stroke="rgb(204, 204, 204)" stroke-width="1px"></line><line x1="201.03515625" y1="0" x2="201.03515625" y2="5" style="visibility: inherit;" fill="rgb(0, 0, 0)" stroke="rgb(204, 204, 204)" stroke-width="1px"></line><line x1="234.541015625" y1="0" x2="234.541015625" y2="5" style="visibility: inherit;" fill="rgb(0, 0, 0)" stroke="rgb(204, 204, 204)" stroke-width="1px"></line><line x1="268.046875" y1="0" x2="268.046875" y2="5" style="visibility: inherit;" fill="rgb(0, 0, 0)" stroke="rgb(204, 204, 204)" stroke-width="1px"></line></g><g transform="translate(0, 8)"><text x="0" y="0" dx="0em" dy="0.95em" style="text-anchor: middle; visibility: hidden; font-family: Roboto, sans-serif; font-size: 12px; font-weight: 200;" fill="rgb(33, 33, 33)" stroke="none" stroke-width="1px">-5k</text><text x="33.505859375" y="0" dx="0em" dy="0.95em" style="text-anchor: middle; visibility: inherit; font-family: Roboto, sans-serif; font-size: 12px; font-weight: 200;" fill="rgb(33, 33, 33)" stroke="none" stroke-width="1px">0</text><text x="67.01171875" y="0" dx="0em" dy="0.95em" style="text-anchor: middle; visibility: inherit; font-family: Roboto, sans-serif; font-size: 12px; font-weight: 200;" fill="rgb(33, 33, 33)" stroke="none" stroke-width="1px">5k</text><text x="100.517578125" y="0" dx="0em" dy="0.95em" style="text-anchor: middle; visibility: inherit; font-family: Roboto, sans-serif; font-size: 12px; font-weight: 200;" fill="rgb(33, 33, 33)" stroke="none" stroke-width="1px">10k</text><text x="134.0234375" y="0" dx="0em" dy="0.95em" style="text-anchor: middle; visibility: inherit; font-family: Roboto, sans-serif; font-size: 12px; font-weight: 200;" fill="rgb(33, 33, 33)" stroke="none" stroke-width="1px">15k</text><text x="167.529296875" y="0" dx="0em" dy="0.95em" style="text-anchor: middle; visibility: inherit; font-family: Roboto, sans-serif; font-size: 12px; font-weight: 200;" fill="rgb(33, 33, 33)" stroke="none" stroke-width="1px">20k</text><text x="201.03515625" y="0" dx="0em" dy="0.95em" style="text-anchor: middle; visibility: inherit; font-family: Roboto, sans-serif; font-size: 12px; font-weight: 200;" fill="rgb(33, 33, 33)" stroke="none" stroke-width="1px">25k</text><text x="234.541015625" y="0" dx="0em" dy="0.95em" style="text-anchor: middle; visibility: inherit; font-family: Roboto, sans-serif; font-size: 12px; font-weight: 200;" fill="rgb(33, 33, 33)" stroke="none" stroke-width="1px">30k</text><text x="268.046875" y="0" dx="0em" dy="0.95em" style="text-anchor: middle; visibility: hidden; font-family: Roboto, sans-serif; font-size: 12px; font-weight: 200;" fill="rgb(33, 33, 33)" stroke="none" stroke-width="1px">35k</text></g><line x1="0" y1="0" x2="268.046875" y2="0" fill="rgb(0, 0, 0)" stroke="rgb(204, 204, 204)" stroke-width="1px"></line></g></g></g></g></svg>