<svg viewBox="0 0 330 200" xmlns="http://www.w3.org/2000/svg"><g><g><g><g><g><line x1="51.5625" y1="177" x2="46.5625" y2="177" style="visibility: inherit;" fill="rgb(0, 0, 0)" stroke="rgb(204, 204, 204)" stroke-width="1px"></line><line x1="51.5625" y1="154.875" x2="46.5625" y2="154.875" style="visibility: inherit;" fill="rgb(0, 0, 0)" stroke="rgb(204, 204, 204)" stroke-width="1px"></line><line x1="51.5625" y1="132.75" x2="46.5625" y2="132.75" style="visibility: inherit;" fill="rgb(0, 0, 0)" stroke="rgb(204, 204, 204)" stroke-width="1px"></line><line x1="51.5625" y1="110.625" x2="46.5625" y2="110.625" style="visibility: inherit;" fill="rgb(0, 0, 0)" stroke="rgb(204, 204, 204)" stroke-width="1px"></line><line x1="51.5625" y1="88.5" x2="46.5625" y2="88.5" style="visibility: inherit;" fill="rgb(0, 0, 0)" stroke="rgb(204, 204, 204)" stroke-width="1px"></line><line x1="51.5625" y1="66.375" x2="46.5625" y2="66.375" style="visibility: inherit;" fill="rgb(0, 0, 0)" stroke="rgb(204, 204, 204)" stroke-width="1px"></line><line x1="51.5625" y1="44.25000000000002" x2="46.5625" y2="44.25000000000002" style="visibility: inherit;" fill="rgb(0, 0, 0)" stroke="rgb(204, 204, 204)" stroke-width="1px"></line><line x1="51.5625" y1="22.12500000000002" x2="46.5625" y2="22.12500000000002" style="visibility: inherit;" fill="rgb(0, 0, 0)" stroke="rgb(204, 204, 204)" stroke-width="1px"></line><line x1="51.5625" y1="0" x2="46.5625" y2="0" style="visibility: inherit;" fill="rgb(0, 0, 0)" stroke="rgb(204, 204, 204)" stroke-width="1px"></line></g><g transform="translate(41.5625, 0)"><text x="0" y="177" dx="0em" dy="0.3em" style="text-anchor: end; visibility: hidden; font-family: Roboto, sans-serif; font-size: 12px; font-weight: 200;" fill="rgb(33, 33, 33)" stroke="none" stroke-width="1px">0</text><text x="0" y="154.875" dx="0em" dy="0.3em" style="text-anchor: end; visibility: inherit; font-family: Roboto, sans-serif; font-size: 12px; font-weight: 200;" fill="rgb(33, 33, 33)" stroke="none" stroke-width="1px">0.05</text><text x="0" y="132.75" dx="0em" dy="0.3em" style="text-anchor: end; visibility: hidden; font-family: Roboto, sans-serif; font-size: 12px; font-weight: 200;" fill="rgb(33, 33, 33)" stroke="none" stroke-width="1px">0.1</text><text x="0" y="110.625" dx="0em" dy="0.3em" style="text-anchor: end; visibility: inherit; font-family: Roboto, sans-serif; font-size: 12px; font-weight: 200;" fill="rgb(33, 33, 33)" stroke="none" stroke-width="1px">0.15</text><text x="0" y="88.5" dx="0em" dy="0.3em" style="text-anchor: end; visibility: hidden; font-family: Roboto, sans-serif; font-size: 12px; font-weight: 200;" fill="rgb(33, 33, 33)" stroke="none" stroke-width="1px">0.2</text><text x="0" y="66.375" dx="0em" dy="0.3em" style="text-anchor: end; visibility: inherit; font-family: Roboto, sans-serif; font-size: 12px; font-weight: 200;" fill="rgb(33, 33, 33)" stroke="none" stroke-width="1px">0.25</text><text x="0" y="44.25000000000002" dx="0em" dy="0.3em" style="text-anchor: end; visibility: hidden; font-family: Roboto, sans-serif; font-size: 12px; font-weight: 200;" fill="rgb(33, 33, 33)" stroke="none" stroke-width="1px">0.3</text><text x="0" y="22.12500000000002" dx="0em" dy="0.3em" style="text-anchor: end; visibility: inherit; font-family: Roboto, sans-serif; font-size: 12px; font-weight: 200;" fill="rgb(33, 33, 33)" stroke="none" stroke-width="1px">0.35</text><text x="0" y="0" dx="0em" dy="0.3em" style="text-anchor: end; visibility: hidden; font-family: Roboto, sans-serif; font-size: 12px; font-weight: 200;" fill="rgb(33, 33, 33)" stroke="none" stroke-width="1px">0.4</text></g><line x1="51.5625" y1="0" x2="51.5625" y2="177" fill="rgb(0, 0, 0)" stroke="rgb(204, 204, 204)" stroke-width="1px"></line></g></g><g transform="translate(51, 0)" clip-path="url(#clip_0)"><clipPath id="clip_0"><rect width="278" height="177"></rect></clipPath><g><g><g><line x1="0" y1="0" x2="0" y2="177" fill="rgb(0, 0, 0)" stroke="rgb(66, 66, 66)" stroke-width="1px" opacity="0.25"></line><line x1="34.8046875" y1="0" x2="34.8046875" y2="177" fill="rgb(0, 0, 0)" stroke="rgb(66, 66, 66)" stroke-width="1px" opacity="0.25"></line><line x1="69.609375" y1="0" x2="69.609375" y2="177" fill="rgb(0, 0, 0)" stroke="rgb(66, 66, 66)" stroke-width="1px" opacity="0.25"></line><line x1="104.4140625" y1="0" x2="104.4140625" y2="177" fill="rgb(0, 0, 0)" stroke="rgb(66, 66, 66)" stroke-width="1px" opacity="0.25"></line><line x1="139.21875" y1="0" x2="139.21875" y2="177" fill="rgb(0, 0, 0)" stroke="rgb(66, 66, 66)" stroke-width="1px" opacity="0.25"></line><line x1="174.0234375" y1="0" x2="174.0234375" y2="177" fill="rgb(0, 0, 0)" stroke="rgb(66, 66, 66)" stroke-width="1px" opacity="0.25"></line><line x1="208.828125" y1="0" x2="208.828125" y2="177" fill="rgb(0, 0, 0)" stroke="rgb(66, 66, 66)" stroke-width="1px" opacity="0.25"></line><line x1="243.6328125" y1="0" x2="243.6328125" y2="177" fill="rgb(0, 0, 0)" stroke="rgb(66, 66, 66)" stroke-width="1px" opacity="0.25"></line><line x1="278.4375" y1="0" x2="278.4375" y2="177" fill="rgb(0, 0, 0)" stroke="rgb(66, 66, 66)" stroke-width="1px" opacity="0.25"></line></g><g><line x1="0" y1="177" x2="278.4375" y2="177" fill="rgb(0, 0, 0)" stroke="rgb(66, 66, 66)" stroke-width="1px" opacity="0.25"></line><line x1="0" y1="154.875" x2="278.4375" y2="154.875" fill="rgb(0, 0, 0)" stroke="rgb(66, 66, 66)" stroke-width="1px" opacity="0.25"></line><line x1="0" y1="132.75" x2="278.4375" y2="132.75" fill="rgb(0, 0, 0)" stroke="rgb(66, 66, 66)" stroke-width="1px" opacity="0.25"></line><line x1="0" y1="110.625" x2="278.4375" y2="110.625" fill="rgb(0, 0, 0)" stroke="rgb(66, 66, 66)" stroke-width="1px" opacity="0.25"></line><line x1="0" y1="88.5" x2="278.4375" y2="88.5" fill="rgb(0, 0, 0)" stroke="rgb(66, 66, 66)" stroke-width="1px" opacity="0.25"></line><line x1="0" y1="66.375" x2="278.4375" y2="66.375" fill="rgb(0, 0, 0)" stroke="rgb(66, 66, 66)" stroke-width="1px" opacity="0.25"></line><line x1="0" y1="44.25000000000002" x2="278.4375" y2="44.25000000000002" fill="rgb(0, 0, 0)" stroke="rgb(66, 66, 66)" stroke-width="1px" opacity="0.25"></line><line x1="0" y1="22.12500000000002" x2="278.4375" y2="22.12500000000002" fill="rgb(0, 0, 0)" stroke="rgb(66, 66, 66)" stroke-width="1px" opacity="0.25"></line><line x1="0" y1="0" x2="278.4375" y2="0" fill="rgb(0, 0, 0)" stroke="rgb(66, 66, 66)" stroke-width="1px" opacity="0.25"></line></g></g></g><g><g><line x1="0" y1="177" x2="278.4375" y2="177" fill="rgb(0, 0, 0)" stroke="rgb(153, 153, 153)" stroke-width="1.5px"></line></g></g><g><g><line x1="34.8046875" y1="0" x2="34.8046875" y2="177" fill="rgb(0, 0, 0)" stroke="rgb(153, 153, 153)" stroke-width="1.5px"></line></g></g><g><g><g><g><g><path stroke="rgb(255, 112, 67)" stroke-width="2px" d="M42.461718749999996,-0.8126817703575415L43.1578125,4.116165993957616L43.85390625,9.501865771993218L44.550000000000004,14.922392988756268L45.24609375,20.66757844913455L45.9421875,25.94658095939134L46.638281250000006,31.623562863448377L47.334375,37.235792687580265L48.03046875,42.782622852003875L48.7265625,48.34702228261649L49.422656249999996,52.904212624315434L50.11875,57.68343747706055L50.81484375,62.39852725742481L51.5109375,67.20473048423682L52.20703125,72.0775578593101L52.903125,76.99502628786868L53.59921875,81.56843200360292L54.2953125,86.0113672809655L54.991406250000004,89.88965174085784L55.6875,93.24754615468595L56.38359375,96.60041566167874L57.0796875,99.74152231464369L57.775781249999994,102.84837461793408L58.471875,105.79108327286963L59.16796875,108.5797704499986L59.864062499999996,111.13697172609228L60.56015625,113.41740850672123L61.25625,115.81245147321846L61.952343750000004,118.17198041538104L62.6484375,120.4101616782645L63.34453125,122.63163803354456L64.040625,124.6359747290455L64.73671875000001,126.56078774179024L65.4328125,128.32872942236892L66.12890625,130.04263443158698L66.825,131.67661860092718L67.52109374999999,132.27874333416236L68.2171875,133.06679162536727L68.91328125,134.05499313716234L69.609375,135.16629070011166L70.30546875,136.37474034260734L71.0015625,137.60538696963562L71.69765625000001,138.88216631245226L72.39375,140.17528664846324L73.08984375,141.13490462916613L73.7859375,142.14855804215424L74.48203125,143.0829435865318L75.17812500000001,143.89593803615793L75.87421875000001,144.65022167105337L76.5703125,145.30801088237087L77.26640625,145.88685878290727L77.9625,146.45373985871075L78.65859375,146.7734423426056L79.3546875,146.6470382405677L80.05078125,146.26936096509445L80.74687499999999,146.23374824410766L81.44296874999999,146.50861468277031L82.1390625,146.05412560320886L82.83515625,145.95446966211196L83.53125,146.16375968676923L84.22734375,146.09260480148862L84.92343749999999,145.996756902595L85.61953125,145.93201612309196L86.315625,145.94046081081376L87.01171875,145.96077768042892L87.7078125,146.09278440347438L88.40390625,145.87918839824871L89.10000000000001,145.7131232468645L89.79609375,145.41308516701224L90.4921875,144.93994577938415L91.18828125,144.23720253088533L91.884375,143.89519606130395L92.58046875000001,143.53381888328238L93.27656250000001,143.5665638998642L93.97265625,143.60959107759564L94.66875,143.77634776731114L95.36484375,143.75047539830078L96.0609375,143.88969047015829L96.75703125,143.90181828228188L97.453125,143.8873144488785L98.14921874999999,144.01470084048827L98.84531249999999,144.01293986772012L99.54140625,143.89477671971625L100.2375,143.96275668466512L100.93359375,144.06313382610335L101.6296875,143.5137877450863L102.32578124999999,143.06058526852604L103.021875,142.83284595649766L103.71796875,142.76585229659872L104.4140625,142.89402522250887L105.11015625,142.94314945104645L105.80625,142.93009421147661L106.50234375000001,143.1902316297159L107.1984375,143.50295553416402L107.89453125,143.37901343590255L108.590625,143.27134439460178L109.28671875,143.10099350429618L109.98281250000001,143.15274339924483L110.67890625000001,143.46445293730633L111.375,143.71530761275372L112.07109375,143.90936695309688L112.7671875,144.13003809465295L113.46328125,144.30016370244815L114.159375,144.0163680516362L114.85546875,143.95555900947332L115.55156249999999,144.06813616553592L116.24765624999999,144.16694876849442L116.94375,144.23798377990596L117.63984375,144.21025460171626L118.3359375,143.93969652478648L119.03203125,143.98729788765164L119.72812499999999,144.23015602978978L120.42421875,144.5623926687414L121.1203125,145.02234789241402L121.81640625,145.3146287233177L122.5125,145.47778029623885L123.20859375,145.5059105374411L123.90468750000001,145.30093622314905L124.60078125,145.29098852788195L125.296875,145.33543451019992L125.99296875,145.44287966274544L126.6890625,145.44962494571996L127.38515625000001,145.5073796406388L128.08125,145.3948715177178L128.77734375,145.42056422066688L129.47343750000002,145.43939804960488L130.16953125,145.48004323350906L130.865625,145.3273192099185L131.56171874999998,145.50482641020125L132.2578125,145.75534512614433L132.95390625,146.16235553780334L133.65,146.3899098936268L134.34609375,145.9765344726174L135.04218749999998,145.53694191826156L135.73828125,145.18239553274378L136.434375,144.82223246098556L137.13046875,144.17554469615817L137.8265625,143.1343986300266L138.52265625,142.60842227236247L139.21875,142.2357661130775L139.91484375,141.84085588322574L140.6109375,141.7163030872732L141.30703125,141.72800378471553L142.003125,141.73512706589662L142.69921875,141.66798793483952L143.39531250000002,141.38726022070156L144.09140624999998,141.4158769054741L144.7875,141.35079894384924L145.48359374999998,141.5400045330595L146.1796875,141.7653106460137L146.87578125,141.82568278814333L147.571875,141.8597710126935L148.26796875,141.57140106226794L148.9640625,140.92780326763267L149.66015625,140.58679472928927L150.35625000000002,140.52781683668903L151.05234375,140.5480102551902L151.74843750000002,140.7905836271003L152.44453124999998,141.1317079166624L153.140625,141.36845851391868L153.83671875,141.5808300447483L154.5328125,141.04983135742063L155.22890625,140.63944563378163L155.925,140.31391495829385L156.62109375,140.01581032494045L157.3171875,139.99798308264815L158.01328125,140.08423352808714L158.709375,140.2687426362691L159.40546875,140.22705698783741L160.1015625,140.21610350326029L160.79765625000002,140.47001014003354L161.49374999999998,140.8791574856591L162.18984375,141.25187784111213L162.88593749999998,141.64528232917613L163.58203125,141.99004036250963L164.278125,141.7746331844524L164.97421875,141.72460108123988L165.6703125,141.78995797558292L166.36640625,141.8123131768326L167.0625,142.05343533762812L167.75859375000002,142.42222011660647L168.4546875,142.47585376992888L169.15078125000002,142.38406592693966L169.84687499999998,142.29349239669466L170.54296875,142.3259142980112L171.2390625,142.354895427533L171.93515625,142.53166724575044L172.63125,142.6845908974557L173.32734375,142.99866570472412L174.0234375,143.26965396219308L174.71953125,143.24950470843206L175.415625,142.8979840193289L176.11171875,142.56844847584352L176.8078125,142.06082816233982L177.50390625,141.32114141172616L178.20000000000002,140.49996957621843L178.89609374999998,139.75863014722987L179.5921875,139.31978857109024L180.28828124999998,138.14794077628298L180.984375,137.34821235927012L181.68046875,136.71263456369678L182.3765625,136.25040746048234L183.07265625,135.9272366274306L183.76875,135.95293679439476L184.46484375,136.1630905217138L185.16093750000002,136.2744694334988L185.85703125,136.38742543355968L186.55312500000002,136.56215647665468L187.24921874999998,136.73409983699207L187.9453125,136.9032021727245L188.64140625,136.70526449627167L189.3375,136.73068772403292L190.03359375,136.97673921971258L190.7296875,136.88950552456816L191.42578125,136.8626132796004L192.121875,136.85124654262032L192.81796875,137.11138953530053L193.5140625,137.2194186613754L194.21015625,136.68747941051697L194.90625,136.60886427697403L195.60234375000002,136.77587383351843L196.29843749999998,137.17935973472666L196.99453125,137.6965984899835L197.69062499999998,138.36771689349627L198.38671875,139.12958453890215L199.0828125,139.6122915673049L199.77890625,139.94701053516815L200.475,139.99842590878455L201.17109375,140.25792576247485L201.8671875,140.7246324144246L202.56328125000002,141.3753169266845L203.259375,142.04243229558858L203.95546875000002,142.53021922547097L204.65156249999998,143.0992096503882L205.34765625,143.39650876911332L206.04375,143.33845169449955L206.73984375,143.01256343934006L207.4359375,142.86306550778787L208.13203125,142.83374452547932L208.828125,142.94529343817655L209.52421875,143.2624139229895L210.2203125,143.71569430920133L210.91640625,144.1593245884338L211.6125,144.51479286823027L212.30859375,144.9920802272758L213.00468750000002,145.14480100616223L213.70078124999998,145.1357044997478L214.396875,144.92729582027582L215.09296874999998,144.93606973073474L215.7890625,145.17872012485023L216.48515625,145.1090793599424L217.18125,145.19247486977204L217.87734375,145.45482345842376L218.5734375,145.84030035241278L219.26953125,146.33896229329008L219.96562500000002,146.9327859694499L220.66171875,147.5654155859195L221.35781250000002,148.14204798780935L222.05390624999998,148.5403120198432L222.75,148.85717180243634L223.44609375,148.90831486804188L224.1421875,148.70618150039255L224.83828125,148.28982659222925L225.534375,147.80847099299575L226.23046875,147.5703069709262L226.9265625,147.29003803834442L227.62265625,147.18737253490164L228.31875,147.31674445833607L229.01484375,147.5936918179145L229.7109375,147.94892190515702L230.40703125000002,148.3279893867356L231.10312499999998,148.66261810047519L231.79921875,148.74846470643934L232.49531249999998,148.8584079238168L233.19140625,149.1573044958646L233.8875,149.5544911647102L234.58359375,149.98494016896254L235.2796875,150.45425485161286L235.97578125,150.92729095645154L236.671875,151.21353978381995L237.36796875000002,151.2695111593094L238.0640625,151.0643700620822L238.76015625000002,151.0393834657247L239.45624999999998,151.2049914022848L240.15234375,151.5008443919161L240.8484375,151.88063110052582L241.54453125,152.32814403631707L242.240625,152.8174103513862L242.93671875,153.3255622060898L243.6328125,153.83640953208823" style="fill: none;" fill="none"></path></g></g></g></g><g opacity="0.2"><g><g><g><path stroke="rgb(255, 112, 67)" stroke-width="2px" d="M41.06953125,-3.835924744606018L41.765625,1.1076046228408813L42.461718749999996,6.578265845775604L43.1578125,11.482615068554878L43.85390625,17.562830194830894L44.550000000000004,23.042564436793327L45.24609375,29.2786033898592L45.9421875,33.86136156320572L46.638281250000006,40.13663341104984L47.334375,45.65271247923374L48.03046875,51.1020230948925L48.7265625,56.69311282038689L49.422656249999996,59.73974820971489L50.11875,64.85211749374866L50.81484375,69.4710688367486L51.5109375,74.41397839039564L52.20703125,79.38676428794861L52.903125,84.37120795994997L53.59921875,88.42852887511253L54.2953125,92.67576337605715L54.991406250000004,95.70707485824823L55.6875,98.28438591957092L56.38359375,101.6297188103199L57.0796875,104.45318166911602L57.775781249999994,107.50865270197392L58.471875,110.20514604449272L59.16796875,112.76280109584332L59.864062499999996,114.97277357429266L60.56015625,116.83806364238262L61.25625,119.40501590073109L61.952343750000004,121.71127381548285L62.6484375,123.76743356510997L63.34453125,125.96385256201029L64.040625,127.64247976988554L64.73671875000001,129.4480072595179L65.4328125,130.98064194247127L66.12890625,132.6134919449687L66.825,134.12759485468268L67.52109374999999,133.18193043395877L68.2171875,134.24886406213045L68.91328125,135.53729540482163L69.609375,136.83323704451323L70.30546875,138.18741480633616L71.0015625,139.45135691016912L71.69765625000001,140.7973353266716L72.39375,142.1149671524763L73.08984375,142.574331600219L73.7859375,143.6690381616354L74.48203125,144.48452190309763L75.17812500000001,145.1154297105968L75.87421875000001,145.7816471233964L76.5703125,146.29469469934702L77.26640625,146.75513063371181L77.9625,147.30406147241592L78.65859375,147.25299606844783L79.3546875,146.45743208751082L80.05078125,145.70284505188465L80.74687499999999,146.18032916262746L81.44296874999999,146.92091434076428L82.1390625,145.3723919838667L82.83515625,145.80498575046659L83.53125,146.47769472375512L84.22734375,145.98587247356772L84.92343749999999,145.85298505425453L85.61953125,145.8349049538374L86.315625,145.9531278423965L87.01171875,145.9912529848516L87.7078125,146.2907944880426L88.40390625,145.55879439041018L89.10000000000001,145.46402551978827L89.79609375,144.96302804723382L90.4921875,144.23023669794202L91.18828125,143.18308765813708L91.884375,143.38218635693192L92.58046875000001,142.99175311625004L93.27656250000001,143.61568142473698L93.97265625,143.67413184419274L94.66875,144.0264828018844L95.36484375,143.7116668447852L96.0609375,144.09851307794452L96.75703125,143.9200100004673L97.453125,143.86555869877338L98.14921874999999,144.20578042790294L98.84531249999999,144.0102984085679L99.54140625,143.71753199771047L100.2375,144.06472663208842L100.93359375,144.2136995382607L101.6296875,142.68976862356067L102.32578124999999,142.38078155368567L103.021875,142.49123698845506L103.71796875,142.6653618067503L104.4140625,143.08628461137414L105.11015625,143.0168357938528L105.80625,142.91051135212183L106.50234375000001,143.58043775707483L107.1984375,143.97204139083624L107.89453125,143.19310028851032L108.590625,143.10984083265066L109.28671875,142.84546716883779L109.98281250000001,143.23036824166775L110.67890625000001,143.9320172443986L111.375,144.09158962592483L112.07109375,144.2004559636116L112.7671875,144.46104480698705L113.46328125,144.555352114141L114.159375,143.59067457541823L114.85546875,143.86434544622898L115.55156249999999,144.23700189962983L116.24765624999999,144.31516767293215L116.94375,144.3445362970233L117.63984375,144.16866083443165L118.3359375,143.53385940939188L119.03203125,144.05869993194938L119.72812499999999,144.59444324299693L120.42421875,145.0607476271689L121.1203125,145.71228072792292L121.81640625,145.75304996967316L122.5125,145.72250765562057L123.20859375,145.54810589924455L123.90468750000001,144.9934747517109L124.60078125,145.2760669849813L125.296875,145.4021034836769L125.99296875,145.60404739156365L126.6890625,145.4597428701818L127.38515625000001,145.59401168301702L128.08125,145.22610933333635L128.77734375,145.45910327509046L129.47343750000002,145.4676487930119L130.16953125,145.54101100936532L130.865625,145.09823317453265L131.56171874999998,145.7710872106254L132.2578125,146.13112320005894L132.95390625,146.7728711552918L133.65,146.73124142736197L134.34609375,145.35647134110332L135.04218749999998,144.87755308672786L135.73828125,144.65057595446706L136.434375,144.28198785334826L137.13046875,143.20551304891706L137.8265625,141.5726795308292L138.52265625,141.8194577358663L139.21875,141.67678187415004L139.91484375,141.2484905384481L140.6109375,141.5294738933444L141.30703125,141.74555483087897L142.003125,141.74581198766828L142.69921875,141.56727923825383L143.39531250000002,140.96616864949465L144.09140624999998,141.45880193263292L144.7875,141.25318200141191L145.48359374999998,141.82381291687489L146.1796875,142.10326981544495L146.87578125,141.91624100133777L147.571875,141.91090334951878L148.26796875,141.13884613662958L148.9640625,139.96240657567978L149.66015625,140.07528192177415L150.35625000000002,140.43934999778867L151.05234375,140.57830038294196L151.74843750000002,141.15444368496537L152.44453124999998,141.64339435100555L153.140625,141.72358440980315L153.83671875,141.8993873409927L154.5328125,140.25333332642913L155.22890625,140.02386704832315L155.925,139.82561894506216L156.62109375,139.56865337491035L157.3171875,139.97124221920967L158.01328125,140.21360919624567L158.709375,140.54550629854202L159.40546875,140.1645285151899L160.1015625,140.1996732763946L160.79765625000002,140.8508700951934L161.49374999999998,141.49287850409746L162.18984375,141.81095837429166L162.88593749999998,142.23538906127214L163.58203125,142.50717741250992L164.278125,141.4515224173665L164.97421875,141.64955292642117L165.6703125,141.88799331709743L166.36640625,141.84584597870708L167.0625,142.41511857882142L167.75859375000002,142.975397285074L168.4546875,142.5563042499125L169.15078125000002,142.2463841624558L169.84687499999998,142.15763210132718L170.54296875,142.37454714998603L171.2390625,142.39836712181568L171.93515625,142.79682497307658L172.63125,142.9139763750136L173.32734375,143.46977791562676L174.0234375,143.67613634839654L174.71953125,143.2192808277905L175.415625,142.37070298567414L176.11171875,142.07414516061544L176.8078125,141.2993976920843L177.50390625,140.2116112858057L178.20000000000002,139.2682118229568L178.89609374999998,138.646621003747L179.5921875,138.6615262068808L180.28828124999998,136.3901690840721L180.984375,136.14861973375082L181.68046875,135.75926787033677L182.3765625,135.55706680566072L183.07265625,135.44248037785292L183.76875,135.99148704484105L184.46484375,136.47832111269236L185.16093750000002,136.4415378011763L185.85703125,136.55685943365097L186.55312500000002,136.8242530412972L187.24921874999998,136.99201487749815L187.9453125,137.15685567632318L188.64140625,136.40835798159242L189.3375,136.76882256567478L190.03359375,137.34581646323204L190.7296875,136.75865498185158L191.42578125,136.8222749121487L192.121875,136.83419643715024L192.81796875,137.50160402432084L193.5140625,137.3814623504877L194.21015625,135.88957053422928L194.90625,136.49094157665968L195.60234375000002,137.02638816833496L196.29843749999998,137.78458858653903L196.99453125,138.47245662286878L197.69062499999998,139.37439449876547L198.38671875,140.27238600701094L199.0828125,140.33635210990906L199.77890625,140.44908898696303L200.475,140.0755489692092L201.17109375,140.64717554301023L201.8671875,141.42469239234924L202.56328125000002,142.35134369507432L203.259375,143.04310534894466L203.95546875000002,143.26189962029457L204.65156249999998,143.95269528776407L205.34765625,143.842457447201L206.04375,143.2513660825789L206.73984375,142.5237310566008L207.4359375,142.63881861045957L208.13203125,142.7897630520165L208.828125,143.11261680722237L209.52421875,143.73809465020895L210.2203125,144.39561488851905L210.91640625,144.8247700072825L211.6125,145.047995287925L212.30859375,145.7080112658441L213.00468750000002,145.37388217449188L213.70078124999998,145.12205974012613L214.396875,144.61468280106783L215.09296874999998,144.94923059642315L215.7890625,145.54269571602345L216.48515625,145.00461821258068L217.18125,145.31756813451648L217.87734375,145.84834634140134L218.5734375,146.41851569339633L219.26953125,147.08695520460606L219.96562500000002,147.82352148368955L220.66171875,148.51436001062393L221.35781250000002,149.00699659064412L222.05390624999998,149.13770806789398L222.75,149.332461476326L223.44609375,148.98502946645021L224.1421875,148.40298144891858L224.83828125,147.66529422998428L225.534375,147.08643759414554L226.23046875,147.21306093782187L226.9265625,146.86963463947177L227.62265625,147.03337427973747L228.31875,147.51080234348774L229.01484375,148.00911285728216L229.7109375,148.48176703602076L230.40703125000002,148.89659060910344L231.10312499999998,149.16456117108464L231.79921875,148.87723461538553L232.49531249999998,149.02332274988294L233.19140625,149.60564935393631L233.8875,150.15027116797864L234.58359375,150.630613675341L235.2796875,151.1582268755883L235.97578125,151.63684511370957L236.671875,151.64291302487254L237.36796875000002,151.3534682225436L238.0640625,150.7566584162414L238.76015625000002,151.00190357118845L239.45624999999998,151.45340330712497L240.15234375,151.94462387636304L240.8484375,152.45031116344035L241.54453125,152.999413440004L242.240625,153.55130982398987L242.93671875,154.08778998814523L243.6328125,154.60268052108586" style="fill: none;" fill="none"></path></g></g></g></g></g></g><g transform="translate(51, 177)" clip-path="url(#clip_1)"><clipPath id="clip_1"><rect width="278" height="23"></rect></clipPath><g><g><line x1="0" y1="0" x2="0" y2="5" style="visibility: inherit;" fill="rgb(0, 0, 0)" stroke="rgb(204, 204, 204)" stroke-width="1px"></line><line x1="34.8046875" y1="0" x2="34.8046875" y2="5" style="visibility: inherit;" fill="rgb(0, 0, 0)" stroke="rgb(204, 204, 204)" stroke-width="1px"></line><line x1="69.609375" y1="0" x2="69.609375" y2="5" style="visibility: inherit;" fill="rgb(0, 0, 0)" stroke="rgb(204, 204, 204)" stroke-width="1px"></line><line x1="104.4140625" y1="0" x2="104.4140625" y2="5" style="visibility: inherit;" fill="rgb(0, 0, 0)" stroke="rgb(204, 204, 204)" stroke-width="1px"></line><line x1="139.21875" y1="0" x2="139.21875" y2="5" style="visibility: inherit;" fill="rgb(0, 0, 0)" stroke="rgb(204, 204, 204)" stroke-width="1px"></line><line x1="174.0234375" y1="0" x2="174.0234375" y2="5" style="visibility: inherit;" fill="rgb(0, 0, 0)" stroke="rgb(204, 204, 204)" stroke-width="1px"></line><line x1="208.828125" y1="0" x2="208.828125" y2="5" style="visibility: inherit;" fill="rgb(0, 0, 0)" stroke="rgb(204, 204, 204)" stroke-width="1px"></line><line x1="243.6328125" y1="0" x2="243.6328125" y2="5" style="visibility: inherit;" fill="rgb(0, 0, 0)" stroke="rgb(204, 204, 204)" stroke-width="1px"></line><line x1="278.4375" y1="0" x2="278.4375" y2="5" style="visibility: inherit;" fill="rgb(0, 0, 0)" stroke="rgb(204, 204, 204)" stroke-width="1px"></line></g><g transform="translate(0, 8)"><text x="0" y="0" dx="0em" dy="0.95em" style="text-anchor: middle; visibility: hidden; font-family: Roboto, sans-serif; font-size: 12px; font-weight: 200;" fill="rgb(33, 33, 33)" stroke="none" stroke-width="1px">-5k</text><text x="34.8046875" y="0" dx="0em" dy="0.95em" style="text-anchor: middle; visibility: inherit; font-family: Roboto, sans-serif; font-size: 12px; font-weight: 200;" fill="rgb(33, 33, 33)" stroke="none" stroke-width="1px">0</text><text x="69.609375" y="0" dx="0em" dy="0.95em" style="text-anchor: middle; visibility: inherit; font-family: Roboto, sans-serif; font-size: 12px; font-weight: 200;" fill="rgb(33, 33, 33)" stroke="none" stroke-width="1px">5k</text><text x="104.4140625" y="0" dx="0em" dy="0.95em" style="text-anchor: middle; visibility: inherit; font-family: Roboto, sans-serif; font-size: 12px; font-weight: 200;" fill="rgb(33, 33, 33)" stroke="none" stroke-width="1px">10k</text><text x="139.21875" y="0" dx="0em" dy="0.95em" style="text-anchor: middle; visibility: inherit; font-family: Roboto, sans-serif; font-size: 12px; font-weight: 200;" fill="rgb(33, 33, 33)" stroke="none" stroke-width="1px">15k</text><text x="174.0234375" y="0" dx="0em" dy="0.95em" style="text-anchor: middle; visibility: inherit; font-family: Roboto, sans-serif; font-size: 12px; font-weight: 200;" fill="rgb(33, 33, 33)" stroke="none" stroke-width="1px">20k</text><text x="208.828125" y="0" dx="0em" dy="0.95em" style="text-anchor: middle; visibility: inherit; font-family: Roboto, sans-serif; font-size: 12px; font-weight: 200;" fill="rgb(33, 33, 33)" stroke="none" stroke-width="1px">25k</text><text x="243.6328125" y="0" dx="0em" dy="0.95em" style="text-anchor: middle; visibility: inherit; font-family: Roboto, sans-serif; font-size: 12px; font-weight: 200;" fill="rgb(33, 33, 33)" stroke="none" stroke-width="1px">30k</text><text x="278.4375" y="0" dx="0em" dy="0.95em" style="text-anchor: middle; visibility: hidden; font-family: Roboto, sans-serif; font-size: 12px; font-weight: 200;" fill="rgb(33, 33, 33)" stroke="none" stroke-width="1px">35k</text></g><line x1="0" y1="0" x2="278.4375" y2="0" fill="rgb(0, 0, 0)" stroke="rgb(204, 204, 204)" stroke-width="1px"></line></g></g></g></g></svg>