<svg viewBox="0 0 330 200" xmlns="http://www.w3.org/2000/svg"><g><g><g><g><g><line x1="51.5625" y1="177" x2="46.5625" y2="177" style="visibility: inherit;" fill="rgb(0, 0, 0)" stroke="rgb(204, 204, 204)" stroke-width="1px"></line><line x1="51.5625" y1="162.25" x2="46.5625" y2="162.25" style="visibility: inherit;" fill="rgb(0, 0, 0)" stroke="rgb(204, 204, 204)" stroke-width="1px"></line><line x1="51.5625" y1="147.5" x2="46.5625" y2="147.5" style="visibility: inherit;" fill="rgb(0, 0, 0)" stroke="rgb(204, 204, 204)" stroke-width="1px"></line><line x1="51.5625" y1="132.75" x2="46.5625" y2="132.75" style="visibility: inherit;" fill="rgb(0, 0, 0)" stroke="rgb(204, 204, 204)" stroke-width="1px"></line><line x1="51.5625" y1="118.00000000000001" x2="46.5625" y2="118.00000000000001" style="visibility: inherit;" fill="rgb(0, 0, 0)" stroke="rgb(204, 204, 204)" stroke-width="1px"></line><line x1="51.5625" y1="103.25000000000003" x2="46.5625" y2="103.25000000000003" style="visibility: inherit;" fill="rgb(0, 0, 0)" stroke="rgb(204, 204, 204)" stroke-width="1px"></line><line x1="51.5625" y1="88.5" x2="46.5625" y2="88.5" style="visibility: inherit;" fill="rgb(0, 0, 0)" stroke="rgb(204, 204, 204)" stroke-width="1px"></line><line x1="51.5625" y1="73.75" x2="46.5625" y2="73.75" style="visibility: inherit;" fill="rgb(0, 0, 0)" stroke="rgb(204, 204, 204)" stroke-width="1px"></line><line x1="51.5625" y1="59.00000000000001" x2="46.5625" y2="59.00000000000001" style="visibility: inherit;" fill="rgb(0, 0, 0)" stroke="rgb(204, 204, 204)" stroke-width="1px"></line><line x1="51.5625" y1="44.25" x2="46.5625" y2="44.25" style="visibility: inherit;" fill="rgb(0, 0, 0)" stroke="rgb(204, 204, 204)" stroke-width="1px"></line><line x1="51.5625" y1="29.500000000000014" x2="46.5625" y2="29.500000000000014" style="visibility: inherit;" fill="rgb(0, 0, 0)" stroke="rgb(204, 204, 204)" stroke-width="1px"></line><line x1="51.5625" y1="14.750000000000007" x2="46.5625" y2="14.750000000000007" style="visibility: inherit;" fill="rgb(0, 0, 0)" stroke="rgb(204, 204, 204)" stroke-width="1px"></line><line x1="51.5625" y1="0" x2="46.5625" y2="0" style="visibility: inherit;" fill="rgb(0, 0, 0)" stroke="rgb(204, 204, 204)" stroke-width="1px"></line></g><g transform="translate(41.5625, 0)"><text x="0" y="177" dx="0em" dy="0.3em" style="text-anchor: end; visibility: hidden; font-family: Roboto, sans-serif; font-size: 12px; font-weight: 200;" fill="rgb(33, 33, 33)" stroke="none" stroke-width="1px">0.01</text><text x="0" y="162.25" dx="0em" dy="0.3em" style="text-anchor: end; visibility: inherit; font-family: Roboto, sans-serif; font-size: 12px; font-weight: 200;" fill="rgb(33, 33, 33)" stroke="none" stroke-width="1px">0.02</text><text x="0" y="147.5" dx="0em" dy="0.3em" style="text-anchor: end; visibility: hidden; font-family: Roboto, sans-serif; font-size: 12px; font-weight: 200;" fill="rgb(33, 33, 33)" stroke="none" stroke-width="1px">0.03</text><text x="0" y="132.75" dx="0em" dy="0.3em" style="text-anchor: end; visibility: inherit; font-family: Roboto, sans-serif; font-size: 12px; font-weight: 200;" fill="rgb(33, 33, 33)" stroke="none" stroke-width="1px">0.04</text><text x="0" y="118.00000000000001" dx="0em" dy="0.3em" style="text-anchor: end; visibility: hidden; font-family: Roboto, sans-serif; font-size: 12px; font-weight: 200;" fill="rgb(33, 33, 33)" stroke="none" stroke-width="1px">0.05</text><text x="0" y="103.25000000000003" dx="0em" dy="0.3em" style="text-anchor: end; visibility: inherit; font-family: Roboto, sans-serif; font-size: 12px; font-weight: 200;" fill="rgb(33, 33, 33)" stroke="none" stroke-width="1px">0.06</text><text x="0" y="88.5" dx="0em" dy="0.3em" style="text-anchor: end; visibility: hidden; font-family: Roboto, sans-serif; font-size: 12px; font-weight: 200;" fill="rgb(33, 33, 33)" stroke="none" stroke-width="1px">0.07</text><text x="0" y="73.75" dx="0em" dy="0.3em" style="text-anchor: end; visibility: inherit; font-family: Roboto, sans-serif; font-size: 12px; font-weight: 200;" fill="rgb(33, 33, 33)" stroke="none" stroke-width="1px">0.08</text><text x="0" y="59.00000000000001" dx="0em" dy="0.3em" style="text-anchor: end; visibility: hidden; font-family: Roboto, sans-serif; font-size: 12px; font-weight: 200;" fill="rgb(33, 33, 33)" stroke="none" stroke-width="1px">0.09</text><text x="0" y="44.25" dx="0em" dy="0.3em" style="text-anchor: end; visibility: inherit; font-family: Roboto, sans-serif; font-size: 12px; font-weight: 200;" fill="rgb(33, 33, 33)" stroke="none" stroke-width="1px">0.1</text><text x="0" y="29.500000000000014" dx="0em" dy="0.3em" style="text-anchor: end; visibility: hidden; font-family: Roboto, sans-serif; font-size: 12px; font-weight: 200;" fill="rgb(33, 33, 33)" stroke="none" stroke-width="1px">0.11</text><text x="0" y="14.750000000000007" dx="0em" dy="0.3em" style="text-anchor: end; visibility: inherit; font-family: Roboto, sans-serif; font-size: 12px; font-weight: 200;" fill="rgb(33, 33, 33)" stroke="none" stroke-width="1px">0.12</text><text x="0" y="0" dx="0em" dy="0.3em" style="text-anchor: end; visibility: hidden; font-family: Roboto, sans-serif; font-size: 12px; font-weight: 200;" fill="rgb(33, 33, 33)" stroke="none" stroke-width="1px">0.13</text></g><line x1="51.5625" y1="0" x2="51.5625" y2="177" fill="rgb(0, 0, 0)" stroke="rgb(204, 204, 204)" stroke-width="1px"></line></g></g><g transform="translate(51, 0)" clip-path="url(#clip_0)"><clipPath id="clip_0"><rect width="278" height="177"></rect></clipPath><g><g><g><line x1="0" y1="0" x2="0" y2="177" fill="rgb(0, 0, 0)" stroke="rgb(66, 66, 66)" stroke-width="1px" opacity="0.25"></line><line x1="23.203125" y1="0" x2="23.203125" y2="177" fill="rgb(0, 0, 0)" stroke="rgb(66, 66, 66)" stroke-width="1px" opacity="0.25"></line><line x1="46.40625" y1="0" x2="46.40625" y2="177" fill="rgb(0, 0, 0)" stroke="rgb(66, 66, 66)" stroke-width="1px" opacity="0.25"></line><line x1="69.609375" y1="0" x2="69.609375" y2="177" fill="rgb(0, 0, 0)" stroke="rgb(66, 66, 66)" stroke-width="1px" opacity="0.25"></line><line x1="92.8125" y1="0" x2="92.8125" y2="177" fill="rgb(0, 0, 0)" stroke="rgb(66, 66, 66)" stroke-width="1px" opacity="0.25"></line><line x1="116.015625" y1="0" x2="116.015625" y2="177" fill="rgb(0, 0, 0)" stroke="rgb(66, 66, 66)" stroke-width="1px" opacity="0.25"></line><line x1="139.21875" y1="0" x2="139.21875" y2="177" fill="rgb(0, 0, 0)" stroke="rgb(66, 66, 66)" stroke-width="1px" opacity="0.25"></line><line x1="162.421875" y1="0" x2="162.421875" y2="177" fill="rgb(0, 0, 0)" stroke="rgb(66, 66, 66)" stroke-width="1px" opacity="0.25"></line><line x1="185.625" y1="0" x2="185.625" y2="177" fill="rgb(0, 0, 0)" stroke="rgb(66, 66, 66)" stroke-width="1px" opacity="0.25"></line><line x1="208.828125" y1="0" x2="208.828125" y2="177" fill="rgb(0, 0, 0)" stroke="rgb(66, 66, 66)" stroke-width="1px" opacity="0.25"></line><line x1="232.03125" y1="0" x2="232.03125" y2="177" fill="rgb(0, 0, 0)" stroke="rgb(66, 66, 66)" stroke-width="1px" opacity="0.25"></line><line x1="255.234375" y1="0" x2="255.234375" y2="177" fill="rgb(0, 0, 0)" stroke="rgb(66, 66, 66)" stroke-width="1px" opacity="0.25"></line><line x1="278.4375" y1="0" x2="278.4375" y2="177" fill="rgb(0, 0, 0)" stroke="rgb(66, 66, 66)" stroke-width="1px" opacity="0.25"></line></g><g><line x1="0" y1="177" x2="278.4375" y2="177" fill="rgb(0, 0, 0)" stroke="rgb(66, 66, 66)" stroke-width="1px" opacity="0.25"></line><line x1="0" y1="162.25" x2="278.4375" y2="162.25" fill="rgb(0, 0, 0)" stroke="rgb(66, 66, 66)" stroke-width="1px" opacity="0.25"></line><line x1="0" y1="147.5" x2="278.4375" y2="147.5" fill="rgb(0, 0, 0)" stroke="rgb(66, 66, 66)" stroke-width="1px" opacity="0.25"></line><line x1="0" y1="132.75" x2="278.4375" y2="132.75" fill="rgb(0, 0, 0)" stroke="rgb(66, 66, 66)" stroke-width="1px" opacity="0.25"></line><line x1="0" y1="118.00000000000001" x2="278.4375" y2="118.00000000000001" fill="rgb(0, 0, 0)" stroke="rgb(66, 66, 66)" stroke-width="1px" opacity="0.25"></line><line x1="0" y1="103.25000000000003" x2="278.4375" y2="103.25000000000003" fill="rgb(0, 0, 0)" stroke="rgb(66, 66, 66)" stroke-width="1px" opacity="0.25"></line><line x1="0" y1="88.5" x2="278.4375" y2="88.5" fill="rgb(0, 0, 0)" stroke="rgb(66, 66, 66)" stroke-width="1px" opacity="0.25"></line><line x1="0" y1="73.75" x2="278.4375" y2="73.75" fill="rgb(0, 0, 0)" stroke="rgb(66, 66, 66)" stroke-width="1px" opacity="0.25"></line><line x1="0" y1="59.00000000000001" x2="278.4375" y2="59.00000000000001" fill="rgb(0, 0, 0)" stroke="rgb(66, 66, 66)" stroke-width="1px" opacity="0.25"></line><line x1="0" y1="44.25" x2="278.4375" y2="44.25" fill="rgb(0, 0, 0)" stroke="rgb(66, 66, 66)" stroke-width="1px" opacity="0.25"></line><line x1="0" y1="29.500000000000014" x2="278.4375" y2="29.500000000000014" fill="rgb(0, 0, 0)" stroke="rgb(66, 66, 66)" stroke-width="1px" opacity="0.25"></line><line x1="0" y1="14.750000000000007" x2="278.4375" y2="14.750000000000007" fill="rgb(0, 0, 0)" stroke="rgb(66, 66, 66)" stroke-width="1px" opacity="0.25"></line><line x1="0" y1="0" x2="278.4375" y2="0" fill="rgb(0, 0, 0)" stroke="rgb(66, 66, 66)" stroke-width="1px" opacity="0.25"></line></g></g></g><g><g><line x1="0" y1="191.75" x2="278.4375" y2="191.75" fill="rgb(0, 0, 0)" stroke="rgb(153, 153, 153)" stroke-width="1.5px"></line></g></g><g><g><line x1="23.203125" y1="0" x2="23.203125" y2="177" fill="rgb(0, 0, 0)" stroke="rgb(153, 153, 153)" stroke-width="1.5px"></line></g></g><g><g><g><g><g><path stroke="rgb(255, 112, 67)" stroke-width="2px" d="M34.340625,-3.007911243770808L34.8046875,4.766271095073639L35.268750000000004,11.872657325749941L35.7328125,18.481446353167218L36.196875,24.688681560083378L36.660937499999996,30.443044277770156L37.125,35.69722390054345L37.589062500000004,40.76332435730567L38.053124999999994,45.14640937453575L38.5171875,49.59900396657191L38.98125,51.86515547348605L39.4453125,53.494278668541L39.909375000000004,57.27818143152706L40.373437499999994,60.89438760680493L40.8375,64.29895172173667L41.3015625,66.85941002179148L41.765625,69.93510251452861L42.229687500000004,72.83081540423085L42.693749999999994,75.63810710387705L43.1578125,78.2513623963039L43.621875,80.78939151824862L44.0859375,83.26243953053766L44.550000000000004,85.64901815253735L45.014062499999994,87.94007734275257L45.478125,90.02495905346866L45.9421875,92.06072568404798L46.40625,94.0861493966035L46.8703125,96.03430972137629L47.334375,97.87943252335818L47.7984375,99.62220626624219L48.2625,101.21142732205678L48.7265625,102.82209679253961L49.190625,93.03909141150133L49.6546875,94.51538906505911L50.11875,96.05150867579651L50.5828125,97.66332123443682L51.04687499999999,99.17040308681261L51.5109375,100.7057235745272L51.975,102.10737393478382L52.4390625,103.54797854189586L52.903125,104.88245152029285L53.36718750000001,106.19469840073823L53.83125,107.4978264536685L54.2953125,108.6254769474137L54.759375,109.82276002251432L55.2234375,110.97823335109209L55.6875,112.11240857091009L56.1515625,113.21577325958125L56.615625,114.33175979357523L57.0796875,115.35989511476939L57.54375,116.416992111655L58.0078125,117.36583472446681L58.471875,118.27230271653352L58.9359375,119.16975450555799L59.400000000000006,120.06670634056192L59.864062499999996,120.98730209928087L60.328125,121.86867907650101L60.7921875,122.7050264967562L61.25625,123.54027002874713L61.720312500000006,124.39025859209666L62.184374999999996,92.03867580610007L62.6484375,80.640769999699L63.1125,72.51741845518363L63.5765625,67.49921906769355L64.040625,66.25694935897307L64.5046875,64.82260317043634L64.96875,65.83927107897637L65.4328125,66.98957393152298L65.896875,68.15399862730885L66.3609375,69.37614262729475L66.825,70.64061308947878L67.2890625,71.32460356780227L67.753125,72.1074414284939L68.2171875,73.3586107652416L68.68125,74.24603071975667L69.1453125,75.44187739479419L69.609375,76.42901597181161L70.0734375,77.52630756043793L70.53750000000001,78.52872008789383L71.0015625,79.66140439312142L71.465625,80.78160562842464L71.92968750000001,81.8601683010468L72.39375,82.92078442186518L72.8578125,83.97075366989193L73.32187499999999,83.80467903708991L73.7859375,84.68867021449391L74.25,85.69601131707695L74.7140625,86.63472912777878L75.17812500000001,87.50608422640393L75.6421875,88.35813227754824L76.10624999999999,89.1412958269467L76.5703125,90.03195249164033L77.034375,90.77992115181497L77.4984375,91.64363521705849L77.9625,92.5226060230545L78.4265625,93.35038550610889L78.890625,94.16190192242013L79.3546875,94.94174984456096L79.81875000000001,95.77867746412088L80.2828125,96.58734859543378L80.74687499999999,97.29201850553731L81.2109375,96.75217358751566L81.675,97.49927257482148L82.1390625,98.24737742368798L82.603125,98.99463481238496L83.0671875,99.63755353500068L83.53125,100.27149969285348L83.99531250000001,100.96926525942445L84.45937500000001,101.56964483416014L84.92343749999999,102.28967741989199L85.38749999999999,102.99681882430279L85.8515625,103.69477529643879L86.315625,104.38365720473055L86.7796875,105.04211477614956L87.24375,105.68323553033429L87.7078125,106.26693734272337L88.171875,106.91053137734097L88.63593750000001,107.54425810519572L89.10000000000001,108.1733927837447L89.56406249999999,108.69608208645346L90.02812499999999,109.24734845582113L90.4921875,109.80217580435837L90.95625,110.37014538948293L91.4203125,110.93792353483819L91.884375,111.42345192896789L92.3484375,104.26407295696566L92.8125,101.95701784844302L93.27656250000001,101.74630058362538L93.740625,102.07970478642255L94.20468749999999,102.62880530557096L94.66875,103.18130560795322L95.1328125,103.69970043744682L95.596875,104.2124830367539L96.0609375,104.68244662335924L96.525,105.21229876037872L96.9890625,105.74380718086121L97.453125,106.30365627934957L97.91718750000001,106.82078386117601L98.38125,107.36016069615441L98.84531249999999,107.88799480404973L99.309375,108.42908152624564L99.7734375,108.92446774499864L100.2375,109.43077997141384L100.70156250000001,109.94843533215435L101.165625,110.4715634226054L101.6296875,110.98675536134174L102.09374999999999,111.49734826062875L102.5578125,111.99700259786964L103.021875,112.49505920071937L103.48593749999999,112.98258060438515L103.95,113.43789415774641L104.4140625,113.88644352975184L104.878125,114.35351731514453L105.34218750000001,114.80564773689356L105.80625,115.26194966809454L106.2703125,115.63624335060672L106.73437500000001,116.06723765628021L107.1984375,116.51951185211412L107.6625,116.96811842785883L108.12656249999999,117.39455963171602L108.590625,117.83252737933027L109.0546875,115.90252677530945L109.51875,116.08019575562905L109.98281250000001,116.37972891826486L110.446875,116.74905309676451L110.91093749999999,117.13468076622655L111.375,117.46932942963548L111.8390625,117.86180802323369L112.303125,118.27508436727207L112.7671875,118.65173216733976L113.23125,119.03427344092665L113.6953125,119.4181333735686L114.159375,119.8033259001816L114.62343750000001,120.16320950752859L115.0875,120.53715695109985L115.55156249999999,120.9035769241152L116.015625,121.2765521161763L116.4796875,121.64057386617635L116.94375,121.99932919271174L117.4078125,122.36082172466216L117.871875,122.57934350730719L118.3359375,122.93632617608162L118.80000000000001,123.29953968763039L119.26406250000001,123.61257453013616L119.72812499999999,123.95798791434L120.19218749999999,124.29309500404666L120.65625,124.6247785623277L121.1203125,124.97447859744604L121.584375,125.32147783054373L122.0484375,125.65533852853324L122.5125,125.98667669149363L122.9765625,126.32232275517806L123.44062500000001,126.65414950413069L123.90468750000001,126.97458903533067L124.36874999999999,127.30188213447788L124.83281249999999,127.61347015292716L125.296875,127.92420804347597L125.7609375,128.21400821716773L126.225,128.53078384736287L126.6890625,128.83197397088708L127.153125,129.14292767520158L127.6171875,129.44916102279961L128.08125,129.75528100832435L128.5453125,130.05167504920772L129.009375,130.35269826189298L129.47343750000002,130.65004232351072L129.9375,130.94554560658995L130.4015625,131.21700530504927L130.865625,131.49509286269713L131.3296875,131.77002595782363L131.79375,132.05511806503802L132.2578125,132.33802859033892L132.721875,132.60017922811082L133.1859375,132.86874343216903L133.65,133.13584891905376L134.11406250000002,133.4013282644591L134.578125,133.6730613574714L135.04218749999998,133.94240311616923L135.50625,134.1956348479204L135.9703125,134.43679354243685L136.434375,134.68129333589434L136.8984375,134.93375600999337L137.3625,135.17901636630916L137.8265625,135.4181174701285L138.290625,134.3617165087828L138.75468750000002,134.34921476573712L139.21875,134.55790101443455L139.6828125,134.8021279221615L140.146875,135.03843939679075L140.6109375,135.241861428169L141.07500000000002,135.4404958709103L141.5390625,135.66705740379578L142.003125,135.84274863971478L142.46718750000002,136.06336614116927L142.93125,136.30542376869766L143.39531250000002,136.54507479233635L143.85937500000003,136.78302694026738L144.32343749999998,136.9558615482738L144.7875,137.16334197031875L145.25156249999998,137.3848151625097L145.715625,137.60093242262278L146.1796875,137.81024595962518L146.64374999999998,138.004493764252L147.1078125,138.21272547955695L147.571875,138.41668402538525L148.0359375,138.63409587300245L148.5,138.85604099108465L148.9640625,139.0121428119594L149.428125,139.2075630252112L149.8921875,139.3962339726757L150.35625000000002,139.60287536344322L150.8203125,139.79171380098154L151.284375,140.00200664589494L151.74843750000002,140.19705230803876L152.21249999999998,140.3895152193275L152.6765625,140.59374532542614L153.140625,140.78308818425623L153.60468749999998,140.95428913879607L154.06875,141.1557553407546L154.5328125,141.33953401819258L154.996875,141.53342356302358L155.4609375,141.723629489061L155.925,141.9233135089025L156.3890625,142.11802231243567L156.853125,141.91262539254075L157.3171875,142.04773685056776L157.78125,142.23110432827835L158.2453125,142.40499484084233L158.709375,142.59700100772525L159.1734375,142.78838434148838L159.63750000000002,142.97869400351948L160.1015625,143.15863891619017L160.565625,143.33243649222962L161.02968750000002,143.51940005693376L161.49374999999998,143.68749636103638L161.9578125,143.87202974397002L162.421875,144.03901634566597L162.88593749999998,144.22116525285162L163.35,144.39287968873515L163.8140625,144.5596340349467L164.278125,144.71990785620005L164.7421875,144.8872242130387L165.20625,145.03486424449326L165.6703125,145.20905753055672L166.134375,145.38357696654234L166.59843750000002,145.55663916869815L167.0625,145.72118416445196L167.5265625,145.8786285492392L167.99062500000002,146.04438244955927L168.4546875,146.19952063537025L168.91875000000002,146.36252089748547L169.38281249999997,146.5133777221042L169.84687499999998,146.5743551118911L170.3109375,146.71934128810082L170.77499999999998,146.86981836839217L171.2390625,147.02467475022047L171.703125,147.18055951985113L172.16718749999998,147.33842158836094L172.63125,147.4931211744537L173.0953125,147.65235330041094L173.559375,147.80378873726053L174.0234375,147.96123428401697L174.4875,148.1127792422306L174.9515625,148.2612313377892L175.415625,148.41188595194913L175.87968750000002,148.56120534086799L176.34375,148.71393103099305L176.8078125,148.85652640004878L177.27187500000002,149.00737451789132L177.7359375,149.15456811320985L178.20000000000002,149.29857837853768L178.66406250000003,149.43131193189228L179.12812499999998,149.57893068192683L179.5921875,149.71699178309197L180.05624999999998,149.86282968508385L180.5203125,150.00780584668294L180.984375,150.14223730109123L181.44843749999998,150.27747670756236L181.9125,150.42007408915038L182.3765625,150.55424522151154L182.840625,150.68877770518677L183.3046875,150.82893179655417L183.76875,150.95825068129568L184.2328125,151.0873283041854L184.696875,151.225196013207L185.16093750000002,151.34087407533696L185.625,151.46728303580187L186.0890625,151.58513953229436L186.55312500000002,151.7176476097859L187.01718749999998,151.84335928157225L187.48125,151.97676236981386L187.9453125,152.09450714910153L188.40937499999998,152.2264121262331L188.8734375,152.35756467369336L189.3375,152.48421893369328L189.8015625,152.6138502226361L190.265625,152.72608013163315L190.7296875,152.85433554224332L191.19375,152.98194307043707L191.6578125,153.09809308860457L192.121875,153.2243111345634L192.5859375,153.3443086571895L193.05,153.46914603002034L193.5140625,153.58877141426885L193.978125,153.69659856498825L194.44218750000002,153.81947085561828L194.90625,153.94169956457603L195.3703125,154.06003068392275L195.83437500000002,154.1686214563203L196.29843749999998,154.27160769352247L196.7625,154.3880137253598L197.2265625,154.5020577109769L197.69062499999998,154.6173742793412L198.1546875,154.718919951357L198.61875,154.83614093860888L199.0828125,154.94654228042543L199.546875,155.0565720533313L200.0109375,155.16085888940077L200.475,155.2720590756958L200.9390625,155.37308025219914L201.40312500000002,155.48673835663567L201.8671875,155.59288927599061L202.33125,155.70200802716124L202.79531250000002,155.81397744131846L203.259375,155.92535744998565L203.72343750000002,156.03224639832922L204.18749999999997,156.13717752782446L204.65156249999998,156.2425582592313L205.115625,156.34998755819183L205.57968749999998,156.45449583326575L206.04375,156.55865600955715L206.5078125,156.65478260102907L206.97187499999998,156.7617232687622L207.4359375,156.86817389972538L207.9,156.97406104984177L208.3640625,157.0747584002718L208.828125,157.17361822333214L209.2921875,157.27377520195617L209.75625,157.37329776512965L210.2203125,157.4691940971243L210.68437500000002,157.5720281414612L211.1484375,157.66214211550354L211.6125,157.76126370344122L212.07656250000002,157.8531771637408L212.540625,157.94504483095525L213.00468750000002,158.04120143718234L213.46875000000003,158.1299951628864L213.93281249999998,158.22597507100477L214.396875,158.31569265969688L214.86093749999998,158.40897417174506L215.325,158.5021332655222L215.7890625,158.5865754450931L216.25312499999998,158.68370568993151L216.7171875,158.77337079654242L217.18125,158.86521729270976L217.6453125,158.9609910538102L218.109375,159.05631292034585L218.5734375,159.14243349693547L219.0375,159.2368001916872L219.5015625,159.32621825454157L219.96562500000002,159.4068445552428L220.4296875,159.49620891672018L220.89375,159.57999825927L221.35781250000002,159.6722605932207L221.82187499999998,159.76407105453762L222.2859375,159.8426196949487L222.75,159.92878371073363L223.21406249999998,160.0141308870441L223.678125,160.10430379625998L224.1421875,160.194085232144L224.60625,160.27301333589784L225.0703125,160.3521328470997L225.534375,160.44070844463127L225.9984375,160.52886105752495L226.4625,160.61660762731452L226.9265625,160.6955420035901L227.390625,160.77453032004735L227.8546875,160.8559372818362L228.31875,160.9337435574052L228.7828125,161.0115433262811L229.24687500000002,161.08789730152975L229.7109375,161.17299267446128L230.175,161.25328347603605L230.63906250000002,161.33448754235613L231.10312499999998,161.41523904570062L231.5671875,161.49199410983894L232.03125,161.5752665281718L232.49531249999998,161.65364626831655L232.959375,161.72781854608195L233.4234375,161.8069368468005L233.8875,161.87924856619716L234.3515625,161.9478333336194L234.815625,162.01915039099413L235.2796875,162.0924243753739L235.74375,162.16297273671663L236.20781250000002,162.24312016924307L236.671875,162.3148209840302L237.1359375,162.3902429060325L237.60000000000002,162.46056621362519L238.0640625,162.53531240792043L238.52812500000002,162.61378166604135L238.99218749999997,162.68818245144845L239.45624999999998,162.7613216804227L239.9203125,162.8316857856849L240.38437499999998,162.90504166634375L240.8484375,162.97890888327834L241.3125,163.05121148503255L241.77656249999998,163.1196973548912L242.240625,163.19264830122486L242.7046875,163.26537056847488L243.16875,163.3231099114138L243.6328125,163.38513645227135L244.096875,163.44883785343166L244.5609375,163.50696093290844L245.025,163.58104695753931L245.48906250000002,163.65066678280408L245.953125,163.72413127467348L246.4171875,163.7931896517635L246.88125000000002,163.85684003201942L247.3453125,163.92462662675555L247.80937500000002,163.99692849848284L248.27343750000003,164.06488243809514L248.73749999999998,164.1365584841551L249.2015625,164.20795584581145L249.66562499999998,164.27515753121693L250.1296875,164.3459748952493L250.59375,164.40908827232607L251.05781249999998,164.47934363358058L251.521875,164.54929835249402L251.9859375,164.61897268782224L252.45,164.68377105098557L252.9140625,164.7455451733327L253.378125,164.8143765817021L253.8421875,164.87979804322364L254.30625,164.9394777519717L254.77031250000002,165.00461252493895L255.234375,165.06130835888524" style="fill: none;" fill="none"></path></g></g></g></g><g opacity="0.2"><g><g><g><path stroke="rgb(255, 112, 67)" stroke-width="2px" d="M25.523437499999996,-131.2616099119186L25.9875,17.618027471005924L26.4515625,109.94723844528198L26.915625,145.46504183858633L27.3796875,170.53445223905146L27.84375,179.81158259976655L28.3078125,171.75333695672452L28.771875,133.1706175133586L29.2359375,128.64803732559085L29.700000000000003,182.71398091642186L30.1640625,188.88595025823452L30.628125,174.45817855373025L31.092187499999998,186.78256398020312L31.55625,184.1229404923506L32.0203125,141.60509645193815L32.484375,186.31761056208052L38.5171875,189.7551731748972L38.98125,125.39030038937928L39.4453125,107.92571683600545L39.909375000000004,187.35771498945542L40.8375,187.902886695927L41.3015625,162.28271671757102L41.765625,187.51817835331894L49.190625,-430.22800502181053L49.6546875,174.8745060544461L50.11875,181.11787452548742L64.5046875,-55.94240841269492L64.96875,152.3678443878889L65.4328125,165.94306337833405L65.896875,169.38539548031986L66.3609375,176.74014559201896L66.825,182.87507274840027L67.2890625,132.65822711586952L67.753125,143.01659600064158L68.2171875,187.82563937897794L68.68125,156.23968602344394L69.1453125,187.01694927481003L69.609375,169.42522181384265L70.0734375,181.8926129275933L70.53750000000001,174.77689499687403L71.0015625,189.44061887345742L72.8578125,189.51621276978403L73.32187499999999,66.96123923361301L73.7859375,175.1373087540269L74.25,189.6688915429404L75.6421875,178.5898804217577L76.10624999999999,172.77763008791953L76.5703125,185.9424422280863L77.034375,171.99170838762075L77.4984375,186.19171981303953L80.74687499999999,178.80468464177102L81.2109375,33.828773863613605L81.675,185.23912321729586L82.603125,188.06993283401243L83.0671875,176.84101094678044L83.53125,176.95469292998314L83.99531250000001,185.98482639249414L84.45937500000001,175.24635312333703L84.92343749999999,191.28078231410473L92.8125,-217.23932293057436L93.27656250000001,72.41082019358873L93.740625,148.78197978436947L94.20468749999999,180.01681762002409L95.596875,177.80067557655275L96.0609375,172.52783633489162L96.525,182.15621512103826L105.80625,189.2431449192809L106.2703125,176.63450250588357L106.73437500000001,186.66626406670548L109.0546875,-208.28477185964576L109.51875,146.0713713914156L109.98281250000001,167.1906969062984L110.446875,179.7052457947284L110.91093749999999,183.18952591111884L111.375,175.06888196989894L111.8390625,185.7395507413894L117.4078125,188.4433418007102L117.871875,162.70450055785477L118.3359375,188.77686605160125L138.290625,-96.71213370561597L138.75468750000002,131.604867849499L139.21875,180.53077747067437L141.5390625,186.45815732493065L142.003125,175.36575382295996L142.46718750000002,185.86362477112561L143.85937500000003,191.047707615915L144.32343749999998,176.5038182279095L144.7875,184.79873946821317L148.5,191.17374848469626L148.9640625,175.92817852459848L149.428125,185.57089393911883L156.3890625,190.5218585995026L156.853125,90.69763510674238L157.3171875,175.83858438488096L157.78125,188.22791838506237L169.38281249999997,187.14306325023063L169.84687499999998,163.04165343940258L170.3109375,185.9793872241862" style="fill: none;" fill="none"></path></g></g></g></g></g></g><g transform="translate(51, 177)" clip-path="url(#clip_1)"><clipPath id="clip_1"><rect width="278" height="23"></rect></clipPath><g><g><line x1="0" y1="0" x2="0" y2="5" style="visibility: inherit;" fill="rgb(0, 0, 0)" stroke="rgb(204, 204, 204)" stroke-width="1px"></line><line x1="23.203125" y1="0" x2="23.203125" y2="5" style="visibility: inherit;" fill="rgb(0, 0, 0)" stroke="rgb(204, 204, 204)" stroke-width="1px"></line><line x1="46.40625" y1="0" x2="46.40625" y2="5" style="visibility: inherit;" fill="rgb(0, 0, 0)" stroke="rgb(204, 204, 204)" stroke-width="1px"></line><line x1="69.609375" y1="0" x2="69.609375" y2="5" style="visibility: inherit;" fill="rgb(0, 0, 0)" stroke="rgb(204, 204, 204)" stroke-width="1px"></line><line x1="92.8125" y1="0" x2="92.8125" y2="5" style="visibility: inherit;" fill="rgb(0, 0, 0)" stroke="rgb(204, 204, 204)" stroke-width="1px"></line><line x1="116.015625" y1="0" x2="116.015625" y2="5" style="visibility: inherit;" fill="rgb(0, 0, 0)" stroke="rgb(204, 204, 204)" stroke-width="1px"></line><line x1="139.21875" y1="0" x2="139.21875" y2="5" style="visibility: inherit;" fill="rgb(0, 0, 0)" stroke="rgb(204, 204, 204)" stroke-width="1px"></line><line x1="162.421875" y1="0" x2="162.421875" y2="5" style="visibility: inherit;" fill="rgb(0, 0, 0)" stroke="rgb(204, 204, 204)" stroke-width="1px"></line><line x1="185.625" y1="0" x2="185.625" y2="5" style="visibility: inherit;" fill="rgb(0, 0, 0)" stroke="rgb(204, 204, 204)" stroke-width="1px"></line><line x1="208.828125" y1="0" x2="208.828125" y2="5" style="visibility: inherit;" fill="rgb(0, 0, 0)" stroke="rgb(204, 204, 204)" stroke-width="1px"></line><line x1="232.03125" y1="0" x2="232.03125" y2="5" style="visibility: inherit;" fill="rgb(0, 0, 0)" stroke="rgb(204, 204, 204)" stroke-width="1px"></line><line x1="255.234375" y1="0" x2="255.234375" y2="5" style="visibility: inherit;" fill="rgb(0, 0, 0)" stroke="rgb(204, 204, 204)" stroke-width="1px"></line><line x1="278.4375" y1="0" x2="278.4375" y2="5" style="visibility: inherit;" fill="rgb(0, 0, 0)" stroke="rgb(204, 204, 204)" stroke-width="1px"></line></g><g transform="translate(0, 8)"><text x="0" y="0" dx="0em" dy="0.95em" style="text-anchor: middle; visibility: hidden; font-family: Roboto, sans-serif; font-size: 12px; font-weight: 200;" fill="rgb(33, 33, 33)" stroke="none" stroke-width="1px">-5k</text><text x="23.203125" y="0" dx="0em" dy="0.95em" style="text-anchor: middle; visibility: inherit; font-family: Roboto, sans-serif; font-size: 12px; font-weight: 200;" fill="rgb(33, 33, 33)" stroke="none" stroke-width="1px">0</text><text x="46.40625" y="0" dx="0em" dy="0.95em" style="text-anchor: middle; visibility: hidden; font-family: Roboto, sans-serif; font-size: 12px; font-weight: 200;" fill="rgb(33, 33, 33)" stroke="none" stroke-width="1px">5k</text><text x="69.609375" y="0" dx="0em" dy="0.95em" style="text-anchor: middle; visibility: inherit; font-family: Roboto, sans-serif; font-size: 12px; font-weight: 200;" fill="rgb(33, 33, 33)" stroke="none" stroke-width="1px">10k</text><text x="92.8125" y="0" dx="0em" dy="0.95em" style="text-anchor: middle; visibility: hidden; font-family: Roboto, sans-serif; font-size: 12px; font-weight: 200;" fill="rgb(33, 33, 33)" stroke="none" stroke-width="1px">15k</text><text x="116.015625" y="0" dx="0em" dy="0.95em" style="text-anchor: middle; visibility: inherit; font-family: Roboto, sans-serif; font-size: 12px; font-weight: 200;" fill="rgb(33, 33, 33)" stroke="none" stroke-width="1px">20k</text><text x="139.21875" y="0" dx="0em" dy="0.95em" style="text-anchor: middle; visibility: hidden; font-family: Roboto, sans-serif; font-size: 12px; font-weight: 200;" fill="rgb(33, 33, 33)" stroke="none" stroke-width="1px">25k</text><text x="162.421875" y="0" dx="0em" dy="0.95em" style="text-anchor: middle; visibility: inherit; font-family: Roboto, sans-serif; font-size: 12px; font-weight: 200;" fill="rgb(33, 33, 33)" stroke="none" stroke-width="1px">30k</text><text x="185.625" y="0" dx="0em" dy="0.95em" style="text-anchor: middle; visibility: hidden; font-family: Roboto, sans-serif; font-size: 12px; font-weight: 200;" fill="rgb(33, 33, 33)" stroke="none" stroke-width="1px">35k</text><text x="208.828125" y="0" dx="0em" dy="0.95em" style="text-anchor: middle; visibility: inherit; font-family: Roboto, sans-serif; font-size: 12px; font-weight: 200;" fill="rgb(33, 33, 33)" stroke="none" stroke-width="1px">40k</text><text x="232.03125" y="0" dx="0em" dy="0.95em" style="text-anchor: middle; visibility: hidden; font-family: Roboto, sans-serif; font-size: 12px; font-weight: 200;" fill="rgb(33, 33, 33)" stroke="none" stroke-width="1px">45k</text><text x="255.234375" y="0" dx="0em" dy="0.95em" style="text-anchor: middle; visibility: inherit; font-family: Roboto, sans-serif; font-size: 12px; font-weight: 200;" fill="rgb(33, 33, 33)" stroke="none" stroke-width="1px">50k</text><text x="278.4375" y="0" dx="0em" dy="0.95em" style="text-anchor: middle; visibility: hidden; font-family: Roboto, sans-serif; font-size: 12px; font-weight: 200;" fill="rgb(33, 33, 33)" stroke="none" stroke-width="1px">55k</text></g><line x1="0" y1="0" x2="278.4375" y2="0" fill="rgb(0, 0, 0)" stroke="rgb(204, 204, 204)" stroke-width="1px"></line></g></g></g></g></svg>