<svg viewBox="0 0 330 200" xmlns="http://www.w3.org/2000/svg"><g><g><g><g><g><line x1="51.5625" y1="177" x2="46.5625" y2="177" style="visibility: inherit;" fill="rgb(0, 0, 0)" stroke="rgb(204, 204, 204)" stroke-width="1px"></line><line x1="51.5625" y1="163.3846153846154" x2="46.5625" y2="163.3846153846154" style="visibility: inherit;" fill="rgb(0, 0, 0)" stroke="rgb(204, 204, 204)" stroke-width="1px"></line><line x1="51.5625" y1="149.76923076923077" x2="46.5625" y2="149.76923076923077" style="visibility: inherit;" fill="rgb(0, 0, 0)" stroke="rgb(204, 204, 204)" stroke-width="1px"></line><line x1="51.5625" y1="136.15384615384613" x2="46.5625" y2="136.15384615384613" style="visibility: inherit;" fill="rgb(0, 0, 0)" stroke="rgb(204, 204, 204)" stroke-width="1px"></line><line x1="51.5625" y1="122.53846153846153" x2="46.5625" y2="122.53846153846153" style="visibility: inherit;" fill="rgb(0, 0, 0)" stroke="rgb(204, 204, 204)" stroke-width="1px"></line><line x1="51.5625" y1="108.92307692307693" x2="46.5625" y2="108.92307692307693" style="visibility: inherit;" fill="rgb(0, 0, 0)" stroke="rgb(204, 204, 204)" stroke-width="1px"></line><line x1="51.5625" y1="95.30769230769232" x2="46.5625" y2="95.30769230769232" style="visibility: inherit;" fill="rgb(0, 0, 0)" stroke="rgb(204, 204, 204)" stroke-width="1px"></line><line x1="51.5625" y1="81.6923076923077" x2="46.5625" y2="81.6923076923077" style="visibility: inherit;" fill="rgb(0, 0, 0)" stroke="rgb(204, 204, 204)" stroke-width="1px"></line><line x1="51.5625" y1="68.0769230769231" x2="46.5625" y2="68.0769230769231" style="visibility: inherit;" fill="rgb(0, 0, 0)" stroke="rgb(204, 204, 204)" stroke-width="1px"></line><line x1="51.5625" y1="54.46153846153847" x2="46.5625" y2="54.46153846153847" style="visibility: inherit;" fill="rgb(0, 0, 0)" stroke="rgb(204, 204, 204)" stroke-width="1px"></line><line x1="51.5625" y1="40.84615384615386" x2="46.5625" y2="40.84615384615386" style="visibility: inherit;" fill="rgb(0, 0, 0)" stroke="rgb(204, 204, 204)" stroke-width="1px"></line><line x1="51.5625" y1="27.230769230769234" x2="46.5625" y2="27.230769230769234" style="visibility: inherit;" fill="rgb(0, 0, 0)" stroke="rgb(204, 204, 204)" stroke-width="1px"></line><line x1="51.5625" y1="13.615384615384606" x2="46.5625" y2="13.615384615384606" style="visibility: inherit;" fill="rgb(0, 0, 0)" stroke="rgb(204, 204, 204)" stroke-width="1px"></line><line x1="51.5625" y1="0" x2="46.5625" y2="0" style="visibility: inherit;" fill="rgb(0, 0, 0)" stroke="rgb(204, 204, 204)" stroke-width="1px"></line></g><g transform="translate(41.5625, 0)"><text x="0" y="177" dx="0em" dy="0.3em" style="text-anchor: end; visibility: hidden; font-family: Roboto, sans-serif; font-size: 12px; font-weight: 200;" fill="rgb(33, 33, 33)" stroke="none" stroke-width="1px">-0.1</text><text x="0" y="163.3846153846154" dx="0em" dy="0.3em" style="text-anchor: end; visibility: inherit; font-family: Roboto, sans-serif; font-size: 12px; font-weight: 200;" fill="rgb(33, 33, 33)" stroke="none" stroke-width="1px">0</text><text x="0" y="149.76923076923077" dx="0em" dy="0.3em" style="text-anchor: end; visibility: hidden; font-family: Roboto, sans-serif; font-size: 12px; font-weight: 200;" fill="rgb(33, 33, 33)" stroke="none" stroke-width="1px">0.1</text><text x="0" y="136.15384615384613" dx="0em" dy="0.3em" style="text-anchor: end; visibility: inherit; font-family: Roboto, sans-serif; font-size: 12px; font-weight: 200;" fill="rgb(33, 33, 33)" stroke="none" stroke-width="1px">0.2</text><text x="0" y="122.53846153846153" dx="0em" dy="0.3em" style="text-anchor: end; visibility: hidden; font-family: Roboto, sans-serif; font-size: 12px; font-weight: 200;" fill="rgb(33, 33, 33)" stroke="none" stroke-width="1px">0.3</text><text x="0" y="108.92307692307693" dx="0em" dy="0.3em" style="text-anchor: end; visibility: inherit; font-family: Roboto, sans-serif; font-size: 12px; font-weight: 200;" fill="rgb(33, 33, 33)" stroke="none" stroke-width="1px">0.4</text><text x="0" y="95.30769230769232" dx="0em" dy="0.3em" style="text-anchor: end; visibility: hidden; font-family: Roboto, sans-serif; font-size: 12px; font-weight: 200;" fill="rgb(33, 33, 33)" stroke="none" stroke-width="1px">0.5</text><text x="0" y="81.6923076923077" dx="0em" dy="0.3em" style="text-anchor: end; visibility: inherit; font-family: Roboto, sans-serif; font-size: 12px; font-weight: 200;" fill="rgb(33, 33, 33)" stroke="none" stroke-width="1px">0.6</text><text x="0" y="68.0769230769231" dx="0em" dy="0.3em" style="text-anchor: end; visibility: hidden; font-family: Roboto, sans-serif; font-size: 12px; font-weight: 200;" fill="rgb(33, 33, 33)" stroke="none" stroke-width="1px">0.7</text><text x="0" y="54.46153846153847" dx="0em" dy="0.3em" style="text-anchor: end; visibility: inherit; font-family: Roboto, sans-serif; font-size: 12px; font-weight: 200;" fill="rgb(33, 33, 33)" stroke="none" stroke-width="1px">0.8</text><text x="0" y="40.84615384615386" dx="0em" dy="0.3em" style="text-anchor: end; visibility: hidden; font-family: Roboto, sans-serif; font-size: 12px; font-weight: 200;" fill="rgb(33, 33, 33)" stroke="none" stroke-width="1px">0.9</text><text x="0" y="27.230769230769234" dx="0em" dy="0.3em" style="text-anchor: end; visibility: inherit; font-family: Roboto, sans-serif; font-size: 12px; font-weight: 200;" fill="rgb(33, 33, 33)" stroke="none" stroke-width="1px">1</text><text x="0" y="13.615384615384606" dx="0em" dy="0.3em" style="text-anchor: end; visibility: hidden; font-family: Roboto, sans-serif; font-size: 12px; font-weight: 200;" fill="rgb(33, 33, 33)" stroke="none" stroke-width="1px">1.1</text><text x="0" y="0" dx="0em" dy="0.3em" style="text-anchor: end; visibility: hidden; font-family: Roboto, sans-serif; font-size: 12px; font-weight: 200;" fill="rgb(33, 33, 33)" stroke="none" stroke-width="1px">1.2</text></g><line x1="51.5625" y1="0" x2="51.5625" y2="177" fill="rgb(0, 0, 0)" stroke="rgb(204, 204, 204)" stroke-width="1px"></line></g></g><g transform="translate(51, 0)" clip-path="url(#clip_0)"><clipPath id="clip_0"><rect width="278" height="177"></rect></clipPath><g><g><g><line x1="0" y1="0" x2="0" y2="177" fill="rgb(0, 0, 0)" stroke="rgb(66, 66, 66)" stroke-width="1px" opacity="0.25"></line><line x1="23.203125" y1="0" x2="23.203125" y2="177" fill="rgb(0, 0, 0)" stroke="rgb(66, 66, 66)" stroke-width="1px" opacity="0.25"></line><line x1="46.40625" y1="0" x2="46.40625" y2="177" fill="rgb(0, 0, 0)" stroke="rgb(66, 66, 66)" stroke-width="1px" opacity="0.25"></line><line x1="69.609375" y1="0" x2="69.609375" y2="177" fill="rgb(0, 0, 0)" stroke="rgb(66, 66, 66)" stroke-width="1px" opacity="0.25"></line><line x1="92.8125" y1="0" x2="92.8125" y2="177" fill="rgb(0, 0, 0)" stroke="rgb(66, 66, 66)" stroke-width="1px" opacity="0.25"></line><line x1="116.015625" y1="0" x2="116.015625" y2="177" fill="rgb(0, 0, 0)" stroke="rgb(66, 66, 66)" stroke-width="1px" opacity="0.25"></line><line x1="139.21875" y1="0" x2="139.21875" y2="177" fill="rgb(0, 0, 0)" stroke="rgb(66, 66, 66)" stroke-width="1px" opacity="0.25"></line><line x1="162.421875" y1="0" x2="162.421875" y2="177" fill="rgb(0, 0, 0)" stroke="rgb(66, 66, 66)" stroke-width="1px" opacity="0.25"></line><line x1="185.625" y1="0" x2="185.625" y2="177" fill="rgb(0, 0, 0)" stroke="rgb(66, 66, 66)" stroke-width="1px" opacity="0.25"></line><line x1="208.828125" y1="0" x2="208.828125" y2="177" fill="rgb(0, 0, 0)" stroke="rgb(66, 66, 66)" stroke-width="1px" opacity="0.25"></line><line x1="232.03125" y1="0" x2="232.03125" y2="177" fill="rgb(0, 0, 0)" stroke="rgb(66, 66, 66)" stroke-width="1px" opacity="0.25"></line><line x1="255.234375" y1="0" x2="255.234375" y2="177" fill="rgb(0, 0, 0)" stroke="rgb(66, 66, 66)" stroke-width="1px" opacity="0.25"></line><line x1="278.4375" y1="0" x2="278.4375" y2="177" fill="rgb(0, 0, 0)" stroke="rgb(66, 66, 66)" stroke-width="1px" opacity="0.25"></line></g><g><line x1="0" y1="177" x2="278.4375" y2="177" fill="rgb(0, 0, 0)" stroke="rgb(66, 66, 66)" stroke-width="1px" opacity="0.25"></line><line x1="0" y1="163.3846153846154" x2="278.4375" y2="163.3846153846154" fill="rgb(0, 0, 0)" stroke="rgb(66, 66, 66)" stroke-width="1px" opacity="0.25"></line><line x1="0" y1="149.76923076923077" x2="278.4375" y2="149.76923076923077" fill="rgb(0, 0, 0)" stroke="rgb(66, 66, 66)" stroke-width="1px" opacity="0.25"></line><line x1="0" y1="136.15384615384613" x2="278.4375" y2="136.15384615384613" fill="rgb(0, 0, 0)" stroke="rgb(66, 66, 66)" stroke-width="1px" opacity="0.25"></line><line x1="0" y1="122.53846153846153" x2="278.4375" y2="122.53846153846153" fill="rgb(0, 0, 0)" stroke="rgb(66, 66, 66)" stroke-width="1px" opacity="0.25"></line><line x1="0" y1="108.92307692307693" x2="278.4375" y2="108.92307692307693" fill="rgb(0, 0, 0)" stroke="rgb(66, 66, 66)" stroke-width="1px" opacity="0.25"></line><line x1="0" y1="95.30769230769232" x2="278.4375" y2="95.30769230769232" fill="rgb(0, 0, 0)" stroke="rgb(66, 66, 66)" stroke-width="1px" opacity="0.25"></line><line x1="0" y1="81.6923076923077" x2="278.4375" y2="81.6923076923077" fill="rgb(0, 0, 0)" stroke="rgb(66, 66, 66)" stroke-width="1px" opacity="0.25"></line><line x1="0" y1="68.0769230769231" x2="278.4375" y2="68.0769230769231" fill="rgb(0, 0, 0)" stroke="rgb(66, 66, 66)" stroke-width="1px" opacity="0.25"></line><line x1="0" y1="54.46153846153847" x2="278.4375" y2="54.46153846153847" fill="rgb(0, 0, 0)" stroke="rgb(66, 66, 66)" stroke-width="1px" opacity="0.25"></line><line x1="0" y1="40.84615384615386" x2="278.4375" y2="40.84615384615386" fill="rgb(0, 0, 0)" stroke="rgb(66, 66, 66)" stroke-width="1px" opacity="0.25"></line><line x1="0" y1="27.230769230769234" x2="278.4375" y2="27.230769230769234" fill="rgb(0, 0, 0)" stroke="rgb(66, 66, 66)" stroke-width="1px" opacity="0.25"></line><line x1="0" y1="13.615384615384606" x2="278.4375" y2="13.615384615384606" fill="rgb(0, 0, 0)" stroke="rgb(66, 66, 66)" stroke-width="1px" opacity="0.25"></line><line x1="0" y1="0" x2="278.4375" y2="0" fill="rgb(0, 0, 0)" stroke="rgb(66, 66, 66)" stroke-width="1px" opacity="0.25"></line></g></g></g><g><g><line x1="0" y1="163.3846153846154" x2="278.4375" y2="163.3846153846154" fill="rgb(0, 0, 0)" stroke="rgb(153, 153, 153)" stroke-width="1.5px"></line></g></g><g><g><line x1="23.203125" y1="0" x2="23.203125" y2="177" fill="rgb(0, 0, 0)" stroke="rgb(153, 153, 153)" stroke-width="1.5px"></line></g></g><g><g><g><g><g><path stroke="rgb(255, 112, 67)" stroke-width="2px" d="M38.5171875,-1.8696451194937804L38.98125,1.2823534954601283L39.4453125,3.9380810263778914L39.909375000000004,7.059831912451177L40.373437499999994,10.091910289129162L40.8375,13.05241784953418L41.3015625,15.861547843970406L41.765625,18.659053993682377L42.229687500000004,21.378986600622046L42.693749999999994,24.02323082916028L43.1578125,26.57941925789552L43.621875,29.068395138643396L44.0859375,31.491895534552594L44.550000000000004,33.84298199104553L45.014062499999994,36.122094127197805L45.478125,38.33115568104034L45.9421875,40.48456779323864L46.40625,42.58044821317312L46.8703125,44.62757396487568L47.334375,46.6124120578132L47.7984375,48.539153155150345L48.2625,50.4025889941549L48.7265625,52.22109700248539L49.190625,52.426992388863354L49.6546875,54.012482996106506L50.11875,55.61691242101092L50.5828125,57.19561030266148L51.04687499999999,58.74661744943985L51.5109375,60.271603997549555L51.975,61.75483513156959L52.4390625,63.20746394000008L52.903125,64.61848851700906L53.36718750000001,66.0048524451439L53.83125,67.35964534041612L54.2953125,68.66442734078687L54.759375,69.95467963276278L55.2234375,71.21431607711366L55.6875,72.45019240015412L56.1515625,73.64830077093802L56.615625,74.82847106122495L57.0796875,75.97654853395542L57.54375,77.10445715289639L58.0078125,78.19869760686393L58.471875,79.26310324772652L58.9359375,80.3049670968069L59.400000000000006,81.32949434839567L59.864062499999996,82.33608805523451L60.328125,83.3217945408492L60.7921875,84.2838760013402L61.25625,85.2270839550857L61.720312500000006,86.15489516446851L62.184374999999996,82.81088708144887L62.6484375,79.73799919079114L63.1125,77.27822173094063L63.5765625,75.43113751168381L64.040625,74.16559894856216L64.5046875,73.02653075007615L64.96875,72.3185572327803L65.4328125,71.74941196034017L65.896875,71.26699902452862L66.3609375,70.91432588155189L66.825,70.6643084809461L67.2890625,70.43286454385287L67.753125,70.27084793222585L68.2171875,70.24844155314365L68.68125,70.25316202973286L69.1453125,70.34951990497713L69.609375,70.47132827226446L70.0734375,70.64901256484795L70.53750000000001,70.85557723942787L71.0015625,71.11912592167683L71.465625,71.42031635248755L71.92968750000001,71.74904184171992L72.39375,72.10105486415536L72.8578125,72.47836646035564L73.32187499999999,72.41106868029162L73.7859375,72.55862034275705L74.25,72.77284575630394L74.7140625,73.01458995575071L75.17812500000001,73.27788877070213L75.6421875,73.56226056938898L76.10624999999999,73.86320489913959L76.5703125,74.20713149946606L77.034375,74.55514655897078L77.4984375,74.93664327395639L77.9625,75.34027852673309L78.4265625,75.75311134894145L78.890625,76.17633886932293L79.3546875,76.61651566276186L79.81875000000001,77.07306812954124L80.2828125,77.53528779583387L80.74687499999999,77.98559814528132L81.2109375,78.21390206052624L81.675,78.65459853475619L82.1390625,79.12775455336573L82.603125,79.61118960034534L83.0671875,80.07677357468091L83.53125,80.54767904813079L83.99531250000001,81.03759859131404L84.45937500000001,81.51146181951061L84.92343749999999,82.00905152040916L85.38749999999999,82.50688315003464L85.8515625,83.00518759228233L86.315625,83.50476608714054L86.7796875,84.0004525862911L87.24375,84.4936295424278L87.7078125,84.97344543589544L88.171875,85.46673672856711L88.63593750000001,85.96025246320663L89.10000000000001,86.45170705842852L89.56406249999999,86.92301741756665L90.02812499999999,87.39861510345398L90.4921875,87.871520766267L90.95625,88.34428141064065L91.4203125,88.82051860184139L91.884375,89.28093783710251L92.3484375,88.58766891009985L92.8125,88.52606501861922L93.27656250000001,88.71336308414365L93.740625,88.98950338847388L94.20468749999999,89.32267287615147L94.66875,89.66160134799026L95.1328125,90.00438092318606L95.596875,90.35402985375404L96.0609375,90.69480094170711L96.525,91.05056002197718L96.9890625,91.39722774777789L97.453125,91.76356323863101L97.91718750000001,92.12399489938443L98.38125,92.48913358797797L98.84531249999999,92.84903315836469L99.309375,93.21796513878469L99.7734375,93.5793855915591L100.2375,93.94404554468437L100.70156250000001,94.31232023528855L101.165625,94.68147078442969L101.6296875,95.0492194224569L102.09374999999999,95.41399139909163L102.5578125,95.77753054066395L103.021875,96.13578427433009L103.48593749999999,96.49802131082937L103.95,96.85456165902741L104.4140625,97.20765407311539L104.878125,97.56290394067462L105.34218750000001,97.91606362758762L105.80625,98.26783731001098L106.2703125,98.60967686806234L106.73437500000001,98.95601801585657L107.1984375,99.30372413643379L107.6625,99.64918579047755L108.12656249999999,99.98962663997565L108.590625,100.33017360148247L109.0546875,100.31968177862629L109.51875,100.52462430016013L109.98281250000001,100.7856482458965L110.446875,101.05896118266614L110.91093749999999,101.35263525323192L111.375,101.63612241839508L111.8390625,101.92835963097612L112.303125,102.22686998519237L112.7671875,102.52029558866667L113.23125,102.81491799544395L113.6953125,103.10761880187353L114.159375,103.39997628624629L114.62343750000001,103.68740916709818L115.0875,103.97703626016533L115.55156249999999,104.26399813671837L116.015625,104.55292832680222L116.4796875,104.83865231899938L116.94375,105.12098682230744L117.4078125,105.39995005999614L117.871875,105.62587646557418L118.3359375,105.89973266226622L118.80000000000001,106.17322637627119L119.26406250000001,106.4404276120865L119.72812499999999,106.71015579491994L120.19218749999999,106.97805629887742L120.65625,107.24466987734263L121.1203125,107.51333629068385L121.584375,107.78100898653081L122.0484375,108.0451878595795L122.5125,108.30712635545268L122.9765625,108.56956065381515L123.44062500000001,108.82854022630657L123.90468750000001,109.0860704223298L124.36874999999999,109.34274904912157L124.83281249999999,109.59572221306045L125.296875,109.84725320020912L125.7609375,110.09463046383812L126.225,110.34509761726517L126.6890625,110.5915431588289L127.153125,110.83840836293149L127.6171875,111.08223323872443L128.08125,111.32554816745193L128.5453125,111.56717703955522L129.009375,111.8071467625411L129.47343750000002,112.04457512445599L129.9375,112.28122237114773L130.4015625,112.5133123264274L130.865625,112.74513952996514L131.3296875,112.97520552024595L131.79375,113.20524222793952L132.2578125,113.4334832756592L132.721875,113.65752360555305L133.1859375,113.88201868620155L133.65,114.10404078575866L134.11406250000002,114.32517647978213L134.578125,114.5451943728581L135.04218749999998,114.76408691742279L135.50625,114.97975225657528L135.9703125,115.19205857321435L136.434375,115.40306474469135L136.8984375,115.61407750281639L137.3625,115.82277392674726L137.8265625,116.03006300897142L138.290625,115.99198585162335L138.75468750000002,116.08491709262638L139.21875,116.21927164561299L139.6828125,116.36323115628414L140.146875,116.50949123888995L140.6109375,116.65083092367281L141.07500000000002,116.79083194543136L141.5390625,116.9374183413834L142.003125,117.07759723262335L142.46718750000002,117.22511638743985L142.93125,117.37786744610383L143.39531250000002,117.52915085071416L143.85937500000003,117.68255347546395L144.32343749999998,117.82785219208532L144.7875,117.97688500934018L145.25156249999998,118.12987585001065L145.715625,118.28211063011888L146.1796875,118.43132047103641L146.64374999999998,118.58074588901756L147.1078125,118.72975552462964L147.571875,118.88047652776832L148.0359375,119.03361634872066L148.5,119.18723667575011L148.9640625,119.33233394191375L149.428125,119.48183961602338L149.8921875,119.63079008058097L150.35625000000002,119.78247436340365L150.8203125,119.93190061553629L151.284375,120.08364116360526L151.74843750000002,120.23305422844695L152.21249999999998,120.38268399349266L152.6765625,120.53257644965426L153.140625,120.68042316017518L153.60468749999998,120.82672166396169L154.06875,120.97624310935474L154.5328125,121.12244419302054L154.996875,121.27054911560876L155.4609375,121.41692264697956L155.925,121.56429360357204L156.3890625,121.71134533369333L156.853125,121.7874970500575L157.3171875,121.91702306652846L157.78125,122.05486977331556L158.2453125,122.19345034510295L158.709375,122.33529771342069L159.1734375,122.47693869953169L159.63750000000002,122.61812257976385L160.1015625,122.75693592779427L160.565625,122.8953644056712L161.02968750000002,123.03523076481454L161.49374999999998,123.17103000945767L161.9578125,123.30967533911625L162.421875,123.44587948650884L162.88593749999998,123.58310073047302L163.35,123.71874856696306L163.8140625,123.85360762887524L164.278125,123.987232568787L164.7421875,124.12120510620291L165.20625,124.25245579880634L165.6703125,124.38540723176257L166.134375,124.51897269306306L166.59843750000002,124.65152272884838L167.0625,124.78265708320197L167.5265625,124.91204374835905L167.99062500000002,125.04259325451727L168.4546875,125.17067563465704L168.91875000000002,125.2997749848136L169.38281249999997,125.4264306832471L169.84687499999998,125.53469767269905L170.3109375,125.65772966451001L170.77499999999998,125.78270621611571L171.2390625,125.90754996963216L171.703125,126.03236566983225L172.16718749999998,126.1571550450169L172.63125,126.28090276107987L173.0953125,126.40513926842911L173.559375,126.52707629083032L174.0234375,126.6497729911604L174.4875,126.77107073685816L174.9515625,126.89195436832877L175.415625,127.01202778626823L175.87968750000002,127.13222866700646L176.34375,127.25207488851186L176.8078125,127.37048743064197L177.27187500000002,127.48899884211808L177.7359375,127.60670315038718L178.20000000000002,127.72346640222099L178.66406250000003,127.83892707293411L179.12812499999998,127.95520131725632L179.5921875,128.06984949855845L180.05624999999998,128.1850644828703L180.5203125,128.29996959836095L180.984375,128.41242977540637L181.44843749999998,128.52489509675337L181.9125,128.63799154358355L182.3765625,128.7494901192658L182.840625,128.86093294751515L183.3046875,128.97200360493136L183.76875,129.0815830717621L184.2328125,129.19066995544193L184.696875,129.30056416799746L185.16093750000002,129.40686793053695L185.625,129.51415068923814L186.0890625,129.62061188793834L186.55312500000002,129.72802317293215L187.01718749999998,129.83376607984204L187.48125,129.94011198552994L187.9453125,130.04425387936425L188.40937499999998,130.14979402096006L188.8734375,130.25489909235205L189.3375,130.35906843547494L189.8015625,130.4630318534932L190.265625,130.5648463346437L190.7296875,130.66752634286263L191.19375,130.7697680791789L191.6578125,130.869734029309L192.121875,130.971014080755L192.5859375,131.07136234294265L193.05,131.17177691067187L193.5140625,131.27046652676725L193.978125,131.36770930538685L194.44218750000002,131.46669845604143L194.90625,131.5652522934324L195.3703125,131.66292025172294L195.83437500000002,131.7585157223035L196.29843749999998,131.85364111646632L196.7625,131.94987268661524L197.2265625,132.04504959836152L197.69062499999998,132.13974986320133L198.1546875,132.23275960766628L198.61875,132.32735861392067L199.0828125,132.42079576925138L199.546875,132.5134184248359L200.0109375,132.60521048479083L200.475,132.6974892687489L200.9390625,132.7880598073017L201.40312500000002,132.8800106229117L201.8671875,132.97078374548127L202.33125,133.0614616886561L202.79531250000002,133.1520720406612L203.259375,133.2422505270072L203.72343750000002,133.33067569382385L204.18749999999997,133.41933850598318L204.65156249999998,133.50749285757203L205.115625,133.59569651458034L205.57968749999998,133.68273438181177L206.04375,133.7698489609447L206.5078125,133.85571900614735L206.97187499999998,133.94223270959517L207.4359375,134.02850497082142L207.9,134.11442627341972L208.3640625,134.19914302735128L208.828125,134.28327872636112L209.2921875,134.3674986277534L209.75625,134.45108289859436L210.2203125,134.53380241530633L210.68437500000002,134.61727950558927L211.1484375,134.69875281774986L211.6125,134.7810807840966L212.07656250000002,134.86212443540984L212.540625,134.9429024479962L213.00468750000002,135.02391470504378L213.46875000000003,135.10383107623537L213.93281249999998,135.18399682470024L214.396875,135.26306357629443L214.86093749999998,135.34225047538604L215.325,135.4213607091952L215.7890625,135.4992152965981L216.25312499999998,135.5775930555232L216.7171875,135.65514032421746L217.18125,135.73258481648801L217.6453125,135.81038381528722L218.109375,135.8878193752672L218.5734375,135.9634485129591L219.0375,136.0396554899271L219.5015625,136.11550432146802L219.96562500000002,136.18956778187837L220.4296875,136.26433851660826L220.89375,136.338424207608L221.35781250000002,136.41314630711233L221.82187499999998,136.48775072344327L222.2859375,136.56057800630572L222.75,136.6335827776051L223.21406249999998,136.70660817908615L223.678125,136.7796422281424L224.1421875,136.85241587831715L224.60625,136.9234044584569L225.0703125,136.99335363437183L225.534375,137.06512504715542L225.9984375,137.13630642302806L226.4625,137.2076073639201L226.9265625,137.27745338997954L227.390625,137.34719387646632L227.8546875,137.4168029118265L228.31875,137.48591885270628L228.7828125,137.55476952805444L229.24687500000002,137.62274422521344L229.7109375,137.6913452307104L230.175,137.75968445471756L230.63906250000002,137.8278043587339L231.10312499999998,137.8953645832856L231.5671875,137.9622371241144L232.03125,138.02964621380735L232.49531249999998,138.09593114417947L232.959375,138.16181461359002L233.4234375,138.22794721419123L233.8875,138.2930291087546L234.3515625,138.35756948464373L234.815625,138.42215772454193L235.2796875,138.48663752685988L235.74375,138.55060480849636L236.20781250000002,138.6155917663664L236.671875,138.6794089684117L237.1359375,138.7431713490293L237.60000000000002,138.80598050158014L238.0640625,138.8689500487149L238.52812500000002,138.93254024219897L238.99218749999997,138.99542104066646L239.45624999999998,139.0577342916438L239.9203125,139.11947531020536L240.38437499999998,139.18154935296712L240.8484375,139.24301619558398L241.3125,139.30429717788013L241.77656249999998,139.36491216278375L242.240625,139.42580122907953L242.7046875,139.48623033139822L243.16875,139.54497205860463L243.6328125,139.60383963056316L244.096875,139.66286521348584L244.5609375,139.72079397600373L245.025,139.78048640273994L245.48906250000002,139.83927682013154L245.953125,139.8986789797908L246.4171875,139.9571625693894L246.88125000000002,140.0150866866109L247.3453125,140.07324069147313L247.80937500000002,140.13164405581375L248.27343750000003,140.18937411311256L248.73749999999998,140.24728626297784L249.2015625,140.3049700307584L249.66562499999998,140.36178913221994L250.1296875,140.41899823349885L250.59375,140.47518428841968L251.05781249999998,140.53191519218674L251.521875,140.58841482795833L251.9859375,140.64450202831483L252.45,140.6998511124341L252.9140625,140.75445623346366L253.378125,140.8096051060409L253.8421875,140.8644027199186L254.30625,140.91812991613108L254.77031250000002,140.97229287423662L255.234375,141.02554763394244" style="fill: none;" fill="none"></path></g></g></g></g><g opacity="0.2"><g><g><g><path stroke="rgb(255, 112, 67)" stroke-width="2px" d="M29.700000000000003,-4.7024272771981925L30.1640625,3.159481672140271L30.628125,11.893942374449505L31.092187499999998,19.967906768505376L31.55625,27.03298066212579L32.0203125,24.1685522703024L32.484375,41.18098233296321L32.9484375,48.78254108245556L33.4125,56.28928759464851L33.8765625,63.36569870435275L34.340625,68.2180677652359L34.8046875,75.07102940632747L35.268750000000004,80.24851768750412L35.7328125,85.5950497847337L36.196875,90.23925879368416L36.660937499999996,94.95542706893042L37.125,98.21879237431747L37.589062500000004,102.87091795756267L38.053124999999994,105.16364065041908L38.5171875,109.84403217755832L38.98125,103.54875282140878L39.4453125,92.66990273732407L39.909375000000004,114.37651645220244L40.373437499999994,117.2507279606966L40.8375,120.53471855933851L41.3015625,120.55236550019339L41.765625,125.6071245624469L42.229687500000004,127.97466720067538L42.693749999999994,130.19061210751534L43.1578125,131.66232802088444L43.621875,133.77241562880005L44.0859375,135.76067888507475L44.550000000000004,137.2438070819928L45.014062499999994,138.53408493216222L45.478125,139.7030091239856L45.9421875,141.35515881960208L46.40625,142.75173625808495L46.8703125,144.4159008058218L47.334375,145.2505921813158L47.7984375,146.1192181087457L48.2625,146.54374897021515L48.7265625,147.7671396801105L49.190625,63.439792321278496L49.6546875,140.31528574457536L50.11875,144.46610065148425L50.5828125,146.10954657884744L51.04687499999999,147.5630839925546L51.5109375,149.03416893344658L51.975,149.48242212831974L52.4390625,150.49029617470043L52.903125,150.72631437159504L53.36718750000001,151.9081359654665L53.83125,152.57618365494105L54.2953125,151.95668432689632L54.759375,153.52601330555405L55.2234375,153.97940963621323L55.6875,154.80755086816276L56.1515625,154.6059166135696L56.615625,155.67323394807485L57.0796875,155.6911522476719L57.54375,156.46714086544054L58.0078125,156.2085512005366L58.471875,156.1334517810207L58.9359375,156.5129487571808L59.400000000000006,157.2179392765348L59.864062499999996,157.82719240280298L60.328125,158.15722448436114L60.7921875,158.21375738657437L61.25625,158.57644077218495L61.720312500000006,159.16164263767692L62.184374999999996,-183.3968517230107L64.5046875,-22.877502239667443L64.96875,12.062953728895916L65.4328125,22.789339762467588L65.896875,29.327545551153314L66.3609375,39.932379099038926L66.825,48.47275185585022L67.2890625,49.67921992448661L67.753125,55.59544510107775L68.2171875,68.19852587809929L68.68125,70.68931306325473L69.1453125,79.33991732047156L69.609375,81.94663301798015L70.0734375,87.54903561335345L70.53750000000001,90.68920100652255L71.0015625,96.6621366097377L71.465625,100.88324509675688L71.92968750000001,104.20173426774832L72.39375,107.169666492022L72.8578125,110.40664456899351L73.32187499999999,65.58566682155316L73.7859375,87.65588299127727L74.25,94.88415761177356L74.7140625,98.18280868346876L75.17812500000001,100.92580226292976L75.6421875,103.67718716768118L76.10624999999999,106.00193323538855L76.5703125,111.24291641895587L77.034375,112.34138878033713L77.4984375,116.69789868593216L77.9625,119.88401754085834L78.4265625,121.6787223815918L78.890625,123.63403102067801L79.3546875,126.36515582524814L79.81875000000001,129.07697814702988L80.2828125,130.59383192429175L80.74687499999999,130.07523138477254L81.2109375,104.82461568942436L81.675,130.41031428942313L82.1390625,135.1126579779845L82.603125,137.23808166613946L83.0671875,135.98538421209042L83.53125,137.50919694625415L83.99531250000001,140.7292584685179L84.45937500000001,139.66247877937096L84.92343749999999,143.50773664162708L85.38749999999999,144.47127422002646L85.8515625,145.4642118696983L86.315625,146.5599442686026L86.7796875,146.99702255542462L87.24375,147.60126898609676L87.7078125,146.78932203810947L88.171875,149.44792862809624L88.63593750000001,150.39956699884857L89.10000000000001,151.04868754286034L89.56406249999999,149.28112161961886L90.02812499999999,150.73616342590404L90.4921875,151.26001361585583L90.95625,152.12225475104955L91.4203125,153.47901092813564L91.884375,152.1892818820018L92.3484375,-6.733420151930604L92.8125,80.00275897979736L93.27656250000001,114.78848670079158L93.740625,127.67042079338661L94.20468749999999,136.27823659548392L94.66875,137.71963539719582L95.1328125,138.90231113708938L95.596875,140.53130353414096L96.0609375,139.88956394791603L96.525,142.71308057124799L96.9890625,142.03550134255337L97.453125,145.58719469492252L97.91718750000001,145.38732452575977L98.38125,146.75886595019927L98.84531249999999,146.64613592051543L99.309375,148.67863115897546L99.7734375,148.21758910555107L100.2375,149.38115206016946L100.70156250000001,150.61087379776512L101.165625,151.42626674817157L101.6296875,151.889369099186L102.09374999999999,152.10208797798705L102.5578125,152.5807150923289L103.021875,152.41503916795438L103.48593749999999,153.70799611508846L103.95,153.46470246062827L104.4140625,153.5670214444399L104.878125,154.5648273206674L105.34218750000001,154.87874525785446L105.80625,155.30164695244568L106.2703125,154.31892050688083L106.73437500000001,155.68843308091164L107.1984375,156.55013099140845L107.6625,156.81430253099936L108.12656249999999,156.6076940424167L108.590625,157.24945898927174L109.0546875,98.55734258431656L109.51875,135.11967374269778L109.98281250000001,145.06414894415784L110.446875,147.64876741744007L110.91093749999999,151.65658590426813L111.375,150.42978469683575L111.8390625,152.46972074416968L112.303125,154.09973365297685L112.7671875,153.75171276926994L113.23125,154.498181613592L113.6953125,154.6948533000854L114.159375,155.16724017778267L114.62343750000001,154.81893170453037L115.0875,155.73670348983543L115.55156249999999,155.78275230756174L116.015625,156.66182630738388L116.4796875,156.6032163695647L116.94375,156.50237946097667L117.4078125,156.3957304031803L117.871875,147.11067672646965L118.3359375,156.40873888478828L118.80000000000001,156.83815572525447L119.26406250000001,156.15710513351056L119.72812499999999,157.1162801763186L120.19218749999999,157.2601966800598L120.65625,157.50157408530896L121.1203125,158.37495563809688L121.584375,158.67123779310631L122.0484375,158.4848559286732L122.5125,158.53070389020903L122.9765625,159.1000556154893L123.44062500000001,158.90269919198292L123.90468750000001,159.0874686275537L124.36874999999999,159.38539465860677L124.83281249999999,159.11934237468702L125.296875,159.2905819140948L125.7609375,158.9199667378114L126.225,159.98107300039666L126.6890625,159.6279013727147L127.153125,160.15576716483784L127.6171875,159.98708321612614L128.08125,160.3223852366209L128.5453125,160.4172192840622L129.009375,160.51297442958904L129.47343750000002,160.42359241040853L129.9375,160.6892683425775L130.4015625,160.17351072969345L130.865625,160.5353704020381L131.3296875,160.58477823522227L131.79375,160.9909583983513L132.2578125,161.02678561411224L132.721875,160.55198237557823L133.1859375,161.04894345024456L133.65,160.92653935459944L134.11406250000002,161.1350189504715L134.578125,161.2916462020232L135.04218749999998,161.4436060832097L135.50625,161.1405181495043L135.9703125,160.80051528261257L136.434375,160.8976852976932L136.8984375,161.27542389456468L137.3625,161.1462131326015L137.8265625,161.20992816526157L138.290625,107.66310725762294L138.75468750000002,136.48491761546867L139.21875,145.817126340591L139.6828125,148.1891273775926L140.146875,148.95776648475575L140.6109375,148.11734157800674L141.07500000000002,148.06800805146878L141.5390625,149.79950304329395L142.003125,148.61184546122183L142.46718750000002,150.52479576147522L142.93125,151.97666850342202L143.39531250000002,151.91238742149795L143.85937500000003,152.66582435254867L144.32343749999998,151.075055497197L144.7875,152.19330610678745L145.25156249999998,153.37273162832628L145.715625,153.46781471715522L146.1796875,153.03245080892856L146.64374999999998,153.34649250599054L147.1078125,153.51295663874882L147.571875,154.17854840480362L148.0359375,155.01528486150963L148.5,155.39917683486755L148.9640625,153.64593662436192L149.428125,154.9519730628683L149.8921875,155.08266349079517L150.35625000000002,156.00045708624216L150.8203125,155.72432648791718L151.284375,156.5456578834699L151.74843750000002,156.2491566126163L152.21249999999998,156.5644338795772L152.6765625,156.89134457478156L153.140625,156.65479989120593L153.60468749999998,156.5349399739733L154.06875,157.58398700333558L154.5328125,157.02751492766234L154.996875,157.75476193599977L155.4609375,157.58479347137305L155.925,158.0894304479544L156.3890625,158.26782219226544L156.853125,140.77565624851448L157.3171875,154.31097349982994L157.78125,156.63302626861977L158.2453125,157.05937295120495L158.709375,158.1291416442165L159.1734375,158.32446160912514L159.63750000000002,158.4552686959505L160.1015625,158.0958015454503L160.565625,158.2392995987947L161.02968750000002,158.85030514460342L161.49374999999998,158.04554286312597L161.9578125,159.01799064530778L162.421875,158.62645294918465L162.88593749999998,159.12802382558584L163.35,158.95648097304198L163.8140625,158.98612856406433L164.278125,158.8969291414206L164.7421875,159.22055005568726L165.20625,158.73544025707704L165.6703125,159.41310926240223L166.134375,159.80669051809954L166.59843750000002,159.76836528027286L167.0625,159.6207007290079L167.5265625,159.3806679443671L167.99062500000002,159.91663899387305L168.4546875,159.47941057212077L168.91875000000002,159.97530928999186L169.38281249999997,159.53812043082254L169.84687499999998,154.77282709341782L170.3109375,158.97291719741546L170.77499999999998,159.71546072340928L171.2390625,159.89507028517815L171.703125,160.10295973918758L172.16718749999998,160.31116442582928L172.63125,160.23957212785115L173.0953125,160.58796150151355L173.559375,160.1654759748624L174.0234375,160.58646877482533L174.4875,160.40845617193443L174.9515625,160.50174093848238L175.415625,160.4831160917305L175.87968750000002,160.72542194964794L176.34375,160.83238192876945L176.8078125,160.63420027035934L177.27187500000002,160.86558685537713L177.7359375,160.84042251654543L178.20000000000002,160.77515769577943L178.66406250000003,160.60456434522683L179.12812499999998,161.03487743036104L179.5921875,160.7688319938114L180.05624999999998,161.12794485630897L180.5203125,161.23618656167616L180.984375,160.72794583955636L181.44843749999998,160.92192524155746L181.9125,161.2972297251511L182.3765625,161.0264949812912L182.840625,161.2008703626119L183.3046875,161.28266727093322L183.76875,161.03604959868468L184.2328125,161.07866129021232L184.696875,161.50221209013117L185.16093750000002,160.63147552426045L185.625,161.10198216484142L186.0890625,161.0415558986939L186.55312500000002,161.50497804725399L187.01718749999998,161.1914955520859L187.48125,161.551361878904L187.9453125,161.07344435499263L188.40937499999998,161.66958273861272L188.8734375,161.71836327661114L189.3375,161.61530186035313L189.8015625,161.73014202126515L190.265625,161.25675327187548L190.7296875,161.69197034205382L191.19375,161.73303706399523L191.6578125,161.2133873552084L192.121875,161.78398580906483L192.5859375,161.67056926712394L193.05,161.86089711879882L193.5140625,161.5008287945619L193.978125,161.22223821511636L194.44218750000002,161.9258809437832L194.90625,161.9586179667654L195.3703125,161.85053666738364L195.83437500000002,161.37151189836172L196.29843749999998,161.38658270641017L196.7625,161.89250026800883L197.2265625,161.7249855711483L197.69062499999998,161.73612269186057L198.1546875,161.36464817062594L198.61875,162.02189983986318L199.0828125,161.81464693766947L199.546875,161.71443326656635L200.0109375,161.6071257200092L200.475,161.91621689527082L200.9390625,161.52769863576842L201.40312500000002,162.12031709073256L201.8671875,161.8984010526194L202.33125,162.02043716552166L202.79531250000002,162.15104390336919L203.259375,162.16423548872655L203.72343750000002,161.75031424686313L204.18749999999997,161.97543383977163L204.65156249999998,161.95949950226796L205.115625,162.12326412275434L205.57968749999998,161.89205277969057L206.04375,162.0628232742445L206.5078125,161.80239039874422L206.97187499999998,162.15665570359963L207.4359375,162.222237532242L207.9,162.25122206959014L208.3640625,161.99837291011443L208.828125,161.94828236876774L209.2921875,162.11663219117773L209.75625,162.04674717081855L210.2203125,161.89929146434253L210.68437500000002,162.28916854640613L211.1484375,161.76079199119258L211.6125,162.1819001820225L212.07656250000002,161.88948070458494L212.540625,161.93542896741283L213.00468750000002,162.14857606045328L213.46875000000003,161.91464478981035L213.93281249999998,162.1316641974621L214.396875,161.89371326694695L214.86093749999998,162.06580390910116L215.325,162.17137501331476L215.7890625,161.87610170417108L216.25312499999998,162.18347355551444L216.7171875,162.0302508417517L217.18125,162.1237662632305L217.6453125,162.37358159392787L218.109375,162.37784592047907L218.5734375,161.88519526530916L219.0375,162.20946655293497L219.5015625,162.21205282999347L219.96562500000002,161.7203486335392L220.4296875,162.08784876362634L220.89375,161.97376612473565L221.35781250000002,162.31749193212735L221.82187499999998,162.39996470124103L222.2859375,161.90300299255895L222.75,162.08529773784372L223.21406249999998,162.21300892574857L223.678125,162.3365150041735L224.1421875,162.36540215670203L224.60625,161.85661129911358L225.0703125,161.60680325959737L225.534375,162.3662214318577L225.9984375,162.2754181395643L226.4625,162.43499413498031L226.9265625,162.0351321290319L227.390625,162.11241345035916L227.8546875,162.1801643736947L228.31875,162.11832120914298L228.7828125,162.13687720178413L229.24687500000002,161.93573430939935L229.7109375,162.272346840455L230.175,162.29066862767706L230.63906250000002,162.3236611590076L231.10312499999998,162.23315921440147L231.5671875,162.0950171993329L232.03125,162.39906985140763L232.49531249999998,162.10120950438656L232.959375,162.06366042864437L233.4234375,162.2622495055772L233.8875,161.98684193881658L234.3515625,161.8952153770683L234.815625,162.0182280010329L235.2796875,162.08395108838494L235.74375,162.00084760040045L236.20781250000002,162.48074319005872L236.671875,162.1553089273377L237.1359375,162.2391474931859L237.60000000000002,161.9903006215508L238.0640625,162.15213859496782L238.52812500000002,162.4852286613045L238.99218749999997,162.3248900083395L239.45624999999998,162.2157689231233L239.9203125,162.10357996248283L240.38437499999998,162.3285316046184L240.8484375,162.2020625169747L241.3125,162.23225117704044L241.77656249999998,162.081562370635L242.240625,162.28317760475554L242.7046875,162.20862305837755L243.16875,161.66947749199775L243.6328125,161.8123800777472L244.096875,161.96771571240745L244.5609375,161.64715354373823L245.025,162.4114415275936L245.48906250000002,162.16469933465123L245.953125,162.49319316719013L246.4171875,162.23846465822024L246.88125000000002,162.11903688612466L247.3453125,162.30082061471273L247.80937500000002,162.49055604206828L248.27343750000003,162.32609108778146L248.73749999999998,162.48947472820203L249.2015625,162.49491591479344L249.66562499999998,162.25401782545333L250.1296875,162.4966020796878L250.59375,162.19243067646255L251.05781249999998,162.49450494578252L251.521875,162.49604243398286L251.9859375,162.42649198373635L252.45,162.22898510829188L252.9140625,162.02752165754254L253.378125,162.32811410524525L253.8421875,162.27921564031678L254.30625,161.94730243402032L254.77031250000002,162.20493448153138L255.234375,161.9344875808232" style="fill: none;" fill="none"></path></g></g></g></g></g></g><g transform="translate(51, 177)" clip-path="url(#clip_1)"><clipPath id="clip_1"><rect width="278" height="23"></rect></clipPath><g><g><line x1="0" y1="0" x2="0" y2="5" style="visibility: inherit;" fill="rgb(0, 0, 0)" stroke="rgb(204, 204, 204)" stroke-width="1px"></line><line x1="23.203125" y1="0" x2="23.203125" y2="5" style="visibility: inherit;" fill="rgb(0, 0, 0)" stroke="rgb(204, 204, 204)" stroke-width="1px"></line><line x1="46.40625" y1="0" x2="46.40625" y2="5" style="visibility: inherit;" fill="rgb(0, 0, 0)" stroke="rgb(204, 204, 204)" stroke-width="1px"></line><line x1="69.609375" y1="0" x2="69.609375" y2="5" style="visibility: inherit;" fill="rgb(0, 0, 0)" stroke="rgb(204, 204, 204)" stroke-width="1px"></line><line x1="92.8125" y1="0" x2="92.8125" y2="5" style="visibility: inherit;" fill="rgb(0, 0, 0)" stroke="rgb(204, 204, 204)" stroke-width="1px"></line><line x1="116.015625" y1="0" x2="116.015625" y2="5" style="visibility: inherit;" fill="rgb(0, 0, 0)" stroke="rgb(204, 204, 204)" stroke-width="1px"></line><line x1="139.21875" y1="0" x2="139.21875" y2="5" style="visibility: inherit;" fill="rgb(0, 0, 0)" stroke="rgb(204, 204, 204)" stroke-width="1px"></line><line x1="162.421875" y1="0" x2="162.421875" y2="5" style="visibility: inherit;" fill="rgb(0, 0, 0)" stroke="rgb(204, 204, 204)" stroke-width="1px"></line><line x1="185.625" y1="0" x2="185.625" y2="5" style="visibility: inherit;" fill="rgb(0, 0, 0)" stroke="rgb(204, 204, 204)" stroke-width="1px"></line><line x1="208.828125" y1="0" x2="208.828125" y2="5" style="visibility: inherit;" fill="rgb(0, 0, 0)" stroke="rgb(204, 204, 204)" stroke-width="1px"></line><line x1="232.03125" y1="0" x2="232.03125" y2="5" style="visibility: inherit;" fill="rgb(0, 0, 0)" stroke="rgb(204, 204, 204)" stroke-width="1px"></line><line x1="255.234375" y1="0" x2="255.234375" y2="5" style="visibility: inherit;" fill="rgb(0, 0, 0)" stroke="rgb(204, 204, 204)" stroke-width="1px"></line><line x1="278.4375" y1="0" x2="278.4375" y2="5" style="visibility: inherit;" fill="rgb(0, 0, 0)" stroke="rgb(204, 204, 204)" stroke-width="1px"></line></g><g transform="translate(0, 8)"><text x="0" y="0" dx="0em" dy="0.95em" style="text-anchor: middle; visibility: hidden; font-family: Roboto, sans-serif; font-size: 12px; font-weight: 200;" fill="rgb(33, 33, 33)" stroke="none" stroke-width="1px">-5k</text><text x="23.203125" y="0" dx="0em" dy="0.95em" style="text-anchor: middle; visibility: inherit; font-family: Roboto, sans-serif; font-size: 12px; font-weight: 200;" fill="rgb(33, 33, 33)" stroke="none" stroke-width="1px">0</text><text x="46.40625" y="0" dx="0em" dy="0.95em" style="text-anchor: middle; visibility: hidden; font-family: Roboto, sans-serif; font-size: 12px; font-weight: 200;" fill="rgb(33, 33, 33)" stroke="none" stroke-width="1px">5k</text><text x="69.609375" y="0" dx="0em" dy="0.95em" style="text-anchor: middle; visibility: inherit; font-family: Roboto, sans-serif; font-size: 12px; font-weight: 200;" fill="rgb(33, 33, 33)" stroke="none" stroke-width="1px">10k</text><text x="92.8125" y="0" dx="0em" dy="0.95em" style="text-anchor: middle; visibility: hidden; font-family: Roboto, sans-serif; font-size: 12px; font-weight: 200;" fill="rgb(33, 33, 33)" stroke="none" stroke-width="1px">15k</text><text x="116.015625" y="0" dx="0em" dy="0.95em" style="text-anchor: middle; visibility: inherit; font-family: Roboto, sans-serif; font-size: 12px; font-weight: 200;" fill="rgb(33, 33, 33)" stroke="none" stroke-width="1px">20k</text><text x="139.21875" y="0" dx="0em" dy="0.95em" style="text-anchor: middle; visibility: hidden; font-family: Roboto, sans-serif; font-size: 12px; font-weight: 200;" fill="rgb(33, 33, 33)" stroke="none" stroke-width="1px">25k</text><text x="162.421875" y="0" dx="0em" dy="0.95em" style="text-anchor: middle; visibility: inherit; font-family: Roboto, sans-serif; font-size: 12px; font-weight: 200;" fill="rgb(33, 33, 33)" stroke="none" stroke-width="1px">30k</text><text x="185.625" y="0" dx="0em" dy="0.95em" style="text-anchor: middle; visibility: hidden; font-family: Roboto, sans-serif; font-size: 12px; font-weight: 200;" fill="rgb(33, 33, 33)" stroke="none" stroke-width="1px">35k</text><text x="208.828125" y="0" dx="0em" dy="0.95em" style="text-anchor: middle; visibility: inherit; font-family: Roboto, sans-serif; font-size: 12px; font-weight: 200;" fill="rgb(33, 33, 33)" stroke="none" stroke-width="1px">40k</text><text x="232.03125" y="0" dx="0em" dy="0.95em" style="text-anchor: middle; visibility: hidden; font-family: Roboto, sans-serif; font-size: 12px; font-weight: 200;" fill="rgb(33, 33, 33)" stroke="none" stroke-width="1px">45k</text><text x="255.234375" y="0" dx="0em" dy="0.95em" style="text-anchor: middle; visibility: inherit; font-family: Roboto, sans-serif; font-size: 12px; font-weight: 200;" fill="rgb(33, 33, 33)" stroke="none" stroke-width="1px">50k</text><text x="278.4375" y="0" dx="0em" dy="0.95em" style="text-anchor: middle; visibility: hidden; font-family: Roboto, sans-serif; font-size: 12px; font-weight: 200;" fill="rgb(33, 33, 33)" stroke="none" stroke-width="1px">55k</text></g><line x1="0" y1="0" x2="278.4375" y2="0" fill="rgb(0, 0, 0)" stroke="rgb(204, 204, 204)" stroke-width="1px"></line></g></g></g></g></svg>