<svg viewBox="0 0 330 200" xmlns="http://www.w3.org/2000/svg"><g><g><g><g><g><line x1="61.953125" y1="177" x2="56.953125" y2="177" style="visibility: inherit;" fill="rgb(0, 0, 0)" stroke="rgb(204, 204, 204)" stroke-width="1px"></line><line x1="61.953125" y1="163.3846153846154" x2="56.953125" y2="163.3846153846154" style="visibility: inherit;" fill="rgb(0, 0, 0)" stroke="rgb(204, 204, 204)" stroke-width="1px"></line><line x1="61.953125" y1="149.76923076923077" x2="56.953125" y2="149.76923076923077" style="visibility: inherit;" fill="rgb(0, 0, 0)" stroke="rgb(204, 204, 204)" stroke-width="1px"></line><line x1="61.953125" y1="136.15384615384616" x2="56.953125" y2="136.15384615384616" style="visibility: inherit;" fill="rgb(0, 0, 0)" stroke="rgb(204, 204, 204)" stroke-width="1px"></line><line x1="61.953125" y1="122.53846153846153" x2="56.953125" y2="122.53846153846153" style="visibility: inherit;" fill="rgb(0, 0, 0)" stroke="rgb(204, 204, 204)" stroke-width="1px"></line><line x1="61.953125" y1="108.92307692307693" x2="56.953125" y2="108.92307692307693" style="visibility: inherit;" fill="rgb(0, 0, 0)" stroke="rgb(204, 204, 204)" stroke-width="1px"></line><line x1="61.953125" y1="95.3076923076923" x2="56.953125" y2="95.3076923076923" style="visibility: inherit;" fill="rgb(0, 0, 0)" stroke="rgb(204, 204, 204)" stroke-width="1px"></line><line x1="61.953125" y1="81.6923076923077" x2="56.953125" y2="81.6923076923077" style="visibility: inherit;" fill="rgb(0, 0, 0)" stroke="rgb(204, 204, 204)" stroke-width="1px"></line><line x1="61.953125" y1="68.07692307692307" x2="56.953125" y2="68.07692307692307" style="visibility: inherit;" fill="rgb(0, 0, 0)" stroke="rgb(204, 204, 204)" stroke-width="1px"></line><line x1="61.953125" y1="54.46153846153847" x2="56.953125" y2="54.46153846153847" style="visibility: inherit;" fill="rgb(0, 0, 0)" stroke="rgb(204, 204, 204)" stroke-width="1px"></line><line x1="61.953125" y1="40.84615384615386" x2="56.953125" y2="40.84615384615386" style="visibility: inherit;" fill="rgb(0, 0, 0)" stroke="rgb(204, 204, 204)" stroke-width="1px"></line><line x1="61.953125" y1="27.230769230769234" x2="56.953125" y2="27.230769230769234" style="visibility: inherit;" fill="rgb(0, 0, 0)" stroke="rgb(204, 204, 204)" stroke-width="1px"></line><line x1="61.953125" y1="13.615384615384626" x2="56.953125" y2="13.615384615384626" style="visibility: inherit;" fill="rgb(0, 0, 0)" stroke="rgb(204, 204, 204)" stroke-width="1px"></line><line x1="61.953125" y1="0" x2="56.953125" y2="0" style="visibility: inherit;" fill="rgb(0, 0, 0)" stroke="rgb(204, 204, 204)" stroke-width="1px"></line></g><g transform="translate(51.953125, 0)"><text x="0" y="177" dx="0em" dy="0.3em" style="text-anchor: end; visibility: hidden; font-family: Roboto, sans-serif; font-size: 12px; font-weight: 200;" fill="rgb(33, 33, 33)" stroke="none" stroke-width="1px">-0.01</text><text x="0" y="163.3846153846154" dx="0em" dy="0.3em" style="text-anchor: end; visibility: inherit; font-family: Roboto, sans-serif; font-size: 12px; font-weight: 200;" fill="rgb(33, 33, 33)" stroke="none" stroke-width="1px">0</text><text x="0" y="149.76923076923077" dx="0em" dy="0.3em" style="text-anchor: end; visibility: hidden; font-family: Roboto, sans-serif; font-size: 12px; font-weight: 200;" fill="rgb(33, 33, 33)" stroke="none" stroke-width="1px">0.01</text><text x="0" y="136.15384615384616" dx="0em" dy="0.3em" style="text-anchor: end; visibility: inherit; font-family: Roboto, sans-serif; font-size: 12px; font-weight: 200;" fill="rgb(33, 33, 33)" stroke="none" stroke-width="1px">0.02</text><text x="0" y="122.53846153846153" dx="0em" dy="0.3em" style="text-anchor: end; visibility: hidden; font-family: Roboto, sans-serif; font-size: 12px; font-weight: 200;" fill="rgb(33, 33, 33)" stroke="none" stroke-width="1px">0.03</text><text x="0" y="108.92307692307693" dx="0em" dy="0.3em" style="text-anchor: end; visibility: inherit; font-family: Roboto, sans-serif; font-size: 12px; font-weight: 200;" fill="rgb(33, 33, 33)" stroke="none" stroke-width="1px">0.04</text><text x="0" y="95.3076923076923" dx="0em" dy="0.3em" style="text-anchor: end; visibility: hidden; font-family: Roboto, sans-serif; font-size: 12px; font-weight: 200;" fill="rgb(33, 33, 33)" stroke="none" stroke-width="1px">0.05</text><text x="0" y="81.6923076923077" dx="0em" dy="0.3em" style="text-anchor: end; visibility: inherit; font-family: Roboto, sans-serif; font-size: 12px; font-weight: 200;" fill="rgb(33, 33, 33)" stroke="none" stroke-width="1px">0.06</text><text x="0" y="68.07692307692307" dx="0em" dy="0.3em" style="text-anchor: end; visibility: hidden; font-family: Roboto, sans-serif; font-size: 12px; font-weight: 200;" fill="rgb(33, 33, 33)" stroke="none" stroke-width="1px">0.07</text><text x="0" y="54.46153846153847" dx="0em" dy="0.3em" style="text-anchor: end; visibility: inherit; font-family: Roboto, sans-serif; font-size: 12px; font-weight: 200;" fill="rgb(33, 33, 33)" stroke="none" stroke-width="1px">0.08</text><text x="0" y="40.84615384615386" dx="0em" dy="0.3em" style="text-anchor: end; visibility: hidden; font-family: Roboto, sans-serif; font-size: 12px; font-weight: 200;" fill="rgb(33, 33, 33)" stroke="none" stroke-width="1px">0.09</text><text x="0" y="27.230769230769234" dx="0em" dy="0.3em" style="text-anchor: end; visibility: inherit; font-family: Roboto, sans-serif; font-size: 12px; font-weight: 200;" fill="rgb(33, 33, 33)" stroke="none" stroke-width="1px">0.1</text><text x="0" y="13.615384615384626" dx="0em" dy="0.3em" style="text-anchor: end; visibility: hidden; font-family: Roboto, sans-serif; font-size: 12px; font-weight: 200;" fill="rgb(33, 33, 33)" stroke="none" stroke-width="1px">0.11</text><text x="0" y="0" dx="0em" dy="0.3em" style="text-anchor: end; visibility: hidden; font-family: Roboto, sans-serif; font-size: 12px; font-weight: 200;" fill="rgb(33, 33, 33)" stroke="none" stroke-width="1px">0.12</text></g><line x1="61.953125" y1="0" x2="61.953125" y2="177" fill="rgb(0, 0, 0)" stroke="rgb(204, 204, 204)" stroke-width="1px"></line></g></g><g transform="translate(61, 0)" clip-path="url(#clip_0)"><clipPath id="clip_0"><rect width="268" height="177"></rect></clipPath><g><g><g><line x1="0" y1="0" x2="0" y2="177" fill="rgb(0, 0, 0)" stroke="rgb(66, 66, 66)" stroke-width="1px" opacity="0.25"></line><line x1="22.337239583333332" y1="0" x2="22.337239583333332" y2="177" fill="rgb(0, 0, 0)" stroke="rgb(66, 66, 66)" stroke-width="1px" opacity="0.25"></line><line x1="44.674479166666664" y1="0" x2="44.674479166666664" y2="177" fill="rgb(0, 0, 0)" stroke="rgb(66, 66, 66)" stroke-width="1px" opacity="0.25"></line><line x1="67.01171875" y1="0" x2="67.01171875" y2="177" fill="rgb(0, 0, 0)" stroke="rgb(66, 66, 66)" stroke-width="1px" opacity="0.25"></line><line x1="89.34895833333333" y1="0" x2="89.34895833333333" y2="177" fill="rgb(0, 0, 0)" stroke="rgb(66, 66, 66)" stroke-width="1px" opacity="0.25"></line><line x1="111.68619791666667" y1="0" x2="111.68619791666667" y2="177" fill="rgb(0, 0, 0)" stroke="rgb(66, 66, 66)" stroke-width="1px" opacity="0.25"></line><line x1="134.0234375" y1="0" x2="134.0234375" y2="177" fill="rgb(0, 0, 0)" stroke="rgb(66, 66, 66)" stroke-width="1px" opacity="0.25"></line><line x1="156.36067708333334" y1="0" x2="156.36067708333334" y2="177" fill="rgb(0, 0, 0)" stroke="rgb(66, 66, 66)" stroke-width="1px" opacity="0.25"></line><line x1="178.69791666666666" y1="0" x2="178.69791666666666" y2="177" fill="rgb(0, 0, 0)" stroke="rgb(66, 66, 66)" stroke-width="1px" opacity="0.25"></line><line x1="201.03515625" y1="0" x2="201.03515625" y2="177" fill="rgb(0, 0, 0)" stroke="rgb(66, 66, 66)" stroke-width="1px" opacity="0.25"></line><line x1="223.37239583333334" y1="0" x2="223.37239583333334" y2="177" fill="rgb(0, 0, 0)" stroke="rgb(66, 66, 66)" stroke-width="1px" opacity="0.25"></line><line x1="245.70963541666666" y1="0" x2="245.70963541666666" y2="177" fill="rgb(0, 0, 0)" stroke="rgb(66, 66, 66)" stroke-width="1px" opacity="0.25"></line><line x1="268.046875" y1="0" x2="268.046875" y2="177" fill="rgb(0, 0, 0)" stroke="rgb(66, 66, 66)" stroke-width="1px" opacity="0.25"></line></g><g><line x1="0" y1="177" x2="268.046875" y2="177" fill="rgb(0, 0, 0)" stroke="rgb(66, 66, 66)" stroke-width="1px" opacity="0.25"></line><line x1="0" y1="163.3846153846154" x2="268.046875" y2="163.3846153846154" fill="rgb(0, 0, 0)" stroke="rgb(66, 66, 66)" stroke-width="1px" opacity="0.25"></line><line x1="0" y1="149.76923076923077" x2="268.046875" y2="149.76923076923077" fill="rgb(0, 0, 0)" stroke="rgb(66, 66, 66)" stroke-width="1px" opacity="0.25"></line><line x1="0" y1="136.15384615384616" x2="268.046875" y2="136.15384615384616" fill="rgb(0, 0, 0)" stroke="rgb(66, 66, 66)" stroke-width="1px" opacity="0.25"></line><line x1="0" y1="122.53846153846153" x2="268.046875" y2="122.53846153846153" fill="rgb(0, 0, 0)" stroke="rgb(66, 66, 66)" stroke-width="1px" opacity="0.25"></line><line x1="0" y1="108.92307692307693" x2="268.046875" y2="108.92307692307693" fill="rgb(0, 0, 0)" stroke="rgb(66, 66, 66)" stroke-width="1px" opacity="0.25"></line><line x1="0" y1="95.3076923076923" x2="268.046875" y2="95.3076923076923" fill="rgb(0, 0, 0)" stroke="rgb(66, 66, 66)" stroke-width="1px" opacity="0.25"></line><line x1="0" y1="81.6923076923077" x2="268.046875" y2="81.6923076923077" fill="rgb(0, 0, 0)" stroke="rgb(66, 66, 66)" stroke-width="1px" opacity="0.25"></line><line x1="0" y1="68.07692307692307" x2="268.046875" y2="68.07692307692307" fill="rgb(0, 0, 0)" stroke="rgb(66, 66, 66)" stroke-width="1px" opacity="0.25"></line><line x1="0" y1="54.46153846153847" x2="268.046875" y2="54.46153846153847" fill="rgb(0, 0, 0)" stroke="rgb(66, 66, 66)" stroke-width="1px" opacity="0.25"></line><line x1="0" y1="40.84615384615386" x2="268.046875" y2="40.84615384615386" fill="rgb(0, 0, 0)" stroke="rgb(66, 66, 66)" stroke-width="1px" opacity="0.25"></line><line x1="0" y1="27.230769230769234" x2="268.046875" y2="27.230769230769234" fill="rgb(0, 0, 0)" stroke="rgb(66, 66, 66)" stroke-width="1px" opacity="0.25"></line><line x1="0" y1="13.615384615384626" x2="268.046875" y2="13.615384615384626" fill="rgb(0, 0, 0)" stroke="rgb(66, 66, 66)" stroke-width="1px" opacity="0.25"></line><line x1="0" y1="0" x2="268.046875" y2="0" fill="rgb(0, 0, 0)" stroke="rgb(66, 66, 66)" stroke-width="1px" opacity="0.25"></line></g></g></g><g><g><line x1="0" y1="163.3846153846154" x2="268.046875" y2="163.3846153846154" fill="rgb(0, 0, 0)" stroke="rgb(153, 153, 153)" stroke-width="1.5px"></line></g></g><g><g><line x1="22.337239583333332" y1="0" x2="22.337239583333332" y2="177" fill="rgb(0, 0, 0)" stroke="rgb(153, 153, 153)" stroke-width="1.5px"></line></g></g><g><g><g><g><g><path stroke="rgb(255, 112, 67)" stroke-width="2px" d="M29.48515625,-2.8638179962303747L29.931901041666666,5.777618312044935L30.378645833333334,13.231890314045655L30.825390625,16.898413192428368L31.272135416666668,23.13741242899662L31.71888020833333,28.908645172309736L32.165625,34.31030578772938L32.612369791666666,39.497749953004075L33.05911458333333,44.11659249059708L33.505859375,48.50891802493137L33.95260416666667,52.56138527716358L34.399348958333334,56.40528761958797L34.84609375,59.88062612362129L35.29283854166666,63.241460307609515L35.739583333333336,66.18785110515242L36.186328125,69.05799945567745L36.63307291666666,71.66260510396073L37.07981770833334,74.19046316005954L37.526562500000004,75.75189543454707L37.973307291666664,74.40106295331026L38.42005208333334,76.47922253839783L38.866796875,78.41679822656745L39.313541666666666,80.43097109900611L39.76028645833333,82.30205818532714L40.20703125,84.16875735486087L40.65377604166667,86.00607464305085L41.10052083333333,87.74079660419221L41.547265625,89.33718051974792L41.99401041666667,90.88403905256062L42.44075520833333,92.3774206109197L42.8875,93.75986828745133L43.33424479166666,95.0284189336034L43.78098958333333,96.2961545255085L44.227734375000004,97.54595181087232L44.674479166666664,98.70984068471545L45.12122395833333,99.92438436720295L45.567968750000006,101.06573526244813L46.014713541666666,102.16200378183048L46.46145833333333,103.19458888724022L46.908203125,104.18014900912672L47.35494791666667,100.04163504222088L47.801692708333334,100.35840367610412L48.2484375,101.14462083424485L48.69518229166667,101.91449003093885L49.14192708333333,102.8055083546348L49.588671875,103.70509909399846L50.03541666666667,104.59769873198553L50.48216145833333,105.43154119458363L50.92890625,106.22314824083631L51.37565104166667,107.05813180750134L51.82239583333333,107.84851512971483L52.269140625,108.55665304877424L52.715885416666666,109.3050466371355L53.16263020833333,110.03000024530165L53.609375,110.77497334537703L54.05611979166667,111.40367144708917L54.502864583333334,112.06920574603456L54.949609374999994,112.71664755757746L55.39635416666667,113.35100848217996L55.843098958333336,113.95901403975225L56.289843749999996,114.51226999352725L56.73658854166667,115.04821244964626L57.18333333333334,115.60518919449127L57.630078125,116.1499602975757L58.07682291666667,116.70625432103658L58.52356770833333,117.2460910631116L58.9703125,117.77374385518664L59.41705729166667,118.30344353781781L59.86380208333333,110.68028242466461L60.310546875,105.08991732327915L60.75729166666667,101.03712424676183L61.204036458333334,98.78238413638356L61.65078125,97.53603925449497L62.09752604166666,96.50910206739513L62.544270833333336,96.37765341548987L62.991015624999996,96.43368734834694L63.43776041666666,96.35634272506546L63.88450520833334,96.58935378223444L64.33125,96.95817368793732L64.77799479166667,97.32230583877245L65.22473958333333,97.5586214113367L65.671484375,98.09149357306775L66.11822916666667,98.61743347130555L66.56497395833333,99.21364698361288L67.01171875,99.74723443260187L67.45846354166666,100.26892293567916L67.90520833333333,100.7370212624873L68.351953125,101.26454961265502L68.79869791666667,101.82250605264018L69.24544270833334,102.36864464768355L69.6921875,102.87052037989568L70.13893229166666,103.3694681221364L70.58567708333332,102.8590504371417L71.032421875,103.16317709953651L71.47916666666667,103.64274185315013L71.92591145833333,104.1135848679889L72.37265625,104.54481647363403L72.81940104166667,104.91406333322136L73.26614583333333,105.24806501847016L73.712890625,105.67164501035944L74.15963541666667,106.04821659084585L74.60638020833333,106.45434569384535L75.05312500000001,106.88819534573915L75.49986979166667,107.29871754545543L75.94661458333333,107.68155761536842L76.39335937499999,108.13104556749809L76.84010416666668,108.57385733077786L77.28684895833334,108.99418751518503L77.73359375,109.29768126960568L78.18033854166667,108.4708261741261L78.62708333333333,108.59445988320397L79.07382812499999,108.97393628226187L79.52057291666667,109.39472170474416L79.96731770833334,109.67838723528666L80.4140625,109.97649254080126L80.86080729166667,110.36514127653682L81.30755208333333,110.64846702597745L81.754296875,111.03011531674986L82.20104166666665,111.40323675358302L82.64778645833334,111.77245024663257L83.09453125,112.14944646588879L83.54127604166666,112.50661536514858L83.98802083333334,112.84965799441316L84.434765625,113.1104469120972L84.88151041666666,113.45241282478958L85.32825520833335,113.81033187017121L85.775,114.15951128130197L86.22174479166667,114.41548771682866L86.66848958333333,114.70003634162418L87.115234375,114.9691829464125L87.56197916666666,115.24124137437376L88.00872395833333,115.56696194822403L88.45546875000001,115.83038273671075L88.90221354166667,112.60077491905751L89.34895833333333,111.48419519695878L89.795703125,110.92301351604338L90.24244791666666,110.72905429930135L90.68919270833332,110.87766884879184L91.13593750000001,111.0688007540752L91.58268229166667,111.29343128404429L92.02942708333333,111.55791662553298L92.47617187499999,111.74285659931788L92.92291666666667,111.99540834433064L93.36966145833333,112.13994067604403L93.81640625,112.43766543109227L94.26315104166667,112.69778263778373L94.70989583333333,112.96923572027357L95.156640625,113.1872243366701L95.60338541666667,113.47341643498736L96.05013020833333,113.71925480895436L96.496875,113.98293692753407L96.94361979166668,114.26958998601289L97.39036458333334,114.55830264632321L97.837109375,114.84074028572888L98.28385416666666,115.10025148048689L98.73059895833333,115.36185572452898L99.17734375,115.5795710015847L99.62408854166667,115.85356753852993L100.07083333333334,116.10827355935734L100.517578125,116.34409114343967L100.96432291666666,116.59529564121951L101.41106770833333,116.85085387246983L101.8578125,117.10049219594364L102.30455729166667,117.33955298066654L102.75130208333334,117.58446409333864L103.198046875,117.83764018567187L103.64479166666666,118.08625868313328L104.09153645833332,118.32056555698622L104.53828125,118.5613137197969L104.98502604166667,117.78582536374607L105.43177083333333,117.24996277421202L105.878515625,117.17606345181095L106.32526041666667,117.16799478066062L106.77200520833333,117.35538758934024L107.21875,117.49339233885996L107.66549479166667,117.67059960877116L108.11223958333333,117.89686908286583L108.55898437500001,118.11113710631822L109.00572916666667,118.33769125243063L109.45247395833333,118.55034163539558L109.89921874999999,118.7653710994592L110.34596354166668,118.96226076253838L110.79270833333334,119.17682456026878L111.239453125,119.38036546047759L111.68619791666667,119.6068000794621L112.13294270833333,119.81926810221525L112.57968749999999,120.01361783038818L113.02643229166667,120.18375598799346L113.47317708333334,120.00615874506121L113.919921875,120.19557399766744L114.36666666666667,120.38557866744416L114.81341145833333,120.56907492876252L115.26015625,120.7584246325162L115.70690104166665,120.9494040650435L116.15364583333334,121.14161754264565L116.600390625,121.34872435474875L117.04713541666666,121.55945611017215L117.49388020833334,121.7586534495141L117.940625,121.94934197599166L118.38736979166666,122.15295152664567L118.83411458333335,122.33923619674057L119.280859375,122.53365027284126L119.72760416666667,122.72538459573565L120.17434895833333,122.90695465890506L120.62109375,123.0872204206294L121.06783854166666,123.25796800246327L121.51458333333333,123.44740326997047L121.96132812500001,123.62376320138246L122.40807291666667,123.80826583410122L122.85481770833333,123.9795913162142L123.3015625,124.15876709521947L123.74830729166666,124.34298559078503L124.19505208333332,124.5191831003571L124.64179687500001,124.68624685296749L125.08854166666667,124.86020665390306L125.53528645833333,125.02374298176979L125.98203124999999,125.19145687729089L126.42877604166667,125.357348761886L126.87552083333333,125.52661081721357L127.322265625,125.69277315773823L127.76901041666667,125.8490883467317L128.21575520833332,126.01677414541251L128.6625,126.17372005209198L129.10924479166667,126.3360098832393L129.55598958333334,126.49400915048224L130.002734375,126.65558415142178L130.44947916666666,126.81225814546747L130.89622395833334,126.95890602503681L131.34296875,127.10182566380512L131.78971354166666,127.24975584033285L132.23645833333333,127.39339246682653L132.683203125,127.54079405133515L133.12994791666665,126.97329860114628L133.57669270833333,126.82144090244684L134.0234375,126.8719525110002L134.47018229166667,126.97648652655269L134.91692708333332,127.10200664016787L135.363671875,127.19942019095028L135.81041666666667,127.27917105101258L136.25716145833331,127.39103661926151L136.70390625,127.47847988464585L137.1506510416667,127.5909723095365L137.59739583333334,127.72975292653906L138.044140625,127.85058693629628L138.49088541666669,127.98920933544738L138.93763020833333,128.10254260137225L139.384375,128.2173649049339L139.83111979166665,128.355523253855L140.27786458333333,128.48814731463014L140.724609375,128.5943410913169L141.17135416666665,128.7145449972688L141.61809895833332,128.81606169088886L142.06484375,128.93761553626453L142.51158854166667,129.07039973083656L142.95833333333334,129.2032803539048L143.40507812500002,129.31162582090224L143.85182291666666,129.4281544815558L144.29856770833334,129.54578568598063L144.7453125,129.67490650274829L145.19205729166666,129.79892008192377L145.63880208333333,129.92759266073702L146.085546875,130.04849856371283L146.53229166666665,130.17562864748197L146.97903645833333,130.29646467146463L147.42578125,130.41276867730016L147.87252604166665,130.53262456907274L148.31927083333335,130.6592118256867L148.76601562500002,130.77156952001857L149.21276041666667,130.89642154165554L149.65950520833334,131.01028064847623L150.10625000000002,131.12855353454856L150.55299479166666,131.25150765827658L150.99973958333334,131.05710373395084L151.44648437499998,131.09164904322589L151.89322916666666,131.16851979519825L152.33997395833333,131.26482952614316L152.78671874999998,131.38030549276633L153.23346354166665,131.49756420011394L153.68020833333335,131.61463212309144L154.126953125,131.72099103403974L154.57369791666667,131.83270426686525L155.02044270833335,131.950200112379L155.4671875,132.0480729807146L155.91393229166667,132.16301432866274L156.36067708333334,132.27359542633008L156.807421875,132.38426650336677L157.25416666666666,132.49276886184106L157.70091145833334,132.60195595102692L158.14765624999998,132.70889351741954L158.59440104166666,132.81692618543414L159.04114583333333,132.92004867552072L159.487890625,133.01987544628142L159.93463541666668,133.12982198016695L160.38138020833335,133.2352715037128L160.828125,133.33880297131358L161.27486979166667,133.43575099397634L161.72161458333335,133.54101614626157L162.168359375,133.63582379740677L162.61510416666667,133.73810764771085L163.06184895833331,133.83163588534566L163.50859375,133.83143623764533L163.95533854166666,133.90756607767395L164.4020833333333,134.00260158635072L164.848828125,134.09674693737648L165.29557291666669,134.1941408636403L165.74231770833333,134.29391520094842L166.1890625,134.3906374919971L166.63580729166668,134.49252251648983L167.08255208333333,134.58309356220394L167.529296875,134.68016933056734L167.97604166666667,134.77316713332957L168.42278645833332,134.86934396839172L168.86953125,134.9598471291382L169.31627604166667,135.05733451602833L169.76302083333331,135.15263842744096L170.209765625,135.2474303935406L170.6565104166667,135.34004278339023L171.10325520833334,135.4324230210362L171.55,135.5227769561228L171.99674479166669,135.61495594865573L172.44348958333333,135.7059779496003L172.890234375,135.79398930696883L173.33697916666665,135.88490413613968L173.78372395833333,135.97792519000728L174.23046875,136.0606278951514L174.67721354166665,136.1470178659333L175.12395833333332,136.2373110228023L175.570703125,136.3237668958754L176.01744791666667,136.41368016294138L176.46419270833334,136.49902342538343L176.91093750000002,136.58377823298267L177.35768229166666,136.66813832696323L177.80442708333334,136.75675179564874L178.251171875,136.8342239534325L178.69791666666666,136.91583876484316L179.14466145833333,137.00137569756396L179.59140625,137.0871156855919L180.03815104166665,137.16665343814677L180.48489583333333,137.2493161889751L180.931640625,137.32857218396268L181.37838541666665,137.4128991285586L181.82513020833335,137.49772287485993L182.27187500000002,137.58146009316619L182.71861979166667,137.6644966726038L183.16536458333334,137.7461968621602L183.61210937500002,137.8258286827195L184.05885416666666,137.9057224973913L184.50559895833334,137.97746377057447L184.95234374999998,138.05706576204582L185.39908854166666,138.1370833098554L185.84583333333333,138.21726460676808L186.29257812499998,138.2889559991555L186.73932291666665,138.3610003912744L187.18606770833335,138.4405314043854L187.6328125,138.52019199473443L188.07955729166667,138.59845975338123L188.52630208333335,138.66884138092556L188.973046875,138.74352445608767L189.41979166666667,138.82068787301472L189.86653645833334,138.89327363783383L190.31328125,138.96368447067744L190.76002604166666,139.03364662147416L191.20677083333334,139.10875728590887L191.65351562499998,139.1822559505168L192.10026041666666,139.2516378795786L192.54700520833333,139.32167969189106L192.99375,139.39385115725057L193.44049479166668,139.4619589883264L193.88723958333335,139.53580840389108L194.333984375,139.60839242494663L194.78072916666667,139.68084619211803L195.22747395833335,139.75353279709992L195.67421875,139.8259658083006L196.12096354166667,139.88851115824104L196.56770833333331,139.9587197595695L197.014453125,140.02688935470582L197.46119791666666,140.09710359342478L197.9079427083333,140.16177563987853L198.3546875,140.23093643399488L198.80143229166669,140.29844853907986L199.24817708333333,140.36577711733685L199.694921875,140.43448455402756L200.14166666666668,140.50352651211497L200.58841145833333,140.56861634600463L201.03515625,140.63287322618285L201.48190104166667,140.70003811878462L201.92864583333332,140.76467522399986L202.375390625,140.8272372197675L202.82213541666667,140.89417613362792L203.26888020833331,140.956004031271L203.715625,141.02123112254822L204.1623697916667,141.08341680916593L204.60911458333334,141.14611702087709L205.055859375,141.21031196975338L205.50260416666669,141.27343602875942L205.94934895833333,141.33549378351472L206.39609375,141.3953988327942L206.84283854166665,141.4562516082204L207.28958333333333,141.51946952169286L207.736328125,141.58117704867954L208.18307291666665,141.6393864372704L208.62981770833332,141.69914670448955L209.0765625,141.75881208216447L209.52330729166667,141.82132569752233L209.97005208333334,141.88353380097843L210.41679687500002,141.93906458321885L210.86354166666666,141.99563819730926L211.31028645833334,142.05605730082348L211.75703125,142.1095799354737L212.20377604166666,142.16493358930427L212.65052083333333,142.22139072357328L213.097265625,142.27918174574975L213.54401041666665,142.33898716595286L213.99075520833333,142.39602024323784L214.4375,142.45053987697807L214.88424479166665,142.50874391600567L215.33098958333335,142.56528767077685L215.77773437500002,142.62228036722868L216.22447916666667,142.674116743143L216.67122395833334,142.7180415313996L217.11796875000002,142.7741033085003L217.56471354166666,142.82728284429075L218.01145833333334,142.8846447122901L218.45820312499998,142.9381876656258L218.90494791666666,142.99320556022758L219.35169270833333,143.04724217449782L219.79843749999998,143.1022209768313L220.24518229166665,143.15708688500015L220.69192708333335,143.20704695160157L221.138671875,143.2577052864544L221.58541666666667,143.31266999721322L222.03216145833335,143.36707280689262L222.47890625,143.41875579776857L222.92565104166667,143.46969553108266L223.37239583333334,143.52241491490727L223.819140625,143.5708245787629L224.26588541666666,143.62150443840463L224.71263020833334,143.67249673912954L225.15937499999998,143.72163738601327L225.60611979166666,143.77116137361082L226.05286458333333,143.82098623194588L226.499609375,143.87025058540152L226.94635416666668,143.91922222405893L227.39309895833335,143.97183240174388L227.83984375,144.0228307123636L228.28658854166667,144.07212130229377L228.73333333333335,144.11884760015354L229.180078125,144.165343265804L229.62682291666667,144.21684393531802L230.07356770833331,144.2672274561108L230.5203125,144.3153084167874L230.96705729166666,144.36242402802347L231.4138020833333,144.4122903458861L231.860546875,144.45778188441724L232.30729166666669,144.50501530964547L232.75403645833333,144.5512554090488L233.20078125,144.59824554656902L233.64752604166668,144.64296512381495L234.09427083333333,144.68674680602746L234.541015625,144.72992256666632L234.98776041666667,144.77521309420834L235.43450520833332,144.81675279806385L235.88125,144.8632501025877L236.32799479166667,144.90689365398723L236.77473958333331,144.9551373015813L237.221484375,145.00028194682076L237.6682291666667,145.0468314360823L238.11497395833334,145.09385739342162L238.56171875,145.14119269434696L239.00846354166669,145.1877803595577L239.45520833333333,145.2347134095511L239.901953125,145.28156844453713L240.34869791666665,145.32558668879068L240.79544270833333,145.37209283937543L241.2421875,145.4173938880113L241.68893229166665,145.46345341215343L242.13567708333332,145.50936906025663L242.582421875,145.55329914282643L243.02916666666667,145.59621773182965L243.47591145833334,145.63634594868424L243.92265625000002,145.67724377208987L244.36940104166666,145.71961216321623L244.81614583333334,145.75840105937849L245.262890625,145.79832578258006L245.70963541666666,145.8387610962341" style="fill: none;" fill="none"></path></g></g></g></g><g opacity="0.2"><g><g><g><path stroke="rgb(255, 112, 67)" stroke-width="2px" d="M24.570963541666664,-23.068928333429188L25.017708333333335,20.338184141195747L25.464453125,59.59954369068148L25.911197916666666,84.00849079398009L26.357942708333333,100.82768097061378L26.8046875,121.64694754091593L27.251432291666667,114.38271966232702L27.698177083333334,93.47161210614902L28.144921874999998,133.13319029544408L28.59166666666667,134.2214225416L29.038411458333336,129.22944118311773L29.48515625,151.58237030271155L29.931901041666666,142.87121956996046L30.378645833333334,138.82007067134748L30.825390625,82.27238828287676L31.272135416666668,140.5000703965242L31.71888020833333,143.12898247832288L32.165625,146.50567429541397L32.612369791666666,152.31823941807335L33.05911458333333,149.0844699680232L33.505859375,152.61708020705444L33.95260416666667,152.56649082211348L34.399348958333334,155.00871506347679L34.84609375,152.41240216963564L35.29283854166666,155.99251984303388L35.739583333333336,150.3633862559039L36.186328125,153.84064248161246L36.63307291666666,151.12632150374924L37.07981770833334,153.76090105236148L37.526562500000004,126.41246861677902L37.973307291666664,29.267733012254435L38.42005208333334,147.92028390272307L38.866796875,146.8940254283639L39.313541666666666,153.5562477415571L39.76028645833333,152.03383897187618L40.20703125,155.53227322577285L40.65377604166667,158.01156710016613L41.10052083333333,157.39052330974775L41.547265625,154.96327578849517L41.99401041666667,155.95590606733012L42.44075520833333,156.6287318263203L42.8875,154.55994222929272L43.33424479166666,152.0307906241371L43.78098958333333,154.47140383147274L44.227734375000004,156.0892237297331L44.674479166666664,154.3371782585119L45.12122395833333,159.12801748542833L45.567968750000006,157.7861174386568L46.014713541666666,157.6826720624589L46.46145833333333,156.46925911207038L46.908203125,155.96236224974004L47.35494791666667,-121.3165368758715L47.801692708333334,117.60102927226288L48.2484375,144.6833114050902L48.69518229166667,145.27433835371184L49.14192708333333,153.8285479971136L49.588671875,156.06620451979913L50.03541666666667,157.39163664140952L50.48216145833333,155.5339013782258L50.92890625,154.53099687411807L51.37565104166667,158.79622784880203L51.82239583333333,157.5636641355948L52.269140625,153.76145011000335L52.715885416666666,157.77948119577306L53.16263020833333,157.66346899334056L53.609375,160.41911289891084L54.05611979166667,153.88555425548782L54.502864583333334,157.66005228244913L54.949609374999994,157.6705541193772L55.39635416666667,157.98634912360174L55.843098958333336,157.30453682533252L56.289843749999996,154.46788123995066L56.73658854166667,154.2501608644827L57.18333333333334,156.8613870768593L57.630078125,157.0059401324162L58.07682291666667,158.94043156167922L58.52356770833333,158.72913376578632L58.9703125,158.80710534006357L59.41705729166667,159.98396062514243L59.86380208333333,-496.1796389909891L61.65078125,-6.25886798363465L62.09752604166666,10.045957893133183L62.544270833333336,85.19006283925131L62.991015624999996,101.25394244148181L63.43776041666666,89.63224602547976L63.88450520833334,117.05911825597286L64.33125,129.69464643758076L64.77799479166667,129.9741408698834L65.22473958333333,118.96399576045L65.671484375,146.84292249066326L66.11822916666667,147.2119399472498L66.56497395833333,154.8416525466511L67.01171875,150.01536232892138L67.45846354166666,149.8880963468781L67.90520833333333,145.68219941940444L68.351953125,152.39234191121963L68.79869791666667,156.40269570023966L69.24544270833334,156.28496214503852L69.6921875,152.86891253206593L70.13893229166666,153.52490707486868L70.58567708333332,51.09202613738868L71.032421875,134.28095662078033L71.47916666666667,153.1410980307712L71.92591145833333,153.13349935197485L72.37265625,149.8266538802821L72.81940104166667,144.01724488803973L73.26614583333333,140.9170853816546L73.712890625,151.28491674019742L74.15963541666667,146.93502469102924L74.60638020833333,150.91203178751928L75.05312500000001,154.76628709412537L75.49986979166667,152.96728324617905L75.94661458333333,150.61049135946308L76.39335937499999,158.93202990193205L76.84010416666668,159.0126234483547L77.28684895833334,157.24420642236677L77.73359375,144.40431023704318L78.18033854166667,12.094011370952327L78.62708333333333,123.11409296152684L79.07382812499999,153.87445263965773L79.52057291666667,159.55359263424404L79.96731770833334,143.74172827056967L80.4140625,146.03581156123144L80.86080729166667,157.71799434807437L81.30755208333333,145.417319050202L81.754296875,158.19923481194732L82.20104166666665,157.8451284548411L82.64778645833334,158.05081457730668L83.09453125,159.73268718501697L83.54127604166666,157.8990470564996L83.98802083333334,156.74589096324948L84.434765625,146.7085327076224L84.88151041666666,157.80630069612883L85.32825520833335,160.54452153180654L85.775,160.05578700173646L86.22174479166667,148.28320339579994L86.66848958333333,152.59469564688894L87.115234375,151.0457178130746L87.56197916666666,151.94339789278231L88.00872395833333,159.78988618418L88.45546875000001,151.82228820369792L88.90221354166667,-331.45451507201557L89.34895833333333,-43.001998117336875L89.795703125,32.79683714417312L90.24244791666666,83.55982067034796L90.68919270833332,131.82280400166144L91.13593750000001,138.1701639478023L91.58268229166667,143.33725411702807L92.02942708333333,149.5135692934004L92.47617187499999,138.44136038193335L92.92291666666667,148.67039554795394L93.36966145833333,133.2519947032516L93.81640625,156.18070396064567L94.26315104166667,151.13699325689902L94.70989583333333,153.3146896418184L95.156640625,145.7717478043185L95.60338541666667,156.49599302029955L96.05013020833333,150.88418835172286L96.496875,154.06897754881246L96.94361979166668,158.09055563571076L97.39036458333334,158.93841000245166L97.837109375,158.49500854972464L98.28385416666666,155.4300920769859L98.73059895833333,156.23765822972817L99.17734375,149.78117846640257L99.62408854166667,159.12726237266682L100.07083333333334,156.54954135675843L100.517578125,153.984463248975L100.96432291666666,156.90252962708473L101.41106770833333,158.07096676800685L101.8578125,157.57488050827612L102.30455729166667,156.2990449029379L102.75130208333334,157.70213127394135L103.198046875,159.52060384360644L103.64479166666666,159.22629626725728L104.09153645833332,157.2876941968615L104.53828125,158.80014987024836L104.98502604166667,-12.475001885340784L105.43177083333333,26.794391911763416L105.878515625,104.64023579313205L106.32526041666667,115.79258302771127L106.77200520833333,149.45423302713496L107.21875,141.24669749117814L107.66549479166667,148.31795126314347L108.11223958333333,157.21626091003418L108.55898437500001,155.5218278162468L109.00572916666667,158.08028172744582L109.45247395833333,156.02903978440625L109.89921874999999,156.8402883006403L110.34596354166668,153.98702277056873L110.79270833333334,157.52182416804135L111.239453125,155.92240974708247L111.68619791666667,160.4445486598863L112.13294270833333,158.3120614022303L112.57968749999999,155.38286804766034L113.02643229166667,151.2858043622512L113.47317708333334,87.39560075791984L113.919921875,155.13061029807878L114.36666666666667,155.58409577135282L114.81341145833333,154.71122409403324L115.26015625,156.14362101328487L115.70690104166665,156.79425875699292L116.15364583333334,157.3740344620668L116.600390625,160.55640837614638L117.04713541666666,161.6240103837246L117.49388020833334,159.79139831175024L117.940625,158.51158901268187L118.38736979166666,161.35701684001833L118.83411458333335,158.35770704933944L119.280859375,160.28058552906776L119.72760416666667,160.10634183281888L120.17434895833333,158.4522540144479L120.62109375,158.5219770437823L121.06783854166666,156.9587535100201L121.51458333333333,160.98847061564L121.96132812500001,158.71487792158644L122.40807291666667,160.66717663428818L122.85481770833333,158.34297188923048L123.3015625,160.2397691799471L123.74830729166666,161.58638788895826L124.19505208333332,160.2813843889162L124.64179687500001,158.72758930341269L125.08854166666667,160.4450450942207L125.53528645833333,158.6062986028309L125.98203124999999,159.7649912386416L126.42877604166667,159.68681107318173L126.87552083333333,160.68755802168297L127.322265625,160.34129317140636L127.76901041666667,158.56782335687714L128.21575520833332,161.2479401359048L128.6625,159.27222468539213L129.10924479166667,160.68940300752337L129.55598958333334,160.063574934235L130.002734375,161.11195802230102L130.44947916666666,160.34658308183919L130.89622395833334,158.46236561468015L131.34296875,157.9164444487542L131.78971354166666,159.26057401192017L132.23645833333333,158.5875345896213L132.683203125,159.66782959256895L133.12994791666665,2.841114466006933L133.57669270833333,93.48607273743703L134.0234375,137.99948944323336L134.47018229166667,150.08637843338343L134.91692708333332,154.94905227909868L135.363671875,148.8866380327023L135.81041666666667,145.09605312404724L136.25716145833331,152.46932410391477L136.70390625,147.1494703751344L137.1506510416667,152.98402506614534L137.59739583333334,159.16418618207368L138.044140625,155.3133767510836L138.49088541666669,159.6018688127112L138.93763020833333,154.03542226509978L139.384375,154.5793995387279L139.83111979166665,160.1815773121153L140.27786458333333,159.14126714662862L140.724609375,153.22022826883656L141.17135416666665,156.68153075615948L141.61809895833332,152.51302300565516L142.06484375,157.40489137473588L142.51158854166667,160.26931875213407L142.95833333333334,160.52638234112126L143.40507812500002,154.93390944686072L143.85182291666666,157.07451083812003L144.29856770833334,157.5433255442633L144.7453125,160.50536186584773L145.19205729166666,159.50418790773702L145.63880208333333,160.84656441734674L146.085546875,159.19293372433347L146.53229166666665,160.91676422652716L146.97903645833333,159.60713906865567L147.42578125,158.71210727274703L147.87252604166665,159.78678806620437L148.31927083333335,161.65191563605688L148.76601562500002,158.36514722419759L149.21276041666667,161.65250748976206L149.65950520833334,159.14406569216115L150.10625000000002,160.44188262364614L150.55299479166666,161.8174151455482L150.99973958333334,82.5831777327336L151.44648437499998,139.7312958635963L151.89322916666666,150.4511632008048L152.33997395833333,155.49569812502997L152.78671874999998,160.5195752309922L153.23346354166665,161.174244046856L153.68020833333335,161.33034934493926L154.126953125,158.79766135841894L154.57369791666667,160.35563048663047L155.02044270833335,162.03693771079327L155.4671875,157.18273859514068L155.91393229166667,161.76633313036737L156.36067708333334,160.83591533026012L156.807421875,161.05180229067517L157.25416666666666,160.67882160161835L157.70091145833334,161.0465976553611L158.14765624999998,160.64647760500128L158.59440104166666,161.12030800976433L159.04114583333333,160.01301978614467L159.487890625,159.32047486921343L159.93463541666668,162.17746817415508L160.38138020833335,161.17230142258967L160.828125,160.84367615858523L161.27486979166667,159.2627166681565L161.72161458333335,161.66078345588622L162.168359375,159.031436914793L162.61510416666667,161.2111131724042L163.06184895833331,159.02123465030812L163.50859375,133.77752021642831L163.95533854166666,154.52236601767632L164.4020833333333,159.80597465091313L164.848828125,159.72692017773022L165.29557291666669,160.77948967181146L165.74231770833333,161.6014776223769L166.1890625,160.9330287911356L166.63580729166668,162.52548766302732L167.08255208333333,159.56865558049714L167.529296875,161.5303683175992L167.97604166666667,160.5626236325703L168.42278645833332,161.6097955920447L168.86953125,160.1880728035019L169.31627604166667,162.30266425326968L169.76302083333331,161.85631391402478L170.209765625,161.8757983276334L170.6565104166667,161.4226414330232L171.10325520833334,161.51591085638995L171.55,161.09889206716505L171.99674479166669,161.77367661782327L172.44348958333333,161.60146605158943L172.890234375,160.89584265771109L173.33697916666665,161.87975506144218L173.78372395833333,162.6413300284901L174.23046875,159.82531213137108L174.67721354166665,161.0327200015577L175.12395833333332,162.31156710246935L175.570703125,161.35132100099983L176.01744791666667,162.5058879378037L176.46419270833334,161.32553938443127L176.91093750000002,161.299126288173L177.35768229166666,161.3280594385444L177.80442708333334,162.72262982883527L178.251171875,159.5901233538842L178.69791666666666,160.94612042390955L179.14466145833333,162.24673463289554L179.59140625,162.45275329662343L180.03815104166665,160.75332606075187L180.48489583333333,161.82076401675405L180.931640625,160.9429820459336L181.37838541666665,162.59732125155054L181.82513020833335,162.8899220178674L182.27187500000002,162.70699091889682L182.71861979166667,162.63783755271623L183.16536458333334,162.37466411242406L183.61210937500002,161.88633471841996L184.05885416666666,162.1010634905587L184.50559895833334,159.75380181162976L184.95234374999998,162.2748053633393L185.39908854166666,162.5368432021664L185.84583333333333,162.7226079552918L186.29257812499998,160.24928829245843L186.73932291666665,160.4793665859705L187.18606770833335,162.91240156151784L187.6328125,163.08700254545636L188.07955729166667,162.78978224130026L188.52630208333335,160.4712432591388L188.973046875,161.92987670126158L189.41979166666667,162.83022499663863L189.86653645833334,161.52839399254523L190.31328125,160.96895830533825L190.76002604166666,160.94672242186678L191.20677083333334,162.68592590401667L191.65351562499998,162.3037733053251L192.10026041666666,161.12558143578755L192.54700520833333,161.4515535023708L192.99375,162.2458903616688L193.44049479166668,161.0737821902865L193.88723958333335,163.01988007042272L194.333984375,162.73949912559385L194.78072916666667,162.81973524563588L195.22747395833335,163.01618177728514L195.67421875,163.05663362678695L196.12096354166667,159.9904380470801L196.56770833333331,162.57117095482178L197.014453125,162.02877285592976L197.46119791666666,162.80638243799777L197.9079427083333,161.12224270883374L198.3546875,162.6929007905643L198.80143229166669,162.27047162791357L199.24817708333333,162.32341978921053L199.694921875,162.888041091259L200.14166666666668,163.1128145155291L200.58841145833333,161.92740514935352L201.03515625,161.76144106481942L201.48190104166667,162.82981439218676L201.92864583333332,162.10486084865764L202.375390625,161.52416193739583L202.82213541666667,163.08381152435993L203.26888020833331,161.49265515858022L203.715625,162.73044886773167L204.1623697916667,161.82180507062003L204.60911458333334,162.09782248128278L205.055859375,162.7041736698996L205.50260416666669,162.45066619601747L205.94934895833333,162.19617013307288L206.39609375,161.57215265027034L206.84283854166665,161.99250715487423L207.28958333333333,162.89571894277245L207.736328125,162.487490781959L208.18307291666665,161.39897203993482L208.62981770833332,162.02460340983592L209.0765625,162.09130781091963L209.52330729166667,163.16557889150974L209.97005208333334,163.164380898932L210.41679687500002,160.9721372603224L210.86354166666666,161.42326609704358L211.31028645833334,162.84385368038113L211.75703125,160.55963139522535L212.20377604166666,161.28238177363974L212.65052083333333,161.75684920573033L213.097265625,162.31393213973095L213.54401041666665,163.11109318257346L213.99075520833333,162.2423803712098L214.4375,161.4577657472199L214.88424479166665,162.83832121929692L215.33098958333335,162.35169641627L215.77773437500002,162.60277988942553L216.22447916666667,160.88052515413327L216.67122395833334,158.17412873916328L217.11796875000002,162.53718683870437L217.56471354166666,161.6086884420365L218.01145833333334,163.18016973378298L218.45820312499998,161.91706609597L218.90494791666666,162.53035405093732L219.35169270833333,162.27072666075009L219.79843749999998,162.69625330736073L220.24518229166665,162.74614182751304L220.69192708333335,161.0766168747169L221.138671875,161.40951809946162L221.58541666666667,163.04275135655635L222.03216145833335,162.9302747033429L222.47890625,162.0369594258328L222.92565104166667,161.85268750242315L223.37239583333334,162.58128374383355L223.819140625,161.10252370939662L224.26588541666666,162.00763683128528L224.71263020833334,162.20442137258271L225.15937499999998,161.61185550922528L225.60611979166666,161.8323837819581L226.05286458333333,162.023539214395L226.499609375,161.89925120434222L226.94635416666668,161.87210043075567L227.39309895833335,163.29186057400344L227.83984375,162.78315237820004L228.28658854166667,162.2353472344649L228.73333333333335,161.3666117174121L229.180078125,161.35726220411462L229.62682291666667,163.29178546294972L230.07356770833331,162.96006872822852L230.5203125,162.18406883290467L230.96705729166666,161.90198143467737L231.4138020833333,163.00709621267072L231.860546875,161.44974528944405L232.30729166666669,162.177150453011L232.75403645833333,161.88063634333847L233.20078125,162.23805059838253L233.64752604166668,161.4583033925782L234.09427083333333,161.17669546876388L234.541015625,161.01852755893307L234.98776041666667,161.88979961450858L235.43450520833332,160.53976229255875L235.88125,162.49159040706806L236.32799479166667,161.48035525297746L236.77473958333331,163.30534184413017L237.221484375,162.199661895579L237.6682291666667,162.81020258103783L238.11497395833334,163.0680833767043L238.56171875,163.26285125258326L239.00846354166669,163.05192267180135L239.45520833333333,163.2601838096206L239.901953125,163.30588846972722L240.34869791666665,162.28568364712052L240.79544270833333,163.31931357992735L241.2421875,162.92732649046675L241.68893229166665,163.29476519829657L242.13567708333332,163.31307533547917L242.582421875,162.61395845891764L243.02916666666667,162.2902618748709L243.47591145833334,161.26949841504057L243.92265625000002,161.6351435418384L244.36940104166666,162.2771062857579L244.81614583333334,160.94062620190044L245.262890625,161.44937898684293L245.70963541666666,161.71451660793704" style="fill: none;" fill="none"></path></g></g></g></g></g></g><g transform="translate(61, 177)" clip-path="url(#clip_1)"><clipPath id="clip_1"><rect width="268" height="23"></rect></clipPath><g><g><line x1="0" y1="0" x2="0" y2="5" style="visibility: inherit;" fill="rgb(0, 0, 0)" stroke="rgb(204, 204, 204)" stroke-width="1px"></line><line x1="22.337239583333332" y1="0" x2="22.337239583333332" y2="5" style="visibility: inherit;" fill="rgb(0, 0, 0)" stroke="rgb(204, 204, 204)" stroke-width="1px"></line><line x1="44.674479166666664" y1="0" x2="44.674479166666664" y2="5" style="visibility: inherit;" fill="rgb(0, 0, 0)" stroke="rgb(204, 204, 204)" stroke-width="1px"></line><line x1="67.01171875" y1="0" x2="67.01171875" y2="5" style="visibility: inherit;" fill="rgb(0, 0, 0)" stroke="rgb(204, 204, 204)" stroke-width="1px"></line><line x1="89.34895833333333" y1="0" x2="89.34895833333333" y2="5" style="visibility: inherit;" fill="rgb(0, 0, 0)" stroke="rgb(204, 204, 204)" stroke-width="1px"></line><line x1="111.68619791666667" y1="0" x2="111.68619791666667" y2="5" style="visibility: inherit;" fill="rgb(0, 0, 0)" stroke="rgb(204, 204, 204)" stroke-width="1px"></line><line x1="134.0234375" y1="0" x2="134.0234375" y2="5" style="visibility: inherit;" fill="rgb(0, 0, 0)" stroke="rgb(204, 204, 204)" stroke-width="1px"></line><line x1="156.36067708333334" y1="0" x2="156.36067708333334" y2="5" style="visibility: inherit;" fill="rgb(0, 0, 0)" stroke="rgb(204, 204, 204)" stroke-width="1px"></line><line x1="178.69791666666666" y1="0" x2="178.69791666666666" y2="5" style="visibility: inherit;" fill="rgb(0, 0, 0)" stroke="rgb(204, 204, 204)" stroke-width="1px"></line><line x1="201.03515625" y1="0" x2="201.03515625" y2="5" style="visibility: inherit;" fill="rgb(0, 0, 0)" stroke="rgb(204, 204, 204)" stroke-width="1px"></line><line x1="223.37239583333334" y1="0" x2="223.37239583333334" y2="5" style="visibility: inherit;" fill="rgb(0, 0, 0)" stroke="rgb(204, 204, 204)" stroke-width="1px"></line><line x1="245.70963541666666" y1="0" x2="245.70963541666666" y2="5" style="visibility: inherit;" fill="rgb(0, 0, 0)" stroke="rgb(204, 204, 204)" stroke-width="1px"></line><line x1="268.046875" y1="0" x2="268.046875" y2="5" style="visibility: inherit;" fill="rgb(0, 0, 0)" stroke="rgb(204, 204, 204)" stroke-width="1px"></line></g><g transform="translate(0, 8)"><text x="0" y="0" dx="0em" dy="0.95em" style="text-anchor: middle; visibility: hidden; font-family: Roboto, sans-serif; font-size: 12px; font-weight: 200;" fill="rgb(33, 33, 33)" stroke="none" stroke-width="1px">-5k</text><text x="22.337239583333332" y="0" dx="0em" dy="0.95em" style="text-anchor: middle; visibility: inherit; font-family: Roboto, sans-serif; font-size: 12px; font-weight: 200;" fill="rgb(33, 33, 33)" stroke="none" stroke-width="1px">0</text><text x="44.674479166666664" y="0" dx="0em" dy="0.95em" style="text-anchor: middle; visibility: hidden; font-family: Roboto, sans-serif; font-size: 12px; font-weight: 200;" fill="rgb(33, 33, 33)" stroke="none" stroke-width="1px">5k</text><text x="67.01171875" y="0" dx="0em" dy="0.95em" style="text-anchor: middle; visibility: inherit; font-family: Roboto, sans-serif; font-size: 12px; font-weight: 200;" fill="rgb(33, 33, 33)" stroke="none" stroke-width="1px">10k</text><text x="89.34895833333333" y="0" dx="0em" dy="0.95em" style="text-anchor: middle; visibility: hidden; font-family: Roboto, sans-serif; font-size: 12px; font-weight: 200;" fill="rgb(33, 33, 33)" stroke="none" stroke-width="1px">15k</text><text x="111.68619791666667" y="0" dx="0em" dy="0.95em" style="text-anchor: middle; visibility: inherit; font-family: Roboto, sans-serif; font-size: 12px; font-weight: 200;" fill="rgb(33, 33, 33)" stroke="none" stroke-width="1px">20k</text><text x="134.0234375" y="0" dx="0em" dy="0.95em" style="text-anchor: middle; visibility: hidden; font-family: Roboto, sans-serif; font-size: 12px; font-weight: 200;" fill="rgb(33, 33, 33)" stroke="none" stroke-width="1px">25k</text><text x="156.36067708333334" y="0" dx="0em" dy="0.95em" style="text-anchor: middle; visibility: inherit; font-family: Roboto, sans-serif; font-size: 12px; font-weight: 200;" fill="rgb(33, 33, 33)" stroke="none" stroke-width="1px">30k</text><text x="178.69791666666666" y="0" dx="0em" dy="0.95em" style="text-anchor: middle; visibility: hidden; font-family: Roboto, sans-serif; font-size: 12px; font-weight: 200;" fill="rgb(33, 33, 33)" stroke="none" stroke-width="1px">35k</text><text x="201.03515625" y="0" dx="0em" dy="0.95em" style="text-anchor: middle; visibility: inherit; font-family: Roboto, sans-serif; font-size: 12px; font-weight: 200;" fill="rgb(33, 33, 33)" stroke="none" stroke-width="1px">40k</text><text x="223.37239583333334" y="0" dx="0em" dy="0.95em" style="text-anchor: middle; visibility: hidden; font-family: Roboto, sans-serif; font-size: 12px; font-weight: 200;" fill="rgb(33, 33, 33)" stroke="none" stroke-width="1px">45k</text><text x="245.70963541666666" y="0" dx="0em" dy="0.95em" style="text-anchor: middle; visibility: inherit; font-family: Roboto, sans-serif; font-size: 12px; font-weight: 200;" fill="rgb(33, 33, 33)" stroke="none" stroke-width="1px">50k</text><text x="268.046875" y="0" dx="0em" dy="0.95em" style="text-anchor: middle; visibility: hidden; font-family: Roboto, sans-serif; font-size: 12px; font-weight: 200;" fill="rgb(33, 33, 33)" stroke="none" stroke-width="1px">55k</text></g><line x1="0" y1="0" x2="268.046875" y2="0" fill="rgb(0, 0, 0)" stroke="rgb(204, 204, 204)" stroke-width="1px"></line></g></g></g></g></svg>